<?xml version="1.0" standalone="no"?>
<!DOCTYPE svg PUBLIC "-//W3C//DTD SVG 1.1//EN" "http://www.w3.org/Graphics/SVG/1.1/DTD/svg11.dtd">
<svg version="1.1" xmlns="http://www.w3.org/2000/svg" viewBox="0 0 947.1474609375 1004.8766669604274" width="947.1474609375" height="1004.8766669604274"><!-- svg-source:excalidraw --><metadata></metadata><defs><style class="style-fonts">
      </style></defs><rect x="0" y="0" width="947.1474609375" height="1004.8766669604274" fill="#ffffff"></rect><g stroke-linecap="round"><g transform="translate(759.3280942287465 314.26184667133975) rotate(0 -84.61618016624641 96.31111108491802)" fill-rule="evenodd"><path d="M0 0 L-169.23 0 L-169.23 0 L-176.47 1.44 L-182.39 5.42 L-186.37 11.33 L-187.81 18.57 L-187.81 130.02 L-187.81 130.02 L-186.37 137.26 L-182.39 143.17 L-176.47 147.15 L-169.23 148.59 L-105.25 148.59 L-105.25 171.98 L-125.89 171.98 L-125.89 192.62 L-43.34 192.62 L-43.34 171.98 L-63.98 171.98 L-63.98 148.59 L0 148.59 L0 148.59 L7.24 147.15 L13.15 143.17 L17.13 137.26 L18.57 130.02 L18.57 18.57 L18.57 18.57 L17.13 11.33 L13.15 5.42 L7.24 1.44 L0 0 L0 0" stroke="none" stroke-width="0" fill="#aecbfa" fill-rule="evenodd"></path><path d="M0 0 C-61.87 0, -123.73 0, -169.23 0 M0 0 C-42.42 0, -84.84 0, -169.23 0 M-169.23 0 C-169.23 0, -169.23 0, -169.23 0 M-169.23 0 C-169.23 0, -169.23 0, -169.23 0 M-169.23 0 C-172.05 0.56, -174.87 1.12, -176.47 1.44 M-169.23 0 C-170.89 0.33, -172.55 0.66, -176.47 1.44 M-176.47 1.44 C-178.56 2.85, -180.65 4.25, -182.39 5.42 M-176.47 1.44 C-178.14 2.56, -179.8 3.68, -182.39 5.42 M-182.39 5.42 C-183.94 7.72, -185.48 10.02, -186.37 11.33 M-182.39 5.42 C-183.65 7.3, -184.92 9.19, -186.37 11.33 M-186.37 11.33 C-186.69 12.94, -187.01 14.55, -187.81 18.57 M-186.37 11.33 C-186.76 13.31, -187.15 15.29, -187.81 18.57 M-187.81 18.57 C-187.81 45.57, -187.81 72.56, -187.81 130.02 M-187.81 18.57 C-187.81 57.61, -187.81 96.65, -187.81 130.02 M-187.81 130.02 C-187.81 130.02, -187.81 130.02, -187.81 130.02 M-187.81 130.02 C-187.81 130.02, -187.81 130.02, -187.81 130.02 M-187.81 130.02 C-187.39 132.11, -186.97 134.2, -186.37 137.26 M-187.81 130.02 C-187.38 132.15, -186.96 134.28, -186.37 137.26 M-186.37 137.26 C-184.96 139.35, -183.56 141.44, -182.39 143.17 M-186.37 137.26 C-184.77 139.63, -183.18 141.99, -182.39 143.17 M-182.39 143.17 C-180.43 144.49, -178.47 145.81, -176.47 147.15 M-182.39 143.17 C-180.87 144.19, -179.36 145.21, -176.47 147.15 M-176.47 147.15 C-174.88 147.47, -173.29 147.79, -169.23 148.59 M-176.47 147.15 C-173.95 147.65, -171.43 148.16, -169.23 148.59 M-169.23 148.59 C-154.25 148.59, -139.27 148.59, -105.25 148.59 M-169.23 148.59 C-151.22 148.59, -133.21 148.59, -105.25 148.59 M-105.25 148.59 C-105.25 156.29, -105.25 163.98, -105.25 171.98 M-105.25 148.59 C-105.25 154.64, -105.25 160.68, -105.25 171.98 M-105.25 171.98 C-111.98 171.98, -118.71 171.98, -125.89 171.98 M-105.25 171.98 C-112.51 171.98, -119.77 171.98, -125.89 171.98 M-125.89 171.98 C-125.89 176.91, -125.89 181.83, -125.89 192.62 M-125.89 171.98 C-125.89 179.84, -125.89 187.71, -125.89 192.62 M-125.89 192.62 C-93.18 192.62, -60.47 192.62, -43.34 192.62 M-125.89 192.62 C-94.02 192.62, -62.14 192.62, -43.34 192.62 M-43.34 192.62 C-43.34 184.98, -43.34 177.34, -43.34 171.98 M-43.34 192.62 C-43.34 186.35, -43.34 180.08, -43.34 171.98 M-43.34 171.98 C-49.48 171.98, -55.62 171.98, -63.98 171.98 M-43.34 171.98 C-48.32 171.98, -53.31 171.98, -63.98 171.98 M-63.98 171.98 C-63.98 167.13, -63.98 162.28, -63.98 148.59 M-63.98 171.98 C-63.98 163.73, -63.98 155.48, -63.98 148.59 M-63.98 148.59 C-41.9 148.59, -19.82 148.59, 0 148.59 M-63.98 148.59 C-44 148.59, -24.02 148.59, 0 148.59 M0 148.59 C0 148.59, 0 148.59, 0 148.59 M0 148.59 C0 148.59, 0 148.59, 0 148.59 M0 148.59 C2.29 148.14, 4.58 147.68, 7.24 147.15 M0 148.59 C2.39 148.12, 4.78 147.64, 7.24 147.15 M7.24 147.15 C8.7 146.17, 10.17 145.19, 13.15 143.17 M7.24 147.15 C8.53 146.28, 9.83 145.41, 13.15 143.17 M13.15 143.17 C14.15 141.69, 15.15 140.21, 17.13 137.26 M13.15 143.17 C14.61 141.02, 16.06 138.86, 17.13 137.26 M17.13 137.26 C17.61 134.87, 18.08 132.49, 18.57 130.02 M17.13 137.26 C17.67 134.55, 18.21 131.84, 18.57 130.02 M18.57 130.02 C18.57 101.93, 18.57 73.84, 18.57 18.57 M18.57 130.02 C18.57 105.2, 18.57 80.38, 18.57 18.57 M18.57 18.57 C18.57 18.57, 18.57 18.57, 18.57 18.57 M18.57 18.57 C18.57 18.57, 18.57 18.57, 18.57 18.57 M18.57 18.57 C18.16 16.52, 17.75 14.46, 17.13 11.33 M18.57 18.57 C18.22 16.78, 17.86 14.98, 17.13 11.33 M17.13 11.33 C15.98 9.63, 14.84 7.92, 13.15 5.42 M17.13 11.33 C15.91 9.51, 14.68 7.69, 13.15 5.42 M13.15 5.42 C10.93 3.93, 8.71 2.43, 7.24 1.44 M13.15 5.42 C11.24 4.13, 9.33 2.85, 7.24 1.44 M7.24 1.44 C5.65 1.12, 4.05 0.81, 0 0 M7.24 1.44 C5.43 1.08, 3.61 0.72, 0 0 M0 0 C0 0, 0 0, 0 0 M0 0 C0 0, 0 0, 0 0 M0 0 C0 0, 0 0, 0 0 M0 0 C0 0, 0 0, 0 0" stroke="#000000" stroke-width="1" fill="none"></path></g></g><mask></mask><g stroke-linecap="round"><g transform="translate(722.8674746792317 438.0904152984499) rotate(0 -20.638097538969305 -10.319045079105706)" fill-rule="evenodd"><path d="M0 0 L-41.28 0 L-41.28 -20.64 L0 -20.64 L0 0" stroke="none" stroke-width="0" fill="#FFFFFF" fill-rule="evenodd"></path><path d="M0 0 C-8.91 0, -17.82 0, -41.28 0 M0 0 C-16.31 0, -32.62 0, -41.28 0 M-41.28 0 C-41.28 -7.67, -41.28 -15.34, -41.28 -20.64 M-41.28 0 C-41.28 -7.77, -41.28 -15.54, -41.28 -20.64 M-41.28 -20.64 C-27.48 -20.64, -13.68 -20.64, 0 -20.64 M-41.28 -20.64 C-25.74 -20.64, -10.2 -20.64, 0 -20.64 M0 -20.64 C0 -14.49, 0 -8.35, 0 0 M0 -20.64 C0 -13.5, 0 -6.35, 0 0 M0 0 C0 0, 0 0, 0 0 M0 0 C0 0, 0 0, 0 0" stroke="#000000" stroke-width="1" fill="none"></path></g></g><mask></mask><g stroke-linecap="round"><g transform="translate(722.8674746792317 391.3107359083126) rotate(0 -46.779686770896035 -9.28714315446038)" fill-rule="evenodd"><path d="M0 0 L-93.56 39.21 L-93.56 19.95 L-26.14 -8.94 L-93.56 -38.52 L-93.56 -57.79 L0 -19.26 L0 0" stroke="none" stroke-width="0" fill="#FFFFFF" fill-rule="evenodd"></path><path d="M0 0 C-32.47 13.61, -64.94 27.22, -93.56 39.21 M0 0 C-29.69 12.44, -59.38 24.89, -93.56 39.21 M-93.56 39.21 C-93.56 34.25, -93.56 29.28, -93.56 19.95 M-93.56 39.21 C-93.56 33.28, -93.56 27.34, -93.56 19.95 M-93.56 19.95 C-77.51 13.07, -61.47 6.2, -26.14 -8.94 M-93.56 19.95 C-75.82 12.35, -58.08 4.75, -26.14 -8.94 M-26.14 -8.94 C-41.89 -15.85, -57.63 -22.76, -93.56 -38.52 M-26.14 -8.94 C-49.33 -19.12, -72.52 -29.29, -93.56 -38.52 M-93.56 -38.52 C-93.56 -45.4, -93.56 -52.27, -93.56 -57.79 M-93.56 -38.52 C-93.56 -43.98, -93.56 -49.43, -93.56 -57.79 M-93.56 -57.79 C-73.73 -49.62, -53.91 -41.46, 0 -19.26 M-93.56 -57.79 C-69.33 -47.81, -45.1 -37.83, 0 -19.26 M0 -19.26 C0 -15.05, 0 -10.83, 0 0 M0 -19.26 C0 -12.11, 0 -4.95, 0 0 M0 0 C0 0, 0 0, 0 0 M0 0 C0 0, 0 0, 0 0" stroke="#000000" stroke-width="1" fill="none"></path></g></g><mask></mask><g stroke-linecap="round"><g transform="translate(654.0738137557482 462.8561352975164) rotate(0 20.6380938485903 11.694921692723995)" fill-rule="evenodd"><path d="M0 0 L41.28 0 L41.28 23.39 L0 23.39 L0 0 L0 0" stroke="none" stroke-width="0" fill="#4285f4" fill-rule="evenodd"></path><path d="M0 0 C15.74 0, 31.48 0, 41.28 0 M0 0 C14.32 0, 28.64 0, 41.28 0 M41.28 0 C41.28 8.46, 41.28 16.91, 41.28 23.39 M41.28 0 C41.28 8.1, 41.28 16.2, 41.28 23.39 M41.28 23.39 C27.76 23.39, 14.25 23.39, 0 23.39 M41.28 23.39 C27.27 23.39, 13.26 23.39, 0 23.39 M0 23.39 C0 16.32, 0 9.25, 0 0 M0 23.39 C0 14.67, 0 5.95, 0 0 M0 0 C0 0, 0 0, 0 0 M0 0 C0 0, 0 0, 0 0 M0 0 C0 0, 0 0, 0 0 M0 0 C0 0, 0 0, 0 0" stroke="#000000" stroke-width="1" fill="none"></path></g></g><mask></mask><g stroke-linecap="round"><g transform="translate(633.4357235975363 486.24597868296473) rotate(0 41.27619138755961 10.319045079105706)" fill-rule="evenodd"><path d="M0 0 L82.55 0 L82.55 20.64 L0 20.64 L0 0" stroke="none" stroke-width="0" fill="#669df6" fill-rule="evenodd"></path><path d="M0 0 C23.29 0, 46.58 0, 82.55 0 M0 0 C17.33 0, 34.66 0, 82.55 0 M82.55 0 C82.55 6.94, 82.55 13.87, 82.55 20.64 M82.55 0 C82.55 5.98, 82.55 11.96, 82.55 20.64 M82.55 20.64 C64.33 20.64, 46.1 20.64, 0 20.64 M82.55 20.64 C65.91 20.64, 49.27 20.64, 0 20.64 M0 20.64 C0 13.17, 0 5.69, 0 0 M0 20.64 C0 13.38, 0 6.12, 0 0 M0 0 C0 0, 0 0, 0 0 M0 0 C0 0, 0 0, 0 0" stroke="#000000" stroke-width="1" fill="none"></path></g></g><mask></mask><g transform="translate(607.2705711677058 515.5362061410796) rotate(0 70.546875 15.914529914529908)"><text x="0" y="23.475076789529925" font-family="Helvetica, Segoe UI Emoji" font-size="28px" fill="#1e1e1e" text-anchor="start" style="white-space: pre;" direction="ltr" dominant-baseline="alphabetic">DEBIAN 11</text></g><g stroke-linecap="round"><g transform="translate(672.7374938883243 10) rotate(0 -0.02557982582425211 64.564462043119)" fill-rule="evenodd"><path d="M0 0 L0 0 L-4.28 0.17 L-8.47 0.67 L-12.56 1.49 L-16.53 2.61 L-20.36 4.02 L-24.05 5.71 L-27.59 7.67 L-30.95 9.87 L-34.13 12.32 L-37.12 15 L-39.9 17.89 L-42.46 20.98 L-44.79 24.26 L-46.87 27.71 L-48.69 31.33 L-50.24 35.1 L-50.24 35.1 L-52.34 35.1 L-52.34 35.1 L-54.76 35.16 L-57.15 35.34 L-59.5 35.64 L-61.82 36.05 L-64.09 36.57 L-66.33 37.21 L-68.51 37.95 L-70.65 38.79 L-72.73 39.73 L-74.76 40.77 L-76.73 41.9 L-78.63 43.12 L-80.48 44.43 L-82.25 45.82 L-83.96 47.3 L-85.59 48.86 L-87.15 50.49 L-88.62 52.2 L-90.02 53.97 L-91.33 55.82 L-92.55 57.72 L-93.68 59.69 L-94.72 61.72 L-95.66 63.8 L-96.5 65.94 L-97.24 68.12 L-97.87 70.35 L-98.4 72.63 L-98.81 74.95 L-99.11 77.3 L-99.29 79.69 L-99.35 82.11 L-99.29 84.53 L-99.11 86.92 L-98.81 89.28 L-98.4 91.59 L-97.87 93.87 L-97.24 96.1 L-96.5 98.29 L-95.66 100.42 L-94.72 102.51 L-93.68 104.53 L-92.55 106.5 L-91.33 108.41 L-90.02 110.25 L-88.62 112.03 L-87.15 113.73 L-85.59 115.37 L-83.96 116.92 L-82.25 118.4 L-80.48 119.8 L-78.63 121.11 L-76.73 122.33 L-74.76 123.46 L-72.73 124.5 L-70.65 125.44 L-68.51 126.28 L-66.33 127.02 L-64.09 127.65 L-61.82 128.17 L-59.5 128.59 L-57.15 128.89 L-54.76 129.07 L-52.34 129.13 L-52.34 129.13 L52.29 129.13 L52.29 129.13 L54.71 129.07 L57.1 128.89 L59.45 128.59 L61.77 128.17 L64.04 127.65 L66.28 127.02 L68.46 126.28 L70.6 125.44 L72.68 124.5 L74.71 123.46 L76.68 122.33 L78.58 121.11 L80.43 119.8 L82.2 118.4 L83.91 116.92 L85.54 115.37 L87.1 113.73 L88.57 112.03 L89.97 110.25 L91.28 108.41 L92.5 106.5 L93.63 104.53 L94.67 102.51 L95.61 100.42 L96.45 98.29 L97.19 96.1 L97.82 93.87 L98.35 91.59 L98.76 89.28 L99.06 86.92 L99.24 84.53 L99.3 82.11 L99.24 79.69 L99.06 77.3 L98.76 74.95 L98.35 72.63 L97.82 70.35 L97.19 68.12 L96.45 65.94 L95.61 63.8 L94.67 61.72 L93.63 59.69 L92.5 57.72 L91.28 55.82 L89.97 53.97 L88.57 52.2 L87.1 50.49 L85.54 48.86 L83.91 47.3 L82.2 45.82 L80.43 44.43 L78.58 43.12 L76.68 41.9 L74.71 40.77 L72.68 39.73 L70.6 38.79 L68.46 37.95 L66.28 37.21 L64.04 36.57 L61.77 36.05 L59.45 35.64 L57.1 35.34 L54.71 35.16 L52.29 35.1 L52.29 35.1 L50.19 35.1 L50.19 35.1 L48.66 31.33 L46.85 27.71 L44.78 24.26 L42.46 20.98 L39.91 17.89 L37.13 15 L34.15 12.32 L30.96 9.87 L27.6 7.67 L24.06 5.71 L20.37 4.02 L16.53 2.61 L12.56 1.49 L8.48 0.67 L4.28 0.17 L0 0 L0 0" stroke="none" stroke-width="0" fill="#4285F4" fill-rule="evenodd"></path><path d="M0 0 C0 0, 0 0, 0 0 M0 0 C0 0, 0 0, 0 0 M0 0 C-1.67 0.07, -3.33 0.13, -4.28 0.17 M0 0 C-0.86 0.03, -1.72 0.07, -4.28 0.17 M-4.28 0.17 C-5.23 0.28, -6.18 0.39, -8.47 0.67 M-4.28 0.17 C-5.74 0.34, -7.19 0.52, -8.47 0.67 M-8.47 0.67 C-9.77 0.93, -11.07 1.19, -12.56 1.49 M-8.47 0.67 C-9.53 0.88, -10.58 1.09, -12.56 1.49 M-12.56 1.49 C-13.78 1.83, -15 2.18, -16.53 2.61 M-12.56 1.49 C-13.5 1.75, -14.45 2.02, -16.53 2.61 M-16.53 2.61 C-17.54 2.98, -18.54 3.35, -20.36 4.02 M-16.53 2.61 C-17.42 2.94, -18.32 3.27, -20.36 4.02 M-20.36 4.02 C-21.63 4.6, -22.9 5.18, -24.05 5.71 M-20.36 4.02 C-21.68 4.62, -23 5.22, -24.05 5.71 M-24.05 5.71 C-25.05 6.26, -26.05 6.82, -27.59 7.67 M-24.05 5.71 C-24.8 6.12, -25.55 6.54, -27.59 7.67 M-27.59 7.67 C-28.46 8.24, -29.33 8.81, -30.95 9.87 M-27.59 7.67 C-28.32 8.15, -29.06 8.63, -30.95 9.87 M-30.95 9.87 C-32.13 10.78, -33.32 11.69, -34.13 12.32 M-30.95 9.87 C-32.03 10.7, -33.11 11.54, -34.13 12.32 M-34.13 12.32 C-35.08 13.17, -36.02 14.01, -37.12 15 M-34.13 12.32 C-34.74 12.86, -35.34 13.4, -37.12 15 M-37.12 15 C-37.85 15.75, -38.57 16.5, -39.9 17.89 M-37.12 15 C-37.75 15.65, -38.37 16.29, -39.9 17.89 M-39.9 17.89 C-40.71 18.87, -41.52 19.84, -42.46 20.98 M-39.9 17.89 C-40.78 18.95, -41.66 20.02, -42.46 20.98 M-42.46 20.98 C-42.97 21.7, -43.48 22.41, -44.79 24.26 M-42.46 20.98 C-43.25 22.09, -44.04 23.2, -44.79 24.26 M-44.79 24.26 C-45.61 25.63, -46.44 27, -46.87 27.71 M-44.79 24.26 C-45.52 25.47, -46.24 26.68, -46.87 27.71 M-46.87 27.71 C-47.33 28.63, -47.79 29.55, -48.69 31.33 M-46.87 27.71 C-47.26 28.49, -47.65 29.27, -48.69 31.33 M-48.69 31.33 C-49.05 32.21, -49.42 33.1, -50.24 35.1 M-48.69 31.33 C-49.29 32.78, -49.88 34.23, -50.24 35.1 M-50.24 35.1 C-50.24 35.1, -50.24 35.1, -50.24 35.1 M-50.24 35.1 C-50.24 35.1, -50.24 35.1, -50.24 35.1 M-50.24 35.1 C-50.75 35.1, -51.25 35.1, -52.34 35.1 M-50.24 35.1 C-50.81 35.1, -51.39 35.1, -52.34 35.1 M-52.34 35.1 C-52.34 35.1, -52.34 35.1, -52.34 35.1 M-52.34 35.1 C-52.34 35.1, -52.34 35.1, -52.34 35.1 M-52.34 35.1 C-53.23 35.12, -54.12 35.14, -54.76 35.16 M-52.34 35.1 C-53.09 35.11, -53.84 35.13, -54.76 35.16 M-54.76 35.16 C-55.59 35.22, -56.42 35.28, -57.15 35.34 M-54.76 35.16 C-55.47 35.21, -56.18 35.27, -57.15 35.34 M-57.15 35.34 C-57.86 35.43, -58.58 35.52, -59.5 35.64 M-57.15 35.34 C-57.72 35.41, -58.3 35.48, -59.5 35.64 M-59.5 35.64 C-60.21 35.76, -60.93 35.89, -61.82 36.05 M-59.5 35.64 C-60 35.73, -60.49 35.81, -61.82 36.05 M-61.82 36.05 C-62.44 36.19, -63.06 36.34, -64.09 36.57 M-61.82 36.05 C-62.48 36.2, -63.14 36.36, -64.09 36.57 M-64.09 36.57 C-64.63 36.73, -65.16 36.88, -66.33 37.21 M-64.09 36.57 C-64.76 36.76, -65.43 36.95, -66.33 37.21 M-66.33 37.21 C-66.85 37.38, -67.37 37.56, -68.51 37.95 M-66.33 37.21 C-67.05 37.45, -67.76 37.69, -68.51 37.95 M-68.51 37.95 C-69.32 38.26, -70.12 38.58, -70.65 38.79 M-68.51 37.95 C-69.07 38.17, -69.63 38.39, -70.65 38.79 M-70.65 38.79 C-71.28 39.07, -71.91 39.36, -72.73 39.73 M-70.65 38.79 C-71.27 39.07, -71.89 39.35, -72.73 39.73 M-72.73 39.73 C-73.32 40.03, -73.9 40.33, -74.76 40.77 M-72.73 39.73 C-73.29 40.01, -73.85 40.3, -74.76 40.77 M-74.76 40.77 C-75.35 41.11, -75.95 41.45, -76.73 41.9 M-74.76 40.77 C-75.15 40.99, -75.55 41.22, -76.73 41.9 M-76.73 41.9 C-77.26 42.24, -77.8 42.59, -78.63 43.12 M-76.73 41.9 C-77.43 42.35, -78.14 42.8, -78.63 43.12 M-78.63 43.12 C-79.03 43.4, -79.42 43.68, -80.48 44.43 M-78.63 43.12 C-79.19 43.51, -79.74 43.91, -80.48 44.43 M-80.48 44.43 C-80.83 44.71, -81.19 44.99, -82.25 45.82 M-80.48 44.43 C-80.91 44.77, -81.35 45.12, -82.25 45.82 M-82.25 45.82 C-82.85 46.34, -83.44 46.85, -83.96 47.3 M-82.25 45.82 C-82.81 46.31, -83.37 46.79, -83.96 47.3 M-83.96 47.3 C-84.33 47.65, -84.7 48.01, -85.59 48.86 M-83.96 47.3 C-84.38 47.71, -84.8 48.11, -85.59 48.86 M-85.59 48.86 C-86.15 49.44, -86.7 50.02, -87.15 50.49 M-85.59 48.86 C-86.01 49.3, -86.43 49.74, -87.15 50.49 M-87.15 50.49 C-87.56 50.97, -87.97 51.44, -88.62 52.2 M-87.15 50.49 C-87.49 50.89, -87.83 51.28, -88.62 52.2 M-88.62 52.2 C-88.94 52.6, -89.26 53.01, -90.02 53.97 M-88.62 52.2 C-89.16 52.87, -89.69 53.55, -90.02 53.97 M-90.02 53.97 C-90.3 54.37, -90.58 54.76, -91.33 55.82 M-90.02 53.97 C-90.34 54.43, -90.67 54.89, -91.33 55.82 M-91.33 55.82 C-91.68 56.37, -92.04 56.92, -92.55 57.72 M-91.33 55.82 C-91.79 56.53, -92.25 57.25, -92.55 57.72 M-92.55 57.72 C-92.81 58.17, -93.07 58.62, -93.68 59.69 M-92.55 57.72 C-92.84 58.22, -93.13 58.72, -93.68 59.69 M-93.68 59.69 C-93.89 60.1, -94.1 60.51, -94.72 61.72 M-93.68 59.69 C-93.92 60.16, -94.17 60.63, -94.72 61.72 M-94.72 61.72 C-94.96 62.24, -95.2 62.77, -95.66 63.8 M-94.72 61.72 C-94.96 62.26, -95.21 62.79, -95.66 63.8 M-95.66 63.8 C-95.97 64.59, -96.28 65.37, -96.5 65.94 M-95.66 63.8 C-95.99 64.63, -96.32 65.47, -96.5 65.94 M-96.5 65.94 C-96.77 66.71, -97.03 67.49, -97.24 68.12 M-96.5 65.94 C-96.75 66.66, -96.99 67.39, -97.24 68.12 M-97.24 68.12 C-97.45 68.84, -97.65 69.56, -97.87 70.35 M-97.24 68.12 C-97.46 68.91, -97.69 69.69, -97.87 70.35 M-97.87 70.35 C-98.06 71.14, -98.24 71.92, -98.4 72.63 M-97.87 70.35 C-97.98 70.83, -98.09 71.3, -98.4 72.63 M-98.4 72.63 C-98.54 73.42, -98.68 74.22, -98.81 74.95 M-98.4 72.63 C-98.52 73.28, -98.63 73.93, -98.81 74.95 M-98.81 74.95 C-98.92 75.8, -99.03 76.65, -99.11 77.3 M-98.81 74.95 C-98.9 75.62, -98.98 76.29, -99.11 77.3 M-99.11 77.3 C-99.16 77.88, -99.2 78.46, -99.29 79.69 M-99.11 77.3 C-99.15 77.8, -99.19 78.29, -99.29 79.69 M-99.29 79.69 C-99.31 80.4, -99.33 81.11, -99.35 82.11 M-99.29 79.69 C-99.31 80.23, -99.32 80.76, -99.35 82.11 M-99.35 82.11 C-99.33 83.01, -99.31 83.91, -99.29 84.53 M-99.35 82.11 C-99.34 82.64, -99.33 83.17, -99.29 84.53 M-99.29 84.53 C-99.23 85.38, -99.16 86.23, -99.11 86.92 M-99.29 84.53 C-99.23 85.34, -99.17 86.14, -99.11 86.92 M-99.11 86.92 C-99.05 87.44, -98.98 87.95, -98.81 89.28 M-99.11 86.92 C-99.03 87.56, -98.95 88.2, -98.81 89.28 M-98.81 89.28 C-98.69 89.99, -98.56 90.69, -98.4 91.59 M-98.81 89.28 C-98.72 89.77, -98.64 90.27, -98.4 91.59 M-98.4 91.59 C-98.29 92.07, -98.18 92.54, -97.87 93.87 M-98.4 91.59 C-98.2 92.45, -98.01 93.3, -97.87 93.87 M-97.87 93.87 C-97.72 94.4, -97.57 94.94, -97.24 96.1 M-97.87 93.87 C-97.68 94.55, -97.49 95.22, -97.24 96.1 M-97.24 96.1 C-97.02 96.77, -96.79 97.43, -96.5 98.29 M-97.24 96.1 C-97.08 96.57, -96.93 97.03, -96.5 98.29 M-96.5 98.29 C-96.18 99.11, -95.85 99.94, -95.66 100.42 M-96.5 98.29 C-96.24 98.95, -95.98 99.61, -95.66 100.42 M-95.66 100.42 C-95.47 100.86, -95.27 101.29, -94.72 102.51 M-95.66 100.42 C-95.36 101.09, -95.06 101.76, -94.72 102.51 M-94.72 102.51 C-94.39 103.15, -94.06 103.79, -93.68 104.53 M-94.72 102.51 C-94.51 102.93, -94.29 103.35, -93.68 104.53 M-93.68 104.53 C-93.28 105.23, -92.88 105.94, -92.55 106.5 M-93.68 104.53 C-93.34 105.13, -93 105.73, -92.55 106.5 M-92.55 106.5 C-92.14 107.15, -91.72 107.8, -91.33 108.41 M-92.55 106.5 C-92.27 106.94, -91.99 107.37, -91.33 108.41 M-91.33 108.41 C-90.9 109.01, -90.48 109.61, -90.02 110.25 M-91.33 108.41 C-91.04 108.82, -90.74 109.24, -90.02 110.25 M-90.02 110.25 C-89.61 110.78, -89.2 111.3, -88.62 112.03 M-90.02 110.25 C-89.64 110.73, -89.27 111.21, -88.62 112.03 M-88.62 112.03 C-88.29 112.42, -87.95 112.8, -87.15 113.73 M-88.62 112.03 C-88.31 112.39, -88 112.75, -87.15 113.73 M-87.15 113.73 C-86.57 114.34, -86 114.94, -85.59 115.37 M-87.15 113.73 C-86.7 114.21, -86.25 114.68, -85.59 115.37 M-85.59 115.37 C-85.08 115.86, -84.57 116.34, -83.96 116.92 M-85.59 115.37 C-85.17 115.77, -84.75 116.16, -83.96 116.92 M-83.96 116.92 C-83.48 117.33, -83.01 117.74, -82.25 118.4 M-83.96 116.92 C-83.43 117.38, -82.9 117.84, -82.25 118.4 M-82.25 118.4 C-81.59 118.92, -80.93 119.44, -80.48 119.8 M-82.25 118.4 C-81.88 118.69, -81.51 118.99, -80.48 119.8 M-80.48 119.8 C-79.96 120.16, -79.44 120.53, -78.63 121.11 M-80.48 119.8 C-80.09 120.07, -79.69 120.35, -78.63 121.11 M-78.63 121.11 C-78.01 121.51, -77.38 121.91, -76.73 122.33 M-78.63 121.11 C-77.89 121.58, -77.15 122.05, -76.73 122.33 M-76.73 122.33 C-76 122.75, -75.27 123.16, -74.76 123.46 M-76.73 122.33 C-76.04 122.72, -75.36 123.11, -74.76 123.46 M-74.76 123.46 C-74.26 123.72, -73.76 123.97, -72.73 124.5 M-74.76 123.46 C-74.01 123.84, -73.27 124.22, -72.73 124.5 M-72.73 124.5 C-72.15 124.76, -71.57 125.02, -70.65 125.44 M-72.73 124.5 C-72.06 124.8, -71.4 125.1, -70.65 125.44 M-70.65 125.44 C-69.95 125.71, -69.25 125.99, -68.51 126.28 M-70.65 125.44 C-69.82 125.77, -68.98 126.09, -68.51 126.28 M-68.51 126.28 C-67.91 126.48, -67.31 126.69, -66.33 127.02 M-68.51 126.28 C-68.07 126.43, -67.62 126.58, -66.33 127.02 M-66.33 127.02 C-65.65 127.21, -64.96 127.4, -64.09 127.65 M-66.33 127.02 C-65.53 127.24, -64.74 127.47, -64.09 127.65 M-64.09 127.65 C-63.26 127.84, -62.42 128.04, -61.82 128.17 M-64.09 127.65 C-63.34 127.82, -62.59 128, -61.82 128.17 M-61.82 128.17 C-61.22 128.28, -60.62 128.39, -59.5 128.59 M-61.82 128.17 C-61.28 128.27, -60.75 128.37, -59.5 128.59 M-59.5 128.59 C-58.8 128.68, -58.09 128.77, -57.15 128.89 M-59.5 128.59 C-58.8 128.68, -58.1 128.77, -57.15 128.89 M-57.15 128.89 C-56.67 128.92, -56.18 128.96, -54.76 129.07 M-57.15 128.89 C-56.57 128.93, -55.99 128.97, -54.76 129.07 M-54.76 129.07 C-53.91 129.09, -53.05 129.11, -52.34 129.13 M-54.76 129.07 C-53.87 129.09, -52.99 129.11, -52.34 129.13 M-52.34 129.13 C-52.34 129.13, -52.34 129.13, -52.34 129.13 M-52.34 129.13 C-52.34 129.13, -52.34 129.13, -52.34 129.13 M-52.34 129.13 C-16.09 129.13, 20.16 129.13, 52.29 129.13 M-52.34 129.13 C-25.92 129.13, 0.49 129.13, 52.29 129.13 M52.29 129.13 C52.29 129.13, 52.29 129.13, 52.29 129.13 M52.29 129.13 C52.29 129.13, 52.29 129.13, 52.29 129.13 M52.29 129.13 C52.86 129.11, 53.44 129.1, 54.71 129.07 M52.29 129.13 C53.12 129.11, 53.95 129.09, 54.71 129.07 M54.71 129.07 C55.55 129, 56.39 128.94, 57.1 128.89 M54.71 129.07 C55.46 129.01, 56.21 128.95, 57.1 128.89 M57.1 128.89 C57.85 128.79, 58.61 128.69, 59.45 128.59 M57.1 128.89 C57.77 128.8, 58.44 128.72, 59.45 128.59 M59.45 128.59 C60.21 128.45, 60.98 128.32, 61.77 128.17 M59.45 128.59 C60.38 128.42, 61.3 128.26, 61.77 128.17 M61.77 128.17 C62.29 128.05, 62.81 127.93, 64.04 127.65 M61.77 128.17 C62.65 127.97, 63.53 127.77, 64.04 127.65 M64.04 127.65 C64.54 127.51, 65.03 127.37, 66.28 127.02 M64.04 127.65 C64.71 127.46, 65.37 127.27, 66.28 127.02 M66.28 127.02 C67 126.77, 67.71 126.53, 68.46 126.28 M66.28 127.02 C66.75 126.86, 67.23 126.69, 68.46 126.28 M68.46 126.28 C69.04 126.05, 69.61 125.83, 70.6 125.44 M68.46 126.28 C68.91 126.1, 69.35 125.93, 70.6 125.44 M70.6 125.44 C71.28 125.13, 71.97 124.82, 72.68 124.5 M70.6 125.44 C71.04 125.23, 71.49 125.03, 72.68 124.5 M72.68 124.5 C73.18 124.24, 73.68 123.99, 74.71 123.46 M72.68 124.5 C73.09 124.29, 73.49 124.08, 74.71 123.46 M74.71 123.46 C75.25 123.15, 75.79 122.84, 76.68 122.33 M74.71 123.46 C75.24 123.15, 75.78 122.84, 76.68 122.33 M76.68 122.33 C77.18 122, 77.69 121.68, 78.58 121.11 M76.68 122.33 C77.06 122.08, 77.44 121.84, 78.58 121.11 M78.58 121.11 C79.22 120.65, 79.85 120.2, 80.43 119.8 M78.58 121.11 C79.23 120.65, 79.87 120.19, 80.43 119.8 M80.43 119.8 C81.1 119.27, 81.77 118.74, 82.2 118.4 M80.43 119.8 C81.13 119.24, 81.83 118.69, 82.2 118.4 M82.2 118.4 C82.65 118.01, 83.09 117.63, 83.91 116.92 M82.2 118.4 C82.66 118.01, 83.11 117.62, 83.91 116.92 M83.91 116.92 C84.52 116.34, 85.13 115.76, 85.54 115.37 M83.91 116.92 C84.3 116.55, 84.7 116.17, 85.54 115.37 M85.54 115.37 C85.97 114.91, 86.41 114.46, 87.1 113.73 M85.54 115.37 C86.02 114.87, 86.5 114.36, 87.1 113.73 M87.1 113.73 C87.65 113.09, 88.21 112.45, 88.57 112.03 M87.1 113.73 C87.47 113.3, 87.85 112.87, 88.57 112.03 M88.57 112.03 C89.12 111.33, 89.67 110.63, 89.97 110.25 M88.57 112.03 C88.88 111.64, 89.19 111.25, 89.97 110.25 M89.97 110.25 C90.3 109.79, 90.62 109.33, 91.28 108.41 M89.97 110.25 C90.24 109.87, 90.51 109.49, 91.28 108.41 M91.28 108.41 C91.69 107.77, 92.1 107.12, 92.5 106.5 M91.28 108.41 C91.54 108.01, 91.8 107.6, 92.5 106.5 M92.5 106.5 C92.95 105.73, 93.39 104.95, 93.63 104.53 M92.5 106.5 C92.89 105.83, 93.28 105.15, 93.63 104.53 M93.63 104.53 C94.03 103.77, 94.42 103, 94.67 102.51 M93.63 104.53 C94 103.82, 94.37 103.1, 94.67 102.51 M94.67 102.51 C95 101.78, 95.32 101.06, 95.61 100.42 M94.67 102.51 C95.01 101.75, 95.35 100.99, 95.61 100.42 M95.61 100.42 C95.88 99.73, 96.16 99.04, 96.45 98.29 M95.61 100.42 C95.93 99.61, 96.25 98.79, 96.45 98.29 M96.45 98.29 C96.74 97.45, 97.02 96.61, 97.19 96.1 M96.45 98.29 C96.63 97.77, 96.8 97.26, 97.19 96.1 M97.19 96.1 C97.39 95.39, 97.6 94.68, 97.82 93.87 M97.19 96.1 C97.37 95.45, 97.56 94.81, 97.82 93.87 M97.82 93.87 C97.99 93.14, 98.16 92.42, 98.35 91.59 M97.82 93.87 C98.02 93, 98.23 92.13, 98.35 91.59 M98.35 91.59 C98.45 91.03, 98.55 90.46, 98.76 89.28 M98.35 91.59 C98.49 90.81, 98.63 90.03, 98.76 89.28 M98.76 89.28 C98.85 88.56, 98.94 87.85, 99.06 86.92 M98.76 89.28 C98.85 88.57, 98.94 87.87, 99.06 86.92 M99.06 86.92 C99.12 86.16, 99.18 85.39, 99.24 84.53 M99.06 86.92 C99.1 86.33, 99.15 85.74, 99.24 84.53 M99.24 84.53 C99.25 83.99, 99.27 83.45, 99.3 82.11 M99.24 84.53 C99.26 83.72, 99.28 82.91, 99.3 82.11 M99.3 82.11 C99.28 81.38, 99.27 80.64, 99.24 79.69 M99.3 82.11 C99.29 81.62, 99.28 81.13, 99.24 79.69 M99.24 79.69 C99.19 78.96, 99.13 78.23, 99.06 77.3 M99.24 79.69 C99.19 78.96, 99.13 78.23, 99.06 77.3 M99.06 77.3 C98.97 76.62, 98.89 75.95, 98.76 74.95 M99.06 77.3 C98.99 76.72, 98.91 76.14, 98.76 74.95 M98.76 74.95 C98.63 74.23, 98.5 73.5, 98.35 72.63 M98.76 74.95 C98.64 74.27, 98.52 73.6, 98.35 72.63 M98.35 72.63 C98.19 71.94, 98.03 71.24, 97.82 70.35 M98.35 72.63 C98.19 71.96, 98.04 71.3, 97.82 70.35 M97.82 70.35 C97.61 69.59, 97.39 68.82, 97.19 68.12 M97.82 70.35 C97.68 69.85, 97.54 69.34, 97.19 68.12 M97.19 68.12 C96.95 67.41, 96.71 66.7, 96.45 65.94 M97.19 68.12 C96.96 67.45, 96.73 66.77, 96.45 65.94 M96.45 65.94 C96.25 65.42, 96.05 64.91, 95.61 63.8 M96.45 65.94 C96.18 65.25, 95.91 64.57, 95.61 63.8 M95.61 63.8 C95.37 63.27, 95.13 62.75, 94.67 61.72 M95.61 63.8 C95.3 63.11, 94.99 62.42, 94.67 61.72 M94.67 61.72 C94.28 60.96, 93.89 60.2, 93.63 59.69 M94.67 61.72 C94.43 61.25, 94.19 60.78, 93.63 59.69 M93.63 59.69 C93.25 59.03, 92.87 58.37, 92.5 57.72 M93.63 59.69 C93.35 59.19, 93.06 58.69, 92.5 57.72 M92.5 57.72 C92.18 57.22, 91.86 56.72, 91.28 55.82 M92.5 57.72 C92.14 57.17, 91.79 56.61, 91.28 55.82 M91.28 55.82 C90.81 55.16, 90.35 54.51, 89.97 53.97 M91.28 55.82 C90.97 55.38, 90.66 54.94, 89.97 53.97 M89.97 53.97 C89.47 53.34, 88.98 52.71, 88.57 52.2 M89.97 53.97 C89.56 53.46, 89.16 52.94, 88.57 52.2 M88.57 52.2 C88.24 51.81, 87.9 51.42, 87.1 50.49 M88.57 52.2 C88.13 51.68, 87.69 51.17, 87.1 50.49 M87.1 50.49 C86.73 50.11, 86.36 49.72, 85.54 48.86 M87.1 50.49 C86.66 50.04, 86.23 49.58, 85.54 48.86 M85.54 48.86 C85.19 48.53, 84.85 48.2, 83.91 47.3 M85.54 48.86 C85 48.34, 84.46 47.83, 83.91 47.3 M83.91 47.3 C83.51 46.96, 83.11 46.61, 82.2 45.82 M83.91 47.3 C83.27 46.75, 82.64 46.2, 82.2 45.82 M82.2 45.82 C81.67 45.4, 81.13 44.98, 80.43 44.43 M82.2 45.82 C81.72 45.45, 81.24 45.07, 80.43 44.43 M80.43 44.43 C80.04 44.15, 79.64 43.87, 78.58 43.12 M80.43 44.43 C79.78 43.97, 79.14 43.51, 78.58 43.12 M78.58 43.12 C78.14 42.84, 77.7 42.56, 76.68 41.9 M78.58 43.12 C77.95 42.71, 77.32 42.31, 76.68 41.9 M76.68 41.9 C75.95 41.48, 75.22 41.06, 74.71 40.77 M76.68 41.9 C76.18 41.61, 75.69 41.33, 74.71 40.77 M74.71 40.77 C74.17 40.49, 73.63 40.21, 72.68 39.73 M74.71 40.77 C73.93 40.37, 73.15 39.97, 72.68 39.73 M72.68 39.73 C72.16 39.5, 71.65 39.26, 70.6 38.79 M72.68 39.73 C71.9 39.37, 71.11 39.02, 70.6 38.79 M70.6 38.79 C70.14 38.61, 69.67 38.42, 68.46 37.95 M70.6 38.79 C69.82 38.48, 69.05 38.18, 68.46 37.95 M68.46 37.95 C67.77 37.71, 67.07 37.48, 66.28 37.21 M68.46 37.95 C67.82 37.73, 67.18 37.51, 66.28 37.21 M66.28 37.21 C65.78 37.07, 65.28 36.92, 64.04 36.57 M66.28 37.21 C65.69 37.04, 65.11 36.88, 64.04 36.57 M64.04 36.57 C63.14 36.37, 62.24 36.16, 61.77 36.05 M64.04 36.57 C63.53 36.46, 63.01 36.34, 61.77 36.05 M61.77 36.05 C60.91 35.9, 60.05 35.74, 59.45 35.64 M61.77 36.05 C60.98 35.91, 60.19 35.77, 59.45 35.64 M59.45 35.64 C58.91 35.57, 58.36 35.5, 57.1 35.34 M59.45 35.64 C58.82 35.56, 58.18 35.48, 57.1 35.34 M57.1 35.34 C56.43 35.29, 55.76 35.24, 54.71 35.16 M57.1 35.34 C56.33 35.28, 55.55 35.22, 54.71 35.16 M54.71 35.16 C53.95 35.14, 53.19 35.12, 52.29 35.1 M54.71 35.16 C53.8 35.13, 52.9 35.11, 52.29 35.1 M52.29 35.1 C52.29 35.1, 52.29 35.1, 52.29 35.1 M52.29 35.1 C52.29 35.1, 52.29 35.1, 52.29 35.1 M52.29 35.1 C51.73 35.1, 51.17 35.1, 50.19 35.1 M52.29 35.1 C51.55 35.1, 50.8 35.1, 50.19 35.1 M50.19 35.1 C50.19 35.1, 50.19 35.1, 50.19 35.1 M50.19 35.1 C50.19 35.1, 50.19 35.1, 50.19 35.1 M50.19 35.1 C49.8 34.14, 49.41 33.19, 48.66 31.33 M50.19 35.1 C49.75 34.02, 49.31 32.94, 48.66 31.33 M48.66 31.33 C48.27 30.55, 47.88 29.78, 46.85 27.71 M48.66 31.33 C48.24 30.51, 47.83 29.68, 46.85 27.71 M46.85 27.71 C46.07 26.42, 45.3 25.12, 44.78 24.26 M46.85 27.71 C46.2 26.64, 45.56 25.56, 44.78 24.26 M44.78 24.26 C44.08 23.26, 43.37 22.27, 42.46 20.98 M44.78 24.26 C44.13 23.34, 43.49 22.43, 42.46 20.98 M42.46 20.98 C41.77 20.15, 41.08 19.31, 39.91 17.89 M42.46 20.98 C41.86 20.26, 41.27 19.53, 39.91 17.89 M39.91 17.89 C39.04 16.99, 38.18 16.09, 37.13 15 M39.91 17.89 C38.87 16.8, 37.82 15.72, 37.13 15 M37.13 15 C36.2 14.16, 35.26 13.32, 34.15 12.32 M37.13 15 C36.19 14.15, 35.24 13.3, 34.15 12.32 M34.15 12.32 C33.25 11.63, 32.35 10.94, 30.96 9.87 M34.15 12.32 C33.47 11.8, 32.79 11.27, 30.96 9.87 M30.96 9.87 C30.23 9.39, 29.49 8.91, 27.6 7.67 M30.96 9.87 C29.99 9.24, 29.02 8.6, 27.6 7.67 M27.6 7.67 C26.19 6.89, 24.79 6.11, 24.06 5.71 M27.6 7.67 C26.35 6.97, 25.1 6.28, 24.06 5.71 M24.06 5.71 C23.19 5.31, 22.31 4.91, 20.37 4.02 M24.06 5.71 C22.81 5.14, 21.56 4.56, 20.37 4.02 M20.37 4.02 C18.92 3.49, 17.47 2.95, 16.53 2.61 M20.37 4.02 C19.55 3.72, 18.72 3.41, 16.53 2.61 M16.53 2.61 C15.12 2.21, 13.71 1.81, 12.56 1.49 M16.53 2.61 C15.27 2.25, 14 1.89, 12.56 1.49 M12.56 1.49 C11.43 1.26, 10.29 1.03, 8.48 0.67 M12.56 1.49 C11.41 1.26, 10.26 1.03, 8.48 0.67 M8.48 0.67 C7.22 0.52, 5.97 0.37, 4.28 0.17 M8.48 0.67 C7.02 0.5, 5.57 0.32, 4.28 0.17 M4.28 0.17 C3.02 0.12, 1.76 0.07, 0 0 M4.28 0.17 C3 0.12, 1.71 0.07, 0 0 M0 0 C0 0, 0 0, 0 0 M0 0 C0 0, 0 0, 0 0 M0 0 C0 0, 0 0, 0 0 M0 0 C0 0, 0 0, 0 0" stroke="#000000" stroke-width="0.5" fill="none"></path></g></g><mask></mask><g stroke-linecap="round"><g transform="translate(683.5834961670655 100.09352049048198) rotate(0 -24.01662075150881 14.177835580340371)" fill-rule="evenodd"><path d="M0 0 L-21.33 -21.33 L-21.33 -21.33 L-22.01 -21.89 L-22.75 -22.28 L-23.54 -22.52 L-24.35 -22.6 L-25.16 -22.52 L-25.95 -22.28 L-26.7 -21.89 L-27.37 -21.33 L-47.99 -0.72 L-47.99 -0.72 L-48.54 -0.04 L-48.94 0.7 L-49.18 1.49 L-49.25 2.3 L-49.18 3.11 L-48.94 3.9 L-48.54 4.65 L-47.99 5.32 L-47.31 5.87 L-46.57 6.27 L-45.78 6.51 L-44.97 6.59 L-44.16 6.51 L-43.37 6.27 L-42.63 5.87 L-41.95 5.32 L-28.6 -8.03 L-28.6 46.71 L-28.6 46.71 L-28.51 47.57 L-28.27 48.37 L-27.88 49.09 L-27.36 49.72 L-26.73 50.23 L-26.01 50.62 L-25.21 50.87 L-24.35 50.96 L-23.49 50.87 L-22.7 50.62 L-21.97 50.23 L-21.35 49.72 L-20.83 49.09 L-20.44 48.37 L-20.19 47.57 L-20.11 46.71 L-20.11 -8.03 L-6.09 5.99 L-6.09 5.99 L-5.42 6.52 L-4.67 6.91 L-3.88 7.14 L-3.07 7.21 L-2.26 7.14 L-1.46 6.91 L-0.72 6.52 L-0.05 5.99 L0.5 5.33 L0.9 4.59 L1.14 3.8 L1.22 2.99 L1.15 2.18 L0.92 1.4 L0.54 0.66 L0 0 L0 0" stroke="none" stroke-width="0" fill="#FFFFFF" fill-rule="evenodd"></path><path d="M0 0 C-6.67 -6.67, -13.33 -13.33, -21.33 -21.33 M0 0 C-7.28 -7.28, -14.56 -14.56, -21.33 -21.33 M-21.33 -21.33 C-21.33 -21.33, -21.33 -21.33, -21.33 -21.33 M-21.33 -21.33 C-21.33 -21.33, -21.33 -21.33, -21.33 -21.33 M-21.33 -21.33 C-21.55 -21.51, -21.76 -21.68, -22.01 -21.89 M-21.33 -21.33 C-21.59 -21.55, -21.85 -21.76, -22.01 -21.89 M-22.01 -21.89 C-22.27 -22.03, -22.52 -22.16, -22.75 -22.28 M-22.01 -21.89 C-22.28 -22.03, -22.55 -22.17, -22.75 -22.28 M-22.75 -22.28 C-23.03 -22.37, -23.3 -22.45, -23.54 -22.52 M-22.75 -22.28 C-23.01 -22.36, -23.27 -22.44, -23.54 -22.52 M-23.54 -22.52 C-23.82 -22.55, -24.09 -22.57, -24.35 -22.6 M-23.54 -22.52 C-23.79 -22.54, -24.03 -22.57, -24.35 -22.6 M-24.35 -22.6 C-24.65 -22.57, -24.96 -22.54, -25.16 -22.52 M-24.35 -22.6 C-24.64 -22.57, -24.92 -22.54, -25.16 -22.52 M-25.16 -22.52 C-25.47 -22.43, -25.78 -22.34, -25.95 -22.28 M-25.16 -22.52 C-25.4 -22.45, -25.64 -22.38, -25.95 -22.28 M-25.95 -22.28 C-26.18 -22.16, -26.4 -22.04, -26.7 -21.89 M-25.95 -22.28 C-26.17 -22.17, -26.38 -22.06, -26.7 -21.89 M-26.7 -21.89 C-26.88 -21.74, -27.06 -21.59, -27.37 -21.33 M-26.7 -21.89 C-26.85 -21.76, -27.01 -21.63, -27.37 -21.33 M-27.37 -21.33 C-35.2 -13.51, -43.02 -5.68, -47.99 -0.72 M-27.37 -21.33 C-32.08 -16.63, -36.78 -11.92, -47.99 -0.72 M-47.99 -0.72 C-47.99 -0.72, -47.99 -0.72, -47.99 -0.72 M-47.99 -0.72 C-47.99 -0.72, -47.99 -0.72, -47.99 -0.72 M-47.99 -0.72 C-48.2 -0.46, -48.42 -0.2, -48.54 -0.04 M-47.99 -0.72 C-48.18 -0.49, -48.36 -0.26, -48.54 -0.04 M-48.54 -0.04 C-48.67 0.2, -48.8 0.44, -48.94 0.7 M-48.54 -0.04 C-48.64 0.14, -48.74 0.32, -48.94 0.7 M-48.94 0.7 C-49 0.89, -49.05 1.08, -49.18 1.49 M-48.94 0.7 C-48.99 0.89, -49.05 1.07, -49.18 1.49 M-49.18 1.49 C-49.2 1.76, -49.23 2.04, -49.25 2.3 M-49.18 1.49 C-49.2 1.79, -49.23 2.09, -49.25 2.3 M-49.25 2.3 C-49.24 2.47, -49.22 2.63, -49.18 3.11 M-49.25 2.3 C-49.24 2.47, -49.22 2.63, -49.18 3.11 M-49.18 3.11 C-49.11 3.32, -49.05 3.52, -48.94 3.9 M-49.18 3.11 C-49.1 3.35, -49.03 3.59, -48.94 3.9 M-48.94 3.9 C-48.83 4.1, -48.73 4.29, -48.54 4.65 M-48.94 3.9 C-48.79 4.19, -48.63 4.48, -48.54 4.65 M-48.54 4.65 C-48.35 4.88, -48.15 5.12, -47.99 5.32 M-48.54 4.65 C-48.42 4.8, -48.29 4.95, -47.99 5.32 M-47.99 5.32 C-47.75 5.52, -47.51 5.71, -47.31 5.87 M-47.99 5.32 C-47.72 5.54, -47.45 5.76, -47.31 5.87 M-47.31 5.87 C-47.15 5.96, -46.98 6.05, -46.57 6.27 M-47.31 5.87 C-47.03 6.03, -46.75 6.18, -46.57 6.27 M-46.57 6.27 C-46.3 6.35, -46.03 6.43, -45.78 6.51 M-46.57 6.27 C-46.33 6.34, -46.08 6.42, -45.78 6.51 M-45.78 6.51 C-45.62 6.52, -45.45 6.54, -44.97 6.59 M-45.78 6.51 C-45.56 6.53, -45.35 6.55, -44.97 6.59 M-44.97 6.59 C-44.77 6.57, -44.57 6.55, -44.16 6.51 M-44.97 6.59 C-44.77 6.57, -44.57 6.55, -44.16 6.51 M-44.16 6.51 C-43.87 6.42, -43.57 6.33, -43.37 6.27 M-44.16 6.51 C-43.96 6.45, -43.76 6.39, -43.37 6.27 M-43.37 6.27 C-43.07 6.11, -42.78 5.96, -42.63 5.87 M-43.37 6.27 C-43.21 6.18, -43.05 6.1, -42.63 5.87 M-42.63 5.87 C-42.4 5.69, -42.17 5.5, -41.95 5.32 M-42.63 5.87 C-42.38 5.68, -42.14 5.48, -41.95 5.32 M-41.95 5.32 C-38.16 1.53, -34.37 -2.26, -28.6 -8.03 M-41.95 5.32 C-38.3 1.67, -34.64 -1.99, -28.6 -8.03 M-28.6 -8.03 C-28.6 6.23, -28.6 20.49, -28.6 46.71 M-28.6 -8.03 C-28.6 7.32, -28.6 22.68, -28.6 46.71 M-28.6 46.71 C-28.6 46.71, -28.6 46.71, -28.6 46.71 M-28.6 46.71 C-28.6 46.71, -28.6 46.71, -28.6 46.71 M-28.6 46.71 C-28.58 46.9, -28.56 47.09, -28.51 47.57 M-28.6 46.71 C-28.57 47.03, -28.54 47.34, -28.51 47.57 M-28.51 47.57 C-28.45 47.79, -28.38 48, -28.27 48.37 M-28.51 47.57 C-28.42 47.88, -28.32 48.19, -28.27 48.37 M-28.27 48.37 C-28.17 48.54, -28.07 48.72, -27.88 49.09 M-28.27 48.37 C-28.17 48.54, -28.08 48.71, -27.88 49.09 M-27.88 49.09 C-27.76 49.23, -27.64 49.37, -27.36 49.72 M-27.88 49.09 C-27.73 49.27, -27.58 49.45, -27.36 49.72 M-27.36 49.72 C-27.17 49.87, -26.98 50.02, -26.73 50.23 M-27.36 49.72 C-27.13 49.91, -26.89 50.1, -26.73 50.23 M-26.73 50.23 C-26.57 50.32, -26.42 50.4, -26.01 50.62 M-26.73 50.23 C-26.49 50.36, -26.26 50.49, -26.01 50.62 M-26.01 50.62 C-25.78 50.69, -25.56 50.76, -25.21 50.87 M-26.01 50.62 C-25.77 50.7, -25.53 50.77, -25.21 50.87 M-25.21 50.87 C-25.03 50.89, -24.85 50.91, -24.35 50.96 M-25.21 50.87 C-24.97 50.89, -24.72 50.92, -24.35 50.96 M-24.35 50.96 C-24.15 50.94, -23.96 50.92, -23.49 50.87 M-24.35 50.96 C-24.15 50.94, -23.95 50.92, -23.49 50.87 M-23.49 50.87 C-23.24 50.79, -22.98 50.71, -22.7 50.62 M-23.49 50.87 C-23.18 50.77, -22.86 50.68, -22.7 50.62 M-22.7 50.62 C-22.46 50.5, -22.23 50.37, -21.97 50.23 M-22.7 50.62 C-22.53 50.53, -22.36 50.44, -21.97 50.23 M-21.97 50.23 C-21.73 50.03, -21.49 49.83, -21.35 49.72 M-21.97 50.23 C-21.75 50.05, -21.53 49.87, -21.35 49.72 M-21.35 49.72 C-21.21 49.55, -21.07 49.38, -20.83 49.09 M-21.35 49.72 C-21.23 49.57, -21.11 49.43, -20.83 49.09 M-20.83 49.09 C-20.68 48.81, -20.52 48.52, -20.44 48.37 M-20.83 49.09 C-20.7 48.86, -20.58 48.63, -20.44 48.37 M-20.44 48.37 C-20.36 48.11, -20.28 47.85, -20.19 47.57 M-20.44 48.37 C-20.39 48.2, -20.34 48.04, -20.19 47.57 M-20.19 47.57 C-20.17 47.35, -20.15 47.14, -20.11 46.71 M-20.19 47.57 C-20.17 47.3, -20.14 47.03, -20.11 46.71 M-20.11 46.71 C-20.11 32.03, -20.11 17.35, -20.11 -8.03 M-20.11 46.71 C-20.11 34.56, -20.11 22.4, -20.11 -8.03 M-20.11 -8.03 C-16.91 -4.84, -13.71 -1.64, -6.09 5.99 M-20.11 -8.03 C-17.07 -4.99, -14.03 -1.96, -6.09 5.99 M-6.09 5.99 C-6.09 5.99, -6.09 5.99, -6.09 5.99 M-6.09 5.99 C-6.09 5.99, -6.09 5.99, -6.09 5.99 M-6.09 5.99 C-5.88 6.15, -5.67 6.32, -5.42 6.52 M-6.09 5.99 C-5.83 6.19, -5.58 6.39, -5.42 6.52 M-5.42 6.52 C-5.21 6.63, -5 6.74, -4.67 6.91 M-5.42 6.52 C-5.21 6.63, -4.99 6.74, -4.67 6.91 M-4.67 6.91 C-4.48 6.96, -4.29 7.02, -3.88 7.14 M-4.67 6.91 C-4.51 6.96, -4.34 7, -3.88 7.14 M-3.88 7.14 C-3.7 7.15, -3.53 7.17, -3.07 7.21 M-3.88 7.14 C-3.59 7.16, -3.3 7.19, -3.07 7.21 M-3.07 7.21 C-2.85 7.19, -2.62 7.17, -2.26 7.14 M-3.07 7.21 C-2.76 7.18, -2.45 7.16, -2.26 7.14 M-2.26 7.14 C-1.96 7.05, -1.67 6.97, -1.46 6.91 M-2.26 7.14 C-2.02 7.07, -1.78 7, -1.46 6.91 M-1.46 6.91 C-1.29 6.82, -1.12 6.73, -0.72 6.52 M-1.46 6.91 C-1.3 6.82, -1.13 6.74, -0.72 6.52 M-0.72 6.52 C-0.57 6.4, -0.42 6.28, -0.05 5.99 M-0.72 6.52 C-0.53 6.37, -0.35 6.23, -0.05 5.99 M-0.05 5.99 C0.09 5.82, 0.22 5.66, 0.5 5.33 M-0.05 5.99 C0.13 5.77, 0.32 5.55, 0.5 5.33 M0.5 5.33 C0.66 5.04, 0.81 4.76, 0.9 4.59 M0.5 5.33 C0.63 5.09, 0.76 4.85, 0.9 4.59 M0.9 4.59 C0.95 4.43, 1 4.27, 1.14 3.8 M0.9 4.59 C0.99 4.3, 1.08 4.01, 1.14 3.8 M1.14 3.8 C1.16 3.63, 1.17 3.47, 1.22 2.99 M1.14 3.8 C1.17 3.54, 1.19 3.29, 1.22 2.99 M1.22 2.99 C1.2 2.73, 1.17 2.46, 1.15 2.18 M1.22 2.99 C1.2 2.79, 1.18 2.58, 1.15 2.18 M1.15 2.18 C1.06 1.88, 0.97 1.58, 0.92 1.4 M1.15 2.18 C1.1 2, 1.05 1.83, 0.92 1.4 M0.92 1.4 C0.78 1.13, 0.64 0.86, 0.54 0.66 M0.92 1.4 C0.78 1.12, 0.63 0.85, 0.54 0.66 M0.54 0.66 C0.36 0.44, 0.19 0.23, 0 0 M0.54 0.66 C0.4 0.49, 0.26 0.32, 0 0 M0 0 C0 0, 0 0, 0 0 M0 0 C0 0, 0 0, 0 0 M0 0 C0 0, 0 0, 0 0 M0 0 C0 0, 0 0, 0 0" stroke="#000000" stroke-width="0.5" fill="none"></path></g></g><mask></mask><g stroke-linecap="round"><g transform="translate(662.8123653392573 163.53245653602335) rotate(0 23.997444176506917 -14.177839483571631)" fill-rule="evenodd"><path d="M0 0 L21.33 21.33 L21.33 21.33 L22.01 21.89 L22.75 22.28 L23.54 22.52 L24.35 22.6 L25.16 22.52 L25.95 22.28 L26.7 21.89 L27.37 21.33 L47.99 0.72 L47.99 0.72 L48.54 0.04 L48.94 -0.7 L49.18 -1.49 L49.25 -2.3 L49.18 -3.11 L48.94 -3.9 L48.54 -4.65 L47.99 -5.32 L47.31 -5.87 L46.57 -6.27 L45.78 -6.51 L44.97 -6.59 L44.16 -6.51 L43.37 -6.27 L42.63 -5.87 L41.95 -5.32 L28.6 8.03 L28.6 -46.71 L28.6 -46.71 L28.51 -47.57 L28.27 -48.37 L27.88 -49.09 L27.36 -49.72 L26.73 -50.23 L26.01 -50.62 L25.21 -50.87 L24.35 -50.96 L23.49 -50.87 L22.7 -50.62 L21.97 -50.23 L21.35 -49.72 L20.83 -49.09 L20.44 -48.37 L20.19 -47.57 L20.11 -46.71 L20.11 8.03 L6.09 -5.99 L6.09 -5.99 L5.42 -6.52 L4.67 -6.91 L3.88 -7.14 L3.07 -7.21 L2.26 -7.14 L1.46 -6.91 L0.72 -6.52 L0.05 -5.99 L-0.52 -5.33 L-0.93 -4.6 L-1.17 -3.82 L-1.26 -3.01 L-1.18 -2.2 L-0.95 -1.42 L-0.55 -0.67 L0 0 L0 0" stroke="none" stroke-width="0" fill="#4285F4" fill-rule="evenodd"></path><path d="M0 0 C5.02 5.02, 10.03 10.03, 21.33 21.33 M0 0 C8.45 8.45, 16.9 16.9, 21.33 21.33 M21.33 21.33 C21.33 21.33, 21.33 21.33, 21.33 21.33 M21.33 21.33 C21.33 21.33, 21.33 21.33, 21.33 21.33 M21.33 21.33 C21.54 21.5, 21.74 21.67, 22.01 21.89 M21.33 21.33 C21.52 21.49, 21.71 21.65, 22.01 21.89 M22.01 21.89 C22.16 21.97, 22.32 22.05, 22.75 22.28 M22.01 21.89 C22.26 22.02, 22.51 22.15, 22.75 22.28 M22.75 22.28 C22.98 22.35, 23.21 22.42, 23.54 22.52 M22.75 22.28 C22.93 22.34, 23.1 22.39, 23.54 22.52 M23.54 22.52 C23.7 22.54, 23.87 22.55, 24.35 22.6 M23.54 22.52 C23.83 22.55, 24.13 22.58, 24.35 22.6 M24.35 22.6 C24.64 22.57, 24.92 22.54, 25.16 22.52 M24.35 22.6 C24.6 22.58, 24.84 22.55, 25.16 22.52 M25.16 22.52 C25.45 22.43, 25.75 22.35, 25.95 22.28 M25.16 22.52 C25.34 22.47, 25.52 22.41, 25.95 22.28 M25.95 22.28 C26.23 22.14, 26.51 21.99, 26.7 21.89 M25.95 22.28 C26.16 22.17, 26.37 22.06, 26.7 21.89 M26.7 21.89 C26.88 21.74, 27.06 21.59, 27.37 21.33 M26.7 21.89 C26.9 21.72, 27.11 21.55, 27.37 21.33 M27.37 21.33 C35.32 13.39, 43.26 5.44, 47.99 0.72 M27.37 21.33 C34.9 13.81, 42.42 6.28, 47.99 0.72 M47.99 0.72 C47.99 0.72, 47.99 0.72, 47.99 0.72 M47.99 0.72 C47.99 0.72, 47.99 0.72, 47.99 0.72 M47.99 0.72 C48.18 0.48, 48.37 0.25, 48.54 0.04 M47.99 0.72 C48.12 0.55, 48.25 0.39, 48.54 0.04 M48.54 0.04 C48.69 -0.24, 48.84 -0.52, 48.94 -0.7 M48.54 0.04 C48.69 -0.24, 48.84 -0.52, 48.94 -0.7 M48.94 -0.7 C49.02 -0.98, 49.11 -1.26, 49.18 -1.49 M48.94 -0.7 C49 -0.89, 49.05 -1.08, 49.18 -1.49 M49.18 -1.49 C49.21 -1.8, 49.24 -2.12, 49.25 -2.3 M49.18 -1.49 C49.2 -1.69, 49.21 -1.89, 49.25 -2.3 M49.25 -2.3 C49.23 -2.51, 49.21 -2.72, 49.18 -3.11 M49.25 -2.3 C49.23 -2.61, 49.2 -2.91, 49.18 -3.11 M49.18 -3.11 C49.1 -3.37, 49.02 -3.64, 48.94 -3.9 M49.18 -3.11 C49.11 -3.35, 49.04 -3.58, 48.94 -3.9 M48.94 -3.9 C48.85 -4.07, 48.76 -4.23, 48.54 -4.65 M48.94 -3.9 C48.82 -4.13, 48.7 -4.35, 48.54 -4.65 M48.54 -4.65 C48.4 -4.82, 48.26 -4.99, 47.99 -5.32 M48.54 -4.65 C48.42 -4.79, 48.3 -4.94, 47.99 -5.32 M47.99 -5.32 C47.74 -5.52, 47.5 -5.72, 47.31 -5.87 M47.99 -5.32 C47.75 -5.52, 47.51 -5.71, 47.31 -5.87 M47.31 -5.87 C47.06 -6.01, 46.81 -6.14, 46.57 -6.27 M47.31 -5.87 C47.03 -6.03, 46.75 -6.18, 46.57 -6.27 M46.57 -6.27 C46.31 -6.35, 46.05 -6.43, 45.78 -6.51 M46.57 -6.27 C46.32 -6.35, 46.07 -6.42, 45.78 -6.51 M45.78 -6.51 C45.54 -6.53, 45.29 -6.56, 44.97 -6.59 M45.78 -6.51 C45.46 -6.54, 45.13 -6.57, 44.97 -6.59 M44.97 -6.59 C44.71 -6.56, 44.46 -6.54, 44.16 -6.51 M44.97 -6.59 C44.77 -6.57, 44.57 -6.55, 44.16 -6.51 M44.16 -6.51 C44 -6.46, 43.84 -6.41, 43.37 -6.27 M44.16 -6.51 C43.88 -6.42, 43.6 -6.34, 43.37 -6.27 M43.37 -6.27 C43.19 -6.17, 43.01 -6.08, 42.63 -5.87 M43.37 -6.27 C43.18 -6.17, 42.99 -6.07, 42.63 -5.87 M42.63 -5.87 C42.47 -5.74, 42.31 -5.61, 41.95 -5.32 M42.63 -5.87 C42.36 -5.65, 42.09 -5.43, 41.95 -5.32 M41.95 -5.32 C36.95 -0.32, 31.95 4.68, 28.6 8.03 M41.95 -5.32 C37.67 -1.04, 33.39 3.24, 28.6 8.03 M28.6 8.03 C28.6 -9.99, 28.6 -28.01, 28.6 -46.71 M28.6 8.03 C28.6 -10.46, 28.6 -28.95, 28.6 -46.71 M28.6 -46.71 C28.6 -46.71, 28.6 -46.71, 28.6 -46.71 M28.6 -46.71 C28.6 -46.71, 28.6 -46.71, 28.6 -46.71 M28.6 -46.71 C28.57 -47.01, 28.54 -47.32, 28.51 -47.57 M28.6 -46.71 C28.58 -46.92, 28.56 -47.13, 28.51 -47.57 M28.51 -47.57 C28.42 -47.88, 28.32 -48.19, 28.27 -48.37 M28.51 -47.57 C28.45 -47.77, 28.39 -47.97, 28.27 -48.37 M28.27 -48.37 C28.14 -48.6, 28.02 -48.83, 27.88 -49.09 M28.27 -48.37 C28.17 -48.55, 28.07 -48.72, 27.88 -49.09 M27.88 -49.09 C27.72 -49.27, 27.57 -49.45, 27.36 -49.72 M27.88 -49.09 C27.68 -49.33, 27.48 -49.57, 27.36 -49.72 M27.36 -49.72 C27.13 -49.91, 26.89 -50.1, 26.73 -50.23 M27.36 -49.72 C27.14 -49.9, 26.92 -50.08, 26.73 -50.23 M26.73 -50.23 C26.57 -50.32, 26.41 -50.41, 26.01 -50.62 M26.73 -50.23 C26.51 -50.35, 26.28 -50.47, 26.01 -50.62 M26.01 -50.62 C25.7 -50.72, 25.4 -50.81, 25.21 -50.87 M26.01 -50.62 C25.84 -50.67, 25.68 -50.73, 25.21 -50.87 M25.21 -50.87 C24.92 -50.9, 24.63 -50.93, 24.35 -50.96 M25.21 -50.87 C24.94 -50.9, 24.67 -50.92, 24.35 -50.96 M24.35 -50.96 C24.02 -50.92, 23.7 -50.89, 23.49 -50.87 M24.35 -50.96 C24.06 -50.93, 23.76 -50.9, 23.49 -50.87 M23.49 -50.87 C23.24 -50.79, 22.98 -50.71, 22.7 -50.62 M23.49 -50.87 C23.21 -50.78, 22.92 -50.69, 22.7 -50.62 M22.7 -50.62 C22.46 -50.5, 22.23 -50.37, 21.97 -50.23 M22.7 -50.62 C22.45 -50.49, 22.21 -50.36, 21.97 -50.23 M21.97 -50.23 C21.85 -50.13, 21.72 -50.02, 21.35 -49.72 M21.97 -50.23 C21.81 -50.1, 21.65 -49.97, 21.35 -49.72 M21.35 -49.72 C21.19 -49.53, 21.04 -49.34, 20.83 -49.09 M21.35 -49.72 C21.22 -49.57, 21.1 -49.42, 20.83 -49.09 M20.83 -49.09 C20.7 -48.84, 20.56 -48.59, 20.44 -48.37 M20.83 -49.09 C20.72 -48.89, 20.61 -48.69, 20.44 -48.37 M20.44 -48.37 C20.35 -48.09, 20.27 -47.82, 20.19 -47.57 M20.44 -48.37 C20.35 -48.08, 20.26 -47.8, 20.19 -47.57 M20.19 -47.57 C20.17 -47.36, 20.15 -47.15, 20.11 -46.71 M20.19 -47.57 C20.16 -47.25, 20.13 -46.93, 20.11 -46.71 M20.11 -46.71 C20.11 -34.59, 20.11 -22.47, 20.11 8.03 M20.11 -46.71 C20.11 -32.51, 20.11 -18.31, 20.11 8.03 M20.11 8.03 C15.31 3.23, 10.51 -1.56, 6.09 -5.99 M20.11 8.03 C15.46 3.38, 10.81 -1.27, 6.09 -5.99 M6.09 -5.99 C6.09 -5.99, 6.09 -5.99, 6.09 -5.99 M6.09 -5.99 C6.09 -5.99, 6.09 -5.99, 6.09 -5.99 M6.09 -5.99 C5.95 -6.1, 5.8 -6.22, 5.42 -6.52 M6.09 -5.99 C5.94 -6.11, 5.78 -6.23, 5.42 -6.52 M5.42 -6.52 C5.23 -6.62, 5.04 -6.72, 4.67 -6.91 M5.42 -6.52 C5.25 -6.61, 5.09 -6.7, 4.67 -6.91 M4.67 -6.91 C4.38 -6.99, 4.08 -7.08, 3.88 -7.14 M4.67 -6.91 C4.36 -7, 4.05 -7.09, 3.88 -7.14 M3.88 -7.14 C3.69 -7.16, 3.49 -7.17, 3.07 -7.21 M3.88 -7.14 C3.6 -7.16, 3.33 -7.19, 3.07 -7.21 M3.07 -7.21 C2.85 -7.19, 2.63 -7.17, 2.26 -7.14 M3.07 -7.21 C2.9 -7.2, 2.73 -7.18, 2.26 -7.14 M2.26 -7.14 C2.01 -7.07, 1.77 -6.99, 1.46 -6.91 M2.26 -7.14 C1.98 -7.05, 1.69 -6.97, 1.46 -6.91 M1.46 -6.91 C1.25 -6.79, 1.03 -6.68, 0.72 -6.52 M1.46 -6.91 C1.22 -6.78, 0.97 -6.65, 0.72 -6.52 M0.72 -6.52 C0.5 -6.35, 0.28 -6.17, 0.05 -5.99 M0.72 -6.52 C0.48 -6.33, 0.25 -6.15, 0.05 -5.99 M0.05 -5.99 C-0.16 -5.75, -0.36 -5.51, -0.52 -5.33 M0.05 -5.99 C-0.1 -5.81, -0.26 -5.63, -0.52 -5.33 M-0.52 -5.33 C-0.64 -5.12, -0.75 -4.91, -0.93 -4.6 M-0.52 -5.33 C-0.63 -5.13, -0.74 -4.93, -0.93 -4.6 M-0.93 -4.6 C-1.01 -4.32, -1.1 -4.05, -1.17 -3.82 M-0.93 -4.6 C-0.98 -4.43, -1.03 -4.27, -1.17 -3.82 M-1.17 -3.82 C-1.2 -3.57, -1.23 -3.31, -1.26 -3.01 M-1.17 -3.82 C-1.2 -3.55, -1.23 -3.28, -1.26 -3.01 M-1.26 -3.01 C-1.24 -2.81, -1.22 -2.6, -1.18 -2.2 M-1.26 -3.01 C-1.23 -2.7, -1.2 -2.38, -1.18 -2.2 M-1.18 -2.2 C-1.12 -1.98, -1.05 -1.76, -0.95 -1.42 M-1.18 -2.2 C-1.09 -1.89, -1 -1.58, -0.95 -1.42 M-0.95 -1.42 C-0.87 -1.26, -0.79 -1.11, -0.55 -0.67 M-0.95 -1.42 C-0.83 -1.19, -0.7 -0.95, -0.55 -0.67 M-0.55 -0.67 C-0.44 -0.54, -0.33 -0.4, 0 0 M-0.55 -0.67 C-0.44 -0.54, -0.33 -0.4, 0 0 M0 0 C0 0, 0 0, 0 0 M0 0 C0 0, 0 0, 0 0 M0 0 C0 0, 0 0, 0 0 M0 0 C0 0, 0 0, 0 0" stroke="#000000" stroke-width="0.5" fill="none"></path></g></g><mask></mask><g transform="translate(605.7119140625 195.38129136347465) rotate(0 59.1103515625 16.099999999999994)"><text x="0" y="23.660546874999998" font-family="Helvetica, Segoe UI Emoji" font-size="28px" fill="#1e1e1e" text-anchor="start" style="white-space: pre;" direction="ltr" dominant-baseline="alphabetic">ROUTER</text></g><g stroke-linecap="round"><g transform="translate(106.2833413055971 158.79379182683124) rotate(0 0.0000021776982066512574 39.2961915138369)" fill-rule="evenodd"><path d="M0 0 L32.48 0 L32.48 -32.48 L-24.36 -32.48 L-24.36 -32.48 L-30.1 -30.1 L-32.48 -24.36 L-32.48 105.55 L-32.48 105.55 L-30.2 111.07 L0 81.19 L0 0" stroke="none" stroke-width="0" fill="#aecbfa" fill-rule="evenodd"></path><path d="M0 0 C12.02 0, 24.04 0, 32.48 0 M0 0 C9.87 0, 19.74 0, 32.48 0 M32.48 0 C32.48 -9.67, 32.48 -19.33, 32.48 -32.48 M32.48 0 C32.48 -7.84, 32.48 -15.69, 32.48 -32.48 M32.48 -32.48 C20.68 -32.48, 8.89 -32.48, -24.36 -32.48 M32.48 -32.48 C12.43 -32.48, -7.63 -32.48, -24.36 -32.48 M-24.36 -32.48 C-24.36 -32.48, -24.36 -32.48, -24.36 -32.48 M-24.36 -32.48 C-24.36 -32.48, -24.36 -32.48, -24.36 -32.48 M-24.36 -32.48 C-26.06 -31.77, -27.77 -31.06, -30.1 -30.1 M-24.36 -32.48 C-26.6 -31.55, -28.84 -30.62, -30.1 -30.1 M-30.1 -30.1 C-30.85 -28.28, -31.6 -26.47, -32.48 -24.36 M-30.1 -30.1 C-30.88 -28.2, -31.67 -26.31, -32.48 -24.36 M-32.48 -24.36 C-32.48 7.76, -32.48 39.88, -32.48 105.55 M-32.48 -24.36 C-32.48 4.04, -32.48 32.44, -32.48 105.55 M-32.48 105.55 C-32.48 105.55, -32.48 105.55, -32.48 105.55 M-32.48 105.55 C-32.48 105.55, -32.48 105.55, -32.48 105.55 M-32.48 105.55 C-31.73 107.37, -30.98 109.19, -30.2 111.07 M-32.48 105.55 C-31.63 107.61, -30.78 109.68, -30.2 111.07 M-30.2 111.07 C-22.59 103.54, -14.98 96.01, 0 81.19 M-30.2 111.07 C-23.48 104.41, -16.75 97.76, 0 81.19 M0 81.19 C0 58.61, 0 36.03, 0 0 M0 81.19 C0 54.16, 0 27.12, 0 0 M0 0 C0 0, 0 0, 0 0 M0 0 C0 0, 0 0, 0 0" stroke="#000000" stroke-width="1" fill="none"></path></g></g><mask></mask><g stroke-linecap="round"><g transform="translate(187.473819951927 239.98426466596698) rotate(0 16.23809689070515 -1.1366655628383455)" fill-rule="evenodd"><path d="M0 0 L30.2 30.2 L30.2 30.2 L32.48 24.36 L32.48 -32.48 L0 -32.48 L0 0" stroke="none" stroke-width="0" fill="#4285f4" fill-rule="evenodd"></path><path d="M0 0 C10.88 10.88, 21.77 21.77, 30.2 30.2 M0 0 C7.53 7.53, 15.05 15.05, 30.2 30.2 M30.2 30.2 C30.2 30.2, 30.2 30.2, 30.2 30.2 M30.2 30.2 C30.2 30.2, 30.2 30.2, 30.2 30.2 M30.2 30.2 C30.73 28.84, 31.26 27.48, 32.48 24.36 M30.2 30.2 C30.95 28.29, 31.69 26.38, 32.48 24.36 M32.48 24.36 C32.48 6.6, 32.48 -11.16, 32.48 -32.48 M32.48 24.36 C32.48 7.98, 32.48 -8.4, 32.48 -32.48 M32.48 -32.48 C24.86 -32.48, 17.23 -32.48, 0 -32.48 M32.48 -32.48 C22.77 -32.48, 13.07 -32.48, 0 -32.48 M0 -32.48 C0 -22.59, 0 -12.7, 0 0 M0 -32.48 C0 -25.64, 0 -18.8, 0 0 M0 0 C0 0, 0 0, 0 0 M0 0 C0 0, 0 0, 0 0" stroke="#000000" stroke-width="1" fill="none"></path></g></g><mask></mask><g stroke-linecap="round"><g transform="translate(233.83357748662775 112.35283808758868) rotate(0 -13.883569560487558 31.33952531497428)" fill-rule="evenodd"><path d="M0 0 L-30.12 30.2 L-30.12 30.2 L-30.12 62.68 L2.35 62.68 L2.35 5.85 L2.35 5.85 L0 0 L0 0" stroke="none" stroke-width="0" fill="#669df6" fill-rule="evenodd"></path><path d="M0 0 C-9.18 9.21, -18.37 18.42, -30.12 30.2 M0 0 C-11.11 11.14, -22.22 22.28, -30.12 30.2 M-30.12 30.2 C-30.12 30.2, -30.12 30.2, -30.12 30.2 M-30.12 30.2 C-30.12 30.2, -30.12 30.2, -30.12 30.2 M-30.12 30.2 C-30.12 39.88, -30.12 49.55, -30.12 62.68 M-30.12 30.2 C-30.12 40.08, -30.12 49.96, -30.12 62.68 M-30.12 62.68 C-22.21 62.68, -14.29 62.68, 2.35 62.68 M-30.12 62.68 C-20.14 62.68, -10.17 62.68, 2.35 62.68 M2.35 62.68 C2.35 50.53, 2.35 38.37, 2.35 5.85 M2.35 62.68 C2.35 47.14, 2.35 31.61, 2.35 5.85 M2.35 5.85 C2.35 5.85, 2.35 5.85, 2.35 5.85 M2.35 5.85 C2.35 5.85, 2.35 5.85, 2.35 5.85 M2.35 5.85 C1.65 4.1, 0.95 2.35, 0 0 M2.35 5.85 C1.79 4.45, 1.23 3.05, 0 0 M0 0 C0 0, 0 0, 0 0 M0 0 C0 0, 0 0, 0 0 M0 0 C0 0, 0 0, 0 0 M0 0 C0 0, 0 0, 0 0" stroke="#000000" stroke-width="1" fill="none"></path></g></g><mask></mask><g stroke-linecap="round"><g transform="translate(203.711911035434 142.5556949361253) rotate(0 -1.1366655628383455 -16.238094713006916)" fill-rule="evenodd"><path d="M0 0 L30.2 -30.2 L30.2 -30.2 L24.36 -32.48 L-32.48 -32.48 L-32.48 0 L0 0" stroke="none" stroke-width="0" fill="#aecbfa" fill-rule="evenodd"></path><path d="M0 0 C6.89 -6.89, 13.78 -13.78, 30.2 -30.2 M0 0 C10.65 -10.65, 21.29 -21.29, 30.2 -30.2 M30.2 -30.2 C30.2 -30.2, 30.2 -30.2, 30.2 -30.2 M30.2 -30.2 C30.2 -30.2, 30.2 -30.2, 30.2 -30.2 M30.2 -30.2 C27.97 -31.07, 25.73 -31.94, 24.36 -32.48 M30.2 -30.2 C28.19 -30.99, 26.17 -31.77, 24.36 -32.48 M24.36 -32.48 C6.86 -32.48, -10.63 -32.48, -32.48 -32.48 M24.36 -32.48 C12.86 -32.48, 1.35 -32.48, -32.48 -32.48 M-32.48 -32.48 C-32.48 -23.76, -32.48 -15.05, -32.48 0 M-32.48 -32.48 C-32.48 -24.51, -32.48 -16.55, -32.48 0 M-32.48 0 C-24.39 0, -16.3 0, 0 0 M-32.48 0 C-20.44 0, -8.39 0, 0 0 M0 0 C0 0, 0 0, 0 0 M0 0 C0 0, 0 0, 0 0" stroke="#000000" stroke-width="1" fill="none"></path></g></g><mask></mask><g stroke-linecap="round"><g transform="translate(73.80715187958322 272.46045844737705) rotate(0 73.0714309268773 -16.23809689070515)" fill-rule="evenodd"><path d="M0 0 L32.48 -32.48 L113.67 -32.48 L146.14 0 L0 0 L0 0" stroke="none" stroke-width="0" fill="#669df6" fill-rule="evenodd"></path><path d="M0 0 C7.18 -7.18, 14.36 -14.36, 32.48 -32.48 M0 0 C11.74 -11.74, 23.48 -23.48, 32.48 -32.48 M32.48 -32.48 C61.03 -32.48, 89.59 -32.48, 113.67 -32.48 M32.48 -32.48 C59.98 -32.48, 87.48 -32.48, 113.67 -32.48 M113.67 -32.48 C126.06 -20.08, 138.45 -7.69, 146.14 0 M113.67 -32.48 C124.41 -21.74, 135.15 -11, 146.14 0 M146.14 0 C100.09 0, 54.03 0, 0 0 M146.14 0 C101.91 0, 57.68 0, 0 0 M0 0 C0 0, 0 0, 0 0 M0 0 C0 0, 0 0, 0 0 M0 0 C0 0, 0 0, 0 0 M0 0 C0 0, 0 0, 0 0" stroke="#000000" stroke-width="1" fill="none"></path></g></g><mask></mask><g transform="translate(13.75 285.639487473248) rotate(0 138.4619140625 47.74358974358978)"><text x="138.4619140625" y="23.475076789529925" font-family="Helvetica, Segoe UI Emoji" font-size="28px" fill="#1e1e1e" text-anchor="middle" style="white-space: pre;" direction="ltr" dominant-baseline="alphabetic">CONTENEDOR LXC  </text><text x="138.4619140625" y="55.30413661858978" font-family="Helvetica, Segoe UI Emoji" font-size="28px" fill="#1e1e1e" text-anchor="middle" style="white-space: pre;" direction="ltr" dominant-baseline="alphabetic">OPENWRT</text><text x="138.4619140625" y="87.13319644764962" font-family="Helvetica, Segoe UI Emoji" font-size="28px" fill="#1e1e1e" text-anchor="middle" style="white-space: pre;" direction="ltr" dominant-baseline="alphabetic"> RIPE ATLAS</text></g><g stroke-linecap="round"><g transform="translate(235.7119140625 199.2312913634746) rotate(0 190.375 106.625)"><path d="M0 0 C63.46 35.54, 317.29 177.71, 380.75 213.25" stroke="#1e1e1e" stroke-width="2.5" fill="none" stroke-dasharray="1.5 8"></path></g><g transform="translate(235.7119140625 199.2312913634746) rotate(0 190.375 106.625)"><path d="M24.67 4.02 C17.19 2.8, 9.71 1.58, 0 0" stroke="#1e1e1e" stroke-width="2.5" fill="none" stroke-dasharray="1.5 6"></path></g><g transform="translate(235.7119140625 199.2312913634746) rotate(0 190.375 106.625)"><path d="M16.32 18.94 C11.37 13.19, 6.42 7.45, 0 0" stroke="#1e1e1e" stroke-width="2.5" fill="none" stroke-dasharray="1.5 6"></path></g><g transform="translate(235.7119140625 199.2312913634746) rotate(0 190.375 106.625)"><path d="M356.08 209.23 C363.56 210.45, 371.04 211.67, 380.75 213.25" stroke="#1e1e1e" stroke-width="2.5" fill="none" stroke-dasharray="1.5 6"></path></g><g transform="translate(235.7119140625 199.2312913634746) rotate(0 190.375 106.625)"><path d="M364.43 194.31 C369.38 200.06, 374.33 205.8, 380.75 213.25" stroke="#1e1e1e" stroke-width="2.5" fill="none" stroke-dasharray="1.5 6"></path></g></g><mask></mask><g stroke-linecap="round"><g transform="translate(618.9619140625 428.2312913634746) rotate(0 -163.875 193.625)"><path d="M0 0 C-54.63 64.54, -273.13 322.71, -327.75 387.25" stroke="#1e1e1e" stroke-width="2.5" fill="none" stroke-dasharray="1.5 8"></path></g><g transform="translate(618.9619140625 428.2312913634746) rotate(0 -163.875 193.625)"><path d="M-8.65 23.46 C-6.26 16.98, -3.87 10.5, 0 0" stroke="#1e1e1e" stroke-width="2.5" fill="none" stroke-dasharray="1.5 6"></path></g><g transform="translate(618.9619140625 428.2312913634746) rotate(0 -163.875 193.625)"><path d="M-21.7 12.41 C-15.71 8.98, -9.71 5.55, 0 0" stroke="#1e1e1e" stroke-width="2.5" fill="none" stroke-dasharray="1.5 6"></path></g><g transform="translate(618.9619140625 428.2312913634746) rotate(0 -163.875 193.625)"><path d="M-319.1 363.79 C-321.49 370.27, -323.88 376.75, -327.75 387.25" stroke="#1e1e1e" stroke-width="2.5" fill="none" stroke-dasharray="1.5 6"></path></g><g transform="translate(618.9619140625 428.2312913634746) rotate(0 -163.875 193.625)"><path d="M-306.05 374.84 C-312.04 378.27, -318.04 381.7, -327.75 387.25" stroke="#1e1e1e" stroke-width="2.5" fill="none" stroke-dasharray="1.5 6"></path></g></g><mask></mask><g stroke-linecap="round"><g transform="translate(658.7119140625 321.7312913634746) rotate(0 0.5 -117)"><path d="M0 0 C0.17 -39, 0.83 -195, 1 -234 M0 0 C0.17 -39, 0.83 -195, 1 -234" stroke="#1e1e1e" stroke-width="2" fill="none"></path></g><g transform="translate(658.7119140625 321.7312913634746) rotate(0 0.5 -117)"><path d="M-8.45 -23.53 C-5.56 -15.47, -2.66 -7.41, 0 0 M-8.45 -23.53 C-5.56 -15.49, -2.67 -7.44, 0 0" stroke="#1e1e1e" stroke-width="2" fill="none"></path></g><g transform="translate(658.7119140625 321.7312913634746) rotate(0 0.5 -117)"><path d="M8.65 -23.46 C5.69 -15.42, 2.72 -7.39, 0 0 M8.65 -23.46 C5.69 -15.44, 2.74 -7.42, 0 0" stroke="#1e1e1e" stroke-width="2" fill="none"></path></g><g transform="translate(658.7119140625 321.7312913634746) rotate(0 0.5 -117)"><path d="M9.45 -210.47 C6.56 -218.53, 3.66 -226.59, 1 -234 M9.45 -210.47 C6.56 -218.51, 3.67 -226.56, 1 -234" stroke="#1e1e1e" stroke-width="2" fill="none"></path></g><g transform="translate(658.7119140625 321.7312913634746) rotate(0 0.5 -117)"><path d="M-7.65 -210.54 C-4.69 -218.58, -1.72 -226.61, 1 -234 M-7.65 -210.54 C-4.69 -218.56, -1.74 -226.58, 1 -234" stroke="#1e1e1e" stroke-width="2" fill="none"></path></g></g><mask></mask><g transform="translate(795.7119140625 81.23129136347461) rotate(0 70 16.099999999999994)"><text x="0" y="23.660546874999998" font-family="Helvetica, Segoe UI Emoji" font-size="28px" fill="#1e1e1e" text-anchor="start" style="white-space: pre;" direction="ltr" dominant-baseline="alphabetic">INTERNET</text></g><g transform="translate(333.29296875 775.3812913634746) rotate(0 39.6689453125 16.100000000000023)"><text x="0" y="23.660546874999998" font-family="Helvetica, Segoe UI Emoji" font-size="28px" fill="#1e1e1e" text-anchor="start" style="white-space: pre;" direction="ltr" dominant-baseline="alphabetic">DHCP</text></g><g transform="translate(798.6240234375 366.1312913634746) rotate(0 69.26171875 32.19999999999999)"><text x="0" y="23.660546874999998" font-family="Helvetica, Segoe UI Emoji" font-size="28px" fill="#1e1e1e" text-anchor="start" style="white-space: pre;" direction="ltr" dominant-baseline="alphabetic">SERVER </text><text x="0" y="55.860546875" font-family="Helvetica, Segoe UI Emoji" font-size="28px" fill="#1e1e1e" text-anchor="start" style="white-space: pre;" direction="ltr" dominant-baseline="alphabetic">LXC v4.0.6</text></g><g transform="translate(272.5 187.8812913634746) rotate(0 39.6689453125 16.099999999999994)"><text x="0" y="23.660546874999998" font-family="Helvetica, Segoe UI Emoji" font-size="28px" fill="#1e1e1e" text-anchor="start" style="white-space: pre;" direction="ltr" dominant-baseline="alphabetic">DHCP</text></g><g stroke-linecap="round"><g transform="translate(106.2833413055971 772.5437918268312) rotate(0 0.0000021776982066512574 39.2961915138369)" fill-rule="evenodd"><path d="M0 0 L32.48 0 L32.48 -32.48 L-24.36 -32.48 L-24.36 -32.48 L-30.1 -30.1 L-32.48 -24.36 L-32.48 105.55 L-32.48 105.55 L-30.2 111.07 L0 81.19 L0 0" stroke="none" stroke-width="0" fill="#aecbfa" fill-rule="evenodd"></path><path d="M0 0 C9.61 0, 19.21 0, 32.48 0 M0 0 C6.74 0, 13.48 0, 32.48 0 M32.48 0 C32.48 -9.5, 32.48 -19, 32.48 -32.48 M32.48 0 C32.48 -8.68, 32.48 -17.37, 32.48 -32.48 M32.48 -32.48 C11.29 -32.48, -9.9 -32.48, -24.36 -32.48 M32.48 -32.48 C18.52 -32.48, 4.57 -32.48, -24.36 -32.48 M-24.36 -32.48 C-24.36 -32.48, -24.36 -32.48, -24.36 -32.48 M-24.36 -32.48 C-24.36 -32.48, -24.36 -32.48, -24.36 -32.48 M-24.36 -32.48 C-26.5 -31.59, -28.64 -30.7, -30.1 -30.1 M-24.36 -32.48 C-26.52 -31.58, -28.67 -30.69, -30.1 -30.1 M-30.1 -30.1 C-30.88 -28.22, -31.66 -26.34, -32.48 -24.36 M-30.1 -30.1 C-30.7 -28.64, -31.31 -27.18, -32.48 -24.36 M-32.48 -24.36 C-32.48 25.61, -32.48 75.57, -32.48 105.55 M-32.48 -24.36 C-32.48 21.31, -32.48 66.98, -32.48 105.55 M-32.48 105.55 C-32.48 105.55, -32.48 105.55, -32.48 105.55 M-32.48 105.55 C-32.48 105.55, -32.48 105.55, -32.48 105.55 M-32.48 105.55 C-31.95 106.83, -31.42 108.12, -30.2 111.07 M-32.48 105.55 C-31.6 107.69, -30.72 109.82, -30.2 111.07 M-30.2 111.07 C-23.32 104.26, -16.44 97.46, 0 81.19 M-30.2 111.07 C-18.65 99.64, -7.1 88.22, 0 81.19 M0 81.19 C0 58.32, 0 35.44, 0 0 M0 81.19 C0 51.89, 0 22.6, 0 0 M0 0 C0 0, 0 0, 0 0 M0 0 C0 0, 0 0, 0 0" stroke="#000000" stroke-width="1" fill="none"></path></g></g><mask></mask><g stroke-linecap="round"><g transform="translate(187.473819951927 853.734264665967) rotate(0 16.23809689070515 -1.1366655628383455)" fill-rule="evenodd"><path d="M0 0 L30.2 30.2 L30.2 30.2 L32.48 24.36 L32.48 -32.48 L0 -32.48 L0 0" stroke="none" stroke-width="0" fill="#4285f4" fill-rule="evenodd"></path><path d="M0 0 C7.46 7.46, 14.91 14.91, 30.2 30.2 M0 0 C8 8, 15.99 15.99, 30.2 30.2 M30.2 30.2 C30.2 30.2, 30.2 30.2, 30.2 30.2 M30.2 30.2 C30.2 30.2, 30.2 30.2, 30.2 30.2 M30.2 30.2 C30.74 28.81, 31.28 27.42, 32.48 24.36 M30.2 30.2 C31.03 28.09, 31.85 25.97, 32.48 24.36 M32.48 24.36 C32.48 6.08, 32.48 -12.21, 32.48 -32.48 M32.48 24.36 C32.48 12.13, 32.48 -0.1, 32.48 -32.48 M32.48 -32.48 C20.68 -32.48, 8.88 -32.48, 0 -32.48 M32.48 -32.48 C21.66 -32.48, 10.85 -32.48, 0 -32.48 M0 -32.48 C0 -21.08, 0 -9.69, 0 0 M0 -32.48 C0 -20.24, 0 -8.01, 0 0 M0 0 C0 0, 0 0, 0 0 M0 0 C0 0, 0 0, 0 0" stroke="#000000" stroke-width="1" fill="none"></path></g></g><mask></mask><g stroke-linecap="round"><g transform="translate(233.83357748662775 726.1028380875887) rotate(0 -13.883569560487558 31.33952531497431)" fill-rule="evenodd"><path d="M0 0 L-30.12 30.2 L-30.12 30.2 L-30.12 62.68 L2.35 62.68 L2.35 5.85 L2.35 5.85 L0 0 L0 0" stroke="none" stroke-width="0" fill="#669df6" fill-rule="evenodd"></path><path d="M0 0 C-6.78 6.8, -13.56 13.6, -30.12 30.2 M0 0 C-9.86 9.89, -19.72 19.77, -30.12 30.2 M-30.12 30.2 C-30.12 30.2, -30.12 30.2, -30.12 30.2 M-30.12 30.2 C-30.12 30.2, -30.12 30.2, -30.12 30.2 M-30.12 30.2 C-30.12 37.7, -30.12 45.2, -30.12 62.68 M-30.12 30.2 C-30.12 39.33, -30.12 48.46, -30.12 62.68 M-30.12 62.68 C-21.19 62.68, -12.26 62.68, 2.35 62.68 M-30.12 62.68 C-20.17 62.68, -10.21 62.68, 2.35 62.68 M2.35 62.68 C2.35 50.34, 2.35 37.99, 2.35 5.85 M2.35 62.68 C2.35 45.37, 2.35 28.06, 2.35 5.85 M2.35 5.85 C2.35 5.85, 2.35 5.85, 2.35 5.85 M2.35 5.85 C2.35 5.85, 2.35 5.85, 2.35 5.85 M2.35 5.85 C1.8 4.47, 1.25 3.1, 0 0 M2.35 5.85 C1.44 3.58, 0.53 1.31, 0 0 M0 0 C0 0, 0 0, 0 0 M0 0 C0 0, 0 0, 0 0 M0 0 C0 0, 0 0, 0 0 M0 0 C0 0, 0 0, 0 0" stroke="#000000" stroke-width="1" fill="none"></path></g></g><mask></mask><g stroke-linecap="round"><g transform="translate(203.711911035434 756.3056949361253) rotate(0 -1.1366655628383455 -16.238094713006944)" fill-rule="evenodd"><path d="M0 0 L30.2 -30.2 L30.2 -30.2 L24.36 -32.48 L-32.48 -32.48 L-32.48 0 L0 0" stroke="none" stroke-width="0" fill="#aecbfa" fill-rule="evenodd"></path><path d="M0 0 C9.73 -9.73, 19.47 -19.47, 30.2 -30.2 M0 0 C7.04 -7.04, 14.08 -14.08, 30.2 -30.2 M30.2 -30.2 C30.2 -30.2, 30.2 -30.2, 30.2 -30.2 M30.2 -30.2 C30.2 -30.2, 30.2 -30.2, 30.2 -30.2 M30.2 -30.2 C28.37 -30.92, 26.53 -31.63, 24.36 -32.48 M30.2 -30.2 C28.77 -30.76, 27.34 -31.31, 24.36 -32.48 M24.36 -32.48 C10.61 -32.48, -3.13 -32.48, -32.48 -32.48 M24.36 -32.48 C7.36 -32.48, -9.63 -32.48, -32.48 -32.48 M-32.48 -32.48 C-32.48 -23.82, -32.48 -15.16, -32.48 0 M-32.48 -32.48 C-32.48 -24.76, -32.48 -17.03, -32.48 0 M-32.48 0 C-22.02 0, -11.57 0, 0 0 M-32.48 0 C-24.32 0, -16.16 0, 0 0 M0 0 C0 0, 0 0, 0 0 M0 0 C0 0, 0 0, 0 0" stroke="#000000" stroke-width="1" fill="none"></path></g></g><mask></mask><g stroke-linecap="round"><g transform="translate(73.80715187958322 886.210458447377) rotate(0 73.0714309268773 -16.23809689070515)" fill-rule="evenodd"><path d="M0 0 L32.48 -32.48 L113.67 -32.48 L146.14 0 L0 0 L0 0" stroke="none" stroke-width="0" fill="#669df6" fill-rule="evenodd"></path><path d="M0 0 C8.14 -8.14, 16.29 -16.29, 32.48 -32.48 M0 0 C8.48 -8.48, 16.96 -16.96, 32.48 -32.48 M32.48 -32.48 C54.4 -32.48, 76.32 -32.48, 113.67 -32.48 M32.48 -32.48 C55.18 -32.48, 77.89 -32.48, 113.67 -32.48 M113.67 -32.48 C120.82 -25.32, 127.98 -18.17, 146.14 0 M113.67 -32.48 C126.22 -19.93, 138.77 -7.38, 146.14 0 M146.14 0 C109.19 0, 72.24 0, 0 0 M146.14 0 C107.21 0, 68.28 0, 0 0 M0 0 C0 0, 0 0, 0 0 M0 0 C0 0, 0 0, 0 0 M0 0 C0 0, 0 0, 0 0 M0 0 C0 0, 0 0, 0 0" stroke="#000000" stroke-width="1" fill="none"></path></g></g><mask></mask><g transform="translate(13.75 899.389487473248) rotate(0 138.4619140625 47.74358974358972)"><text x="138.4619140625" y="23.475076789529925" font-family="Helvetica, Segoe UI Emoji" font-size="28px" fill="#1e1e1e" text-anchor="middle" style="white-space: pre;" direction="ltr" dominant-baseline="alphabetic">CONTENEDOR LXC  </text><text x="138.4619140625" y="55.30413661858978" font-family="Helvetica, Segoe UI Emoji" font-size="28px" fill="#1e1e1e" text-anchor="middle" style="white-space: pre;" direction="ltr" dominant-baseline="alphabetic">OPENWRT</text><text x="138.4619140625" y="87.13319644764962" font-family="Helvetica, Segoe UI Emoji" font-size="28px" fill="#1e1e1e" text-anchor="middle" style="white-space: pre;" direction="ltr" dominant-baseline="alphabetic"> RIPE ATLAS</text></g><g transform="translate(10 75.78129136347457) rotate(0 64.0107421875 20.700000000000003)"><text x="0" y="30.420703125" font-family="Helvetica, Segoe UI Emoji" font-size="36px" fill="#1e1e1e" text-anchor="start" style="white-space: pre;" direction="ltr" dominant-baseline="alphabetic">SONDA</text></g><g transform="translate(12.5 695.7812913634746) rotate(0 64.0107421875 20.69999999999999)"><text x="0" y="30.420703125" font-family="Helvetica, Segoe UI Emoji" font-size="36px" fill="#1e1e1e" text-anchor="start" style="white-space: pre;" direction="ltr" dominant-baseline="alphabetic">SONDA</text></g></svg>