<?xml version="1.0" standalone="no"?>
<!DOCTYPE svg PUBLIC "-//W3C//DTD SVG 1.1//EN" "http://www.w3.org/Graphics/SVG/1.1/DTD/svg11.dtd">
<svg version="1.1" xmlns="http://www.w3.org/2000/svg" viewBox="0 0 931.5069978343984 831.1490732498463" width="931.5069978343984" height="831.1490732498463"><!-- svg-source:excalidraw --><metadata></metadata><defs><style class="style-fonts">
      </style></defs><rect x="0" y="0" width="931.5069978343984" height="831.1490732498463" fill="#000000"></rect><g stroke-linecap="round"><g transform="translate(507.4056543798836 353.6129663011951) rotate(0 10.397614632517502 -30.126432070455422)" fill-rule="evenodd"><path d="M0 0 L31.28 -18.04 L31.28 -54.12 L20.8 -60.25 L-10.49 -6.04 L0 0 L0 0" stroke="none" stroke-width="0" fill="#4285f4" fill-rule="evenodd"></path><path d="M0 0 C12.03 -6.94, 24.05 -13.87, 31.28 -18.04 M0 0 C8.7 -5.02, 17.4 -10.03, 31.28 -18.04 M31.28 -18.04 C31.28 -31.43, 31.28 -44.82, 31.28 -54.12 M31.28 -18.04 C31.28 -30.81, 31.28 -43.59, 31.28 -54.12 M31.28 -54.12 C28.92 -55.5, 26.57 -56.88, 20.8 -60.25 M31.28 -54.12 C28.31 -55.86, 25.33 -57.6, 20.8 -60.25 M20.8 -60.25 C12.83 -46.45, 4.86 -32.64, -10.49 -6.04 M20.8 -60.25 C8.31 -38.62, -4.17 -16.99, -10.49 -6.04 M-10.49 -6.04 C-8.16 -4.7, -5.83 -3.36, 0 0 M-10.49 -6.04 C-6.55 -3.78, -2.62 -1.51, 0 0 M0 0 C0 0, 0 0, 0 0 M0 0 C0 0, 0 0, 0 0 M0 0 C0 0, 0 0, 0 0 M0 0 C0 0, 0 0, 0 0" stroke="#000000" stroke-width="1" fill="none"></path></g></g><mask></mask><g stroke-linecap="round"><g transform="translate(476.12392932278203 299.49202498981083) rotate(0 20.928538291614473 11.997259387746652)" fill-rule="evenodd"><path d="M0 0 L0 36.08 L10.49 42.12 L41.86 -12 L31.28 -18.13 L0 0 L0 0" stroke="none" stroke-width="0" fill="#669df6" fill-rule="evenodd"></path><path d="M0 0 C0 8.5, 0 17, 0 36.08 M0 0 C0 8.04, 0 16.08, 0 36.08 M0 36.08 C2.85 37.73, 5.71 39.37, 10.49 42.12 M0 36.08 C4.05 38.41, 8.1 40.75, 10.49 42.12 M10.49 42.12 C17.18 30.58, 23.86 19.04, 41.86 -12 M10.49 42.12 C21.35 23.39, 32.21 4.65, 41.86 -12 M41.86 -12 C39.43 -13.4, 37 -14.81, 31.28 -18.13 M41.86 -12 C37.99 -14.24, 34.12 -16.48, 31.28 -18.13 M31.28 -18.13 C22.4 -12.98, 13.52 -7.84, 0 0 M31.28 -18.13 C23.15 -13.42, 15.03 -8.71, 0 0 M0 0 C0 0, 0 0, 0 0 M0 0 C0 0, 0 0, 0 0 M0 0 C0 0, 0 0, 0 0 M0 0 C0 0, 0 0, 0 0" stroke="#000000" stroke-width="1" fill="none"></path></g></g><mask></mask><g stroke-linecap="round"><g transform="translate(501.27372519399023 364.3660674336767) rotate(0 -35.41411101170513 -22.83921943247367)" fill-rule="evenodd"><path d="M0 0 L-37.5 -21.68 L-37.5 -64.87 L-70.83 -84.16 L-70.83 -2.4 L0 38.48 L0 0 L0 0" stroke="none" stroke-width="0" fill="#aecbfa" fill-rule="evenodd"></path><path d="M0 0 C-12.59 -7.28, -25.18 -14.56, -37.5 -21.68 M0 0 C-11.09 -6.41, -22.18 -12.82, -37.5 -21.68 M-37.5 -21.68 C-37.5 -35.09, -37.5 -48.5, -37.5 -64.87 M-37.5 -21.68 C-37.5 -36.65, -37.5 -51.61, -37.5 -64.87 M-37.5 -64.87 C-44.88 -69.14, -52.25 -73.41, -70.83 -84.16 M-37.5 -64.87 C-46.28 -69.95, -55.06 -75.04, -70.83 -84.16 M-70.83 -84.16 C-70.83 -56.81, -70.83 -29.45, -70.83 -2.4 M-70.83 -84.16 C-70.83 -63.26, -70.83 -42.35, -70.83 -2.4 M-70.83 -2.4 C-46.05 11.9, -21.27 26.2, 0 38.48 M-70.83 -2.4 C-42.92 13.71, -15.01 29.82, 0 38.48 M0 38.48 C0 27.55, 0 16.61, 0 0 M0 38.48 C0 23.96, 0 9.44, 0 0 M0 0 C0 0, 0 0, 0 0 M0 0 C0 0, 0 0, 0 0 M0 0 C0 0, 0 0, 0 0 M0 0 C0 0, 0 0, 0 0" stroke="#000000" stroke-width="1" fill="none"></path></g></g><mask></mask><g stroke-linecap="round"><g transform="translate(469.9031316900837 288.8278050168791) rotate(0 37.50251951161454 -30.126432070455422)" fill-rule="evenodd"><path d="M0 0 L37.5 -21.68 L75.01 0 L108.42 -19.28 L37.5 -60.25 L-33.41 -19.28 L0 0 L0 0" stroke="none" stroke-width="0" fill="#aecbfa" fill-rule="evenodd"></path><path d="M0 0 C10.31 -5.96, 20.62 -11.93, 37.5 -21.68 M0 0 C8.75 -5.06, 17.5 -10.12, 37.5 -21.68 M37.5 -21.68 C49.05 -15.01, 60.6 -8.33, 75.01 0 M37.5 -21.68 C45.28 -17.19, 53.05 -12.69, 75.01 0 M75.01 0 C84.8 -5.65, 94.6 -11.31, 108.42 -19.28 M75.01 0 C81.77 -3.91, 88.54 -7.81, 108.42 -19.28 M108.42 -19.28 C85.22 -32.69, 62.01 -46.09, 37.5 -60.25 M108.42 -19.28 C87.85 -31.17, 67.27 -43.06, 37.5 -60.25 M37.5 -60.25 C17.62 -48.76, -2.27 -37.28, -33.41 -19.28 M37.5 -60.25 C22.45 -51.56, 7.4 -42.86, -33.41 -19.28 M-33.41 -19.28 C-20.67 -11.93, -7.93 -4.58, 0 0 M-33.41 -19.28 C-25.11 -14.49, -16.81 -9.7, 0 0 M0 0 C0 0, 0 0, 0 0 M0 0 C0 0, 0 0, 0 0 M0 0 C0 0, 0 0, 0 0 M0 0 C0 0, 0 0, 0 0" stroke="#000000" stroke-width="1" fill="none"></path></g></g><mask></mask><g stroke-linecap="round"><g transform="translate(551.0400935428343 342.68214098785006) rotate(0 -2.043967920134378 -1.155292986646856)" fill-rule="evenodd"><path d="M0 0 L-37.5 21.68 L-37.5 60.16 L33.41 19.28 L33.41 -62.47 L0 -43.19 L0 0 L0 0" stroke="none" stroke-width="0" fill="#aecbfa" fill-rule="evenodd"></path><path d="M0 0 C-9.55 5.52, -19.1 11.05, -37.5 21.68 M0 0 C-7.74 4.48, -15.49 8.95, -37.5 21.68 M-37.5 21.68 C-37.5 32.53, -37.5 43.38, -37.5 60.16 M-37.5 21.68 C-37.5 30.94, -37.5 40.19, -37.5 60.16 M-37.5 60.16 C-12.47 45.73, 12.56 31.3, 33.41 19.28 M-37.5 60.16 C-9.43 43.98, 18.64 27.8, 33.41 19.28 M33.41 19.28 C33.41 0.57, 33.41 -18.14, 33.41 -62.47 M33.41 19.28 C33.41 1.21, 33.41 -16.87, 33.41 -62.47 M33.41 -62.47 C23.89 -56.98, 14.36 -51.48, 0 -43.19 M33.41 -62.47 C25.21 -57.74, 17 -53, 0 -43.19 M0 -43.19 C0 -26.08, 0 -8.97, 0 0 M0 -43.19 C0 -28.27, 0 -13.34, 0 0 M0 0 C0 0, 0 0, 0 0 M0 0 C0 0, 0 0, 0 0 M0 0 C0 0, 0 0, 0 0 M0 0 C0 0, 0 0, 0 0" stroke="#000000" stroke-width="1" fill="none"></path></g></g><mask></mask><g transform="translate(443.5722024810666 408.0887762981175) rotate(0 63.07337560216922 14.266596862395431)"><text x="63.07337560216921" y="20.894894800993303" font-family="Helvetica, sans-serif, Segoe UI Emoji" font-size="24.547475910033395px" fill="#000000" text-anchor="middle" style="white-space: pre;" direction="ltr" dominant-baseline="alphabetic">Cloud Build</text></g><g stroke-linecap="round"><g transform="translate(509.0425714634889 238.4392203583501) rotate(0 3.6605084054830286 -69.54965970417766)"><path d="M0 0 C2.51 -47.64, 5.02 -95.29, 7.32 -139.1 M0 0 C2.5 -47.55, 5.01 -95.1, 7.32 -139.1" stroke="#ffffff" stroke-width="2" fill="none"></path></g></g><mask></mask><g stroke-linecap="round"><g transform="translate(515.8196403489837 10) rotate(0 -0.019207213833965397 48.47974482140049)" fill-rule="evenodd"><path d="M0 0 L0 0 L-3.22 0.13 L-6.36 0.5 L-9.43 1.12 L-12.41 1.96 L-15.29 3.02 L-18.06 4.29 L-20.71 5.76 L-23.24 7.41 L-25.63 9.25 L-27.87 11.26 L-29.96 13.43 L-31.88 15.75 L-33.63 18.21 L-35.19 20.81 L-36.56 23.52 L-37.72 26.35 L-37.72 26.35 L-39.3 26.35 L-39.3 26.35 L-41.12 26.4 L-42.91 26.53 L-44.68 26.76 L-46.42 27.07 L-48.13 27.46 L-49.8 27.94 L-51.44 28.49 L-53.05 29.12 L-54.61 29.83 L-56.13 30.61 L-57.61 31.46 L-59.04 32.38 L-60.43 33.36 L-61.76 34.41 L-63.04 35.52 L-64.27 36.69 L-65.44 37.91 L-66.55 39.19 L-67.59 40.53 L-68.58 41.91 L-69.49 43.34 L-70.34 44.82 L-71.12 46.34 L-71.83 47.91 L-72.46 49.51 L-73.02 51.15 L-73.49 52.83 L-73.89 54.54 L-74.2 56.28 L-74.42 58.04 L-74.56 59.84 L-74.6 61.66 L-74.56 63.47 L-74.42 65.27 L-74.2 67.04 L-73.89 68.78 L-73.49 70.48 L-73.02 72.16 L-72.46 73.8 L-71.83 75.41 L-71.12 76.97 L-70.34 78.49 L-69.49 79.97 L-68.58 81.4 L-67.59 82.79 L-66.55 84.12 L-65.44 85.4 L-64.27 86.63 L-63.04 87.79 L-61.76 88.9 L-60.43 89.95 L-59.04 90.93 L-57.61 91.85 L-56.13 92.7 L-54.61 93.48 L-53.05 94.19 L-51.44 94.82 L-49.8 95.37 L-48.13 95.85 L-46.42 96.24 L-44.68 96.55 L-42.91 96.78 L-41.12 96.91 L-39.3 96.96 L-39.3 96.96 L39.26 96.96 L39.26 96.96 L41.08 96.91 L42.87 96.78 L44.64 96.55 L46.38 96.24 L48.09 95.85 L49.76 95.37 L51.41 94.82 L53.01 94.19 L54.57 93.48 L56.1 92.7 L57.57 91.85 L59.01 90.93 L60.39 89.95 L61.72 88.9 L63 87.79 L64.23 86.63 L65.4 85.4 L66.51 84.12 L67.56 82.79 L68.54 81.4 L69.46 79.97 L70.31 78.49 L71.09 76.97 L71.79 75.41 L72.42 73.8 L72.98 72.16 L73.45 70.48 L73.85 68.78 L74.16 67.04 L74.38 65.27 L74.52 63.47 L74.56 61.66 L74.52 59.84 L74.38 58.04 L74.16 56.28 L73.85 54.54 L73.45 52.83 L72.98 51.15 L72.42 49.51 L71.79 47.91 L71.09 46.34 L70.31 44.82 L69.46 43.34 L68.54 41.91 L67.56 40.53 L66.51 39.19 L65.4 37.91 L64.23 36.69 L63 35.52 L61.72 34.41 L60.39 33.36 L59.01 32.38 L57.57 31.46 L56.1 30.61 L54.57 29.83 L53.01 29.12 L51.41 28.49 L49.76 27.94 L48.09 27.46 L46.38 27.07 L44.64 26.76 L42.87 26.53 L41.08 26.4 L39.26 26.35 L39.26 26.35 L37.69 26.35 L37.69 26.35 L36.53 23.52 L35.18 20.81 L33.62 18.21 L31.88 15.75 L29.97 13.43 L27.88 11.26 L25.64 9.25 L23.25 7.41 L20.72 5.76 L18.07 4.29 L15.3 3.02 L12.41 1.96 L9.43 1.12 L6.37 0.5 L3.22 0.13 L0 0 L0 0" stroke="none" stroke-width="0" fill="#4285F4" fill-rule="evenodd"></path><path d="M0 0 C0 0, 0 0, 0 0 M0 0 C0 0, 0 0, 0 0 M0 0 C-1.25 0.05, -2.5 0.1, -3.22 0.13 M0 0 C-0.65 0.03, -1.29 0.05, -3.22 0.13 M-3.22 0.13 C-3.93 0.21, -4.64 0.3, -6.36 0.5 M-3.22 0.13 C-4.31 0.26, -5.4 0.39, -6.36 0.5 M-6.36 0.5 C-7.34 0.7, -8.31 0.89, -9.43 1.12 M-6.36 0.5 C-7.15 0.66, -7.95 0.82, -9.43 1.12 M-9.43 1.12 C-10.35 1.37, -11.27 1.63, -12.41 1.96 M-9.43 1.12 C-10.14 1.32, -10.85 1.52, -12.41 1.96 M-12.41 1.96 C-13.17 2.24, -13.92 2.51, -15.29 3.02 M-12.41 1.96 C-13.08 2.2, -13.75 2.45, -15.29 3.02 M-15.29 3.02 C-16.24 3.45, -17.2 3.89, -18.06 4.29 M-15.29 3.02 C-16.28 3.47, -17.27 3.92, -18.06 4.29 M-18.06 4.29 C-18.81 4.7, -19.56 5.12, -20.71 5.76 M-18.06 4.29 C-18.62 4.6, -19.19 4.91, -20.71 5.76 M-20.71 5.76 C-21.37 6.19, -22.02 6.61, -23.24 7.41 M-20.71 5.76 C-21.27 6.12, -21.82 6.48, -23.24 7.41 M-23.24 7.41 C-24.13 8.1, -25.02 8.78, -25.63 9.25 M-23.24 7.41 C-24.05 8.04, -24.86 8.66, -25.63 9.25 M-25.63 9.25 C-26.34 9.89, -27.05 10.52, -27.87 11.26 M-25.63 9.25 C-26.08 9.66, -26.53 10.06, -27.87 11.26 M-27.87 11.26 C-28.42 11.83, -28.96 12.39, -29.96 13.43 M-27.87 11.26 C-28.34 11.75, -28.81 12.23, -29.96 13.43 M-29.96 13.43 C-30.57 14.17, -31.18 14.9, -31.88 15.75 M-29.96 13.43 C-30.62 14.23, -31.28 15.03, -31.88 15.75 M-31.88 15.75 C-32.27 16.29, -32.65 16.83, -33.63 18.21 M-31.88 15.75 C-32.47 16.59, -33.06 17.42, -33.63 18.21 M-33.63 18.21 C-34.25 19.25, -34.87 20.28, -35.19 20.81 M-33.63 18.21 C-34.18 19.12, -34.72 20.03, -35.19 20.81 M-35.19 20.81 C-35.54 21.5, -35.89 22.19, -36.56 23.52 M-35.19 20.81 C-35.49 21.39, -35.78 21.98, -36.56 23.52 M-36.56 23.52 C-36.83 24.19, -37.11 24.85, -37.72 26.35 M-36.56 23.52 C-37.01 24.61, -37.45 25.7, -37.72 26.35 M-37.72 26.35 C-37.72 26.35, -37.72 26.35, -37.72 26.35 M-37.72 26.35 C-37.72 26.35, -37.72 26.35, -37.72 26.35 M-37.72 26.35 C-38.1 26.35, -38.48 26.35, -39.3 26.35 M-37.72 26.35 C-38.16 26.35, -38.59 26.35, -39.3 26.35 M-39.3 26.35 C-39.3 26.35, -39.3 26.35, -39.3 26.35 M-39.3 26.35 C-39.3 26.35, -39.3 26.35, -39.3 26.35 M-39.3 26.35 C-39.97 26.37, -40.64 26.39, -41.12 26.4 M-39.3 26.35 C-39.86 26.37, -40.43 26.38, -41.12 26.4 M-41.12 26.4 C-41.74 26.45, -42.37 26.49, -42.91 26.53 M-41.12 26.4 C-41.65 26.44, -42.19 26.48, -42.91 26.53 M-42.91 26.53 C-43.45 26.6, -43.99 26.67, -44.68 26.76 M-42.91 26.53 C-43.34 26.59, -43.77 26.64, -44.68 26.76 M-44.68 26.76 C-45.21 26.85, -45.75 26.95, -46.42 27.07 M-44.68 26.76 C-45.05 26.83, -45.42 26.89, -46.42 27.07 M-46.42 27.07 C-46.89 27.18, -47.35 27.28, -48.13 27.46 M-46.42 27.07 C-46.92 27.18, -47.41 27.3, -48.13 27.46 M-48.13 27.46 C-48.53 27.58, -48.93 27.69, -49.8 27.94 M-48.13 27.46 C-48.63 27.61, -49.13 27.75, -49.8 27.94 M-49.8 27.94 C-50.2 28.07, -50.59 28.2, -51.44 28.49 M-49.8 27.94 C-50.34 28.12, -50.88 28.3, -51.44 28.49 M-51.44 28.49 C-52.05 28.73, -52.65 28.97, -53.05 29.12 M-51.44 28.49 C-51.86 28.66, -52.29 28.82, -53.05 29.12 M-53.05 29.12 C-53.52 29.34, -54 29.55, -54.61 29.83 M-53.05 29.12 C-53.51 29.33, -53.98 29.55, -54.61 29.83 M-54.61 29.83 C-55.05 30.06, -55.49 30.28, -56.13 30.61 M-54.61 29.83 C-55.03 30.05, -55.45 30.26, -56.13 30.61 M-56.13 30.61 C-56.58 30.87, -57.03 31.12, -57.61 31.46 M-56.13 30.61 C-56.43 30.78, -56.73 30.95, -57.61 31.46 M-57.61 31.46 C-58.02 31.72, -58.42 31.98, -59.04 32.38 M-57.61 31.46 C-58.14 31.8, -58.67 32.14, -59.04 32.38 M-59.04 32.38 C-59.34 32.59, -59.63 32.8, -60.43 33.36 M-59.04 32.38 C-59.46 32.67, -59.88 32.97, -60.43 33.36 M-60.43 33.36 C-60.7 33.57, -60.96 33.78, -61.76 34.41 M-60.43 33.36 C-60.76 33.62, -61.08 33.88, -61.76 34.41 M-61.76 34.41 C-62.21 34.79, -62.65 35.18, -63.04 35.52 M-61.76 34.41 C-62.18 34.77, -62.6 35.14, -63.04 35.52 M-63.04 35.52 C-63.32 35.78, -63.6 36.05, -64.27 36.69 M-63.04 35.52 C-63.36 35.82, -63.68 36.12, -64.27 36.69 M-64.27 36.69 C-64.69 37.12, -65.1 37.56, -65.44 37.91 M-64.27 36.69 C-64.58 37.02, -64.9 37.35, -65.44 37.91 M-65.44 37.91 C-65.75 38.27, -66.06 38.63, -66.55 39.19 M-65.44 37.91 C-65.69 38.21, -65.95 38.51, -66.55 39.19 M-66.55 39.19 C-66.79 39.5, -67.03 39.8, -67.59 40.53 M-66.55 39.19 C-66.95 39.7, -67.35 40.21, -67.59 40.53 M-67.59 40.53 C-67.8 40.82, -68.02 41.12, -68.58 41.91 M-67.59 40.53 C-67.84 40.87, -68.08 41.21, -68.58 41.91 M-68.58 41.91 C-68.84 42.33, -69.11 42.74, -69.49 43.34 M-68.58 41.91 C-68.92 42.45, -69.27 42.99, -69.49 43.34 M-69.49 43.34 C-69.69 43.68, -69.88 44.02, -70.34 44.82 M-69.49 43.34 C-69.71 43.72, -69.93 44.09, -70.34 44.82 M-70.34 44.82 C-70.5 45.13, -70.66 45.44, -71.12 46.34 M-70.34 44.82 C-70.53 45.17, -70.71 45.53, -71.12 46.34 M-71.12 46.34 C-71.3 46.74, -71.48 47.13, -71.83 47.91 M-71.12 46.34 C-71.31 46.75, -71.49 47.15, -71.83 47.91 M-71.83 47.91 C-72.06 48.5, -72.29 49.08, -72.46 49.51 M-71.83 47.91 C-72.08 48.53, -72.32 49.16, -72.46 49.51 M-72.46 49.51 C-72.66 50.09, -72.86 50.68, -73.02 51.15 M-72.46 49.51 C-72.65 50.05, -72.83 50.6, -73.02 51.15 M-73.02 51.15 C-73.17 51.69, -73.32 52.23, -73.49 52.83 M-73.02 51.15 C-73.18 51.74, -73.35 52.33, -73.49 52.83 M-73.49 52.83 C-73.63 53.41, -73.76 54, -73.89 54.54 M-73.49 52.83 C-73.57 53.18, -73.66 53.54, -73.89 54.54 M-73.89 54.54 C-73.99 55.13, -74.1 55.73, -74.2 56.28 M-73.89 54.54 C-73.97 55.02, -74.06 55.51, -74.2 56.28 M-74.2 56.28 C-74.28 56.92, -74.36 57.56, -74.42 58.04 M-74.2 56.28 C-74.26 56.78, -74.32 57.28, -74.42 58.04 M-74.42 58.04 C-74.45 58.48, -74.49 58.91, -74.56 59.84 M-74.42 58.04 C-74.45 58.41, -74.48 58.79, -74.56 59.84 M-74.56 59.84 C-74.57 60.37, -74.58 60.9, -74.6 61.66 M-74.56 59.84 C-74.57 60.24, -74.58 60.64, -74.6 61.66 M-74.6 61.66 C-74.58 62.33, -74.57 63.01, -74.56 63.47 M-74.6 61.66 C-74.59 62.05, -74.58 62.45, -74.56 63.47 M-74.56 63.47 C-74.51 64.11, -74.46 64.75, -74.42 65.27 M-74.56 63.47 C-74.51 64.08, -74.46 64.68, -74.42 65.27 M-74.42 65.27 C-74.37 65.65, -74.32 66.04, -74.2 67.04 M-74.42 65.27 C-74.36 65.75, -74.3 66.22, -74.2 67.04 M-74.2 67.04 C-74.1 67.57, -74.01 68.1, -73.89 68.78 M-74.2 67.04 C-74.13 67.41, -74.06 67.78, -73.89 68.78 M-73.89 68.78 C-73.8 69.13, -73.72 69.49, -73.49 70.48 M-73.89 68.78 C-73.74 69.42, -73.59 70.06, -73.49 70.48 M-73.49 70.48 C-73.38 70.88, -73.26 71.29, -73.02 72.16 M-73.49 70.48 C-73.35 70.99, -73.2 71.5, -73.02 72.16 M-73.02 72.16 C-72.85 72.66, -72.68 73.16, -72.46 73.8 M-73.02 72.16 C-72.9 72.51, -72.78 72.86, -72.46 73.8 M-72.46 73.8 C-72.22 74.42, -71.97 75.04, -71.83 75.41 M-72.46 73.8 C-72.27 74.3, -72.07 74.8, -71.83 75.41 M-71.83 75.41 C-71.68 75.73, -71.54 76.06, -71.12 76.97 M-71.83 75.41 C-71.6 75.91, -71.38 76.41, -71.12 76.97 M-71.12 76.97 C-70.88 77.45, -70.63 77.93, -70.34 78.49 M-71.12 76.97 C-70.96 77.29, -70.8 77.6, -70.34 78.49 M-70.34 78.49 C-70.04 79.02, -69.74 79.54, -69.49 79.97 M-70.34 78.49 C-70.09 78.94, -69.83 79.39, -69.49 79.97 M-69.49 79.97 C-69.18 80.46, -68.87 80.94, -68.58 81.4 M-69.49 79.97 C-69.29 80.3, -69.08 80.62, -68.58 81.4 M-68.58 81.4 C-68.26 81.85, -67.94 82.3, -67.59 82.79 M-68.58 81.4 C-68.36 81.71, -68.14 82.02, -67.59 82.79 M-67.59 82.79 C-67.28 83.18, -66.97 83.57, -66.55 84.12 M-67.59 82.79 C-67.31 83.15, -67.03 83.5, -66.55 84.12 M-66.55 84.12 C-66.29 84.41, -66.04 84.7, -65.44 85.4 M-66.55 84.12 C-66.31 84.39, -66.08 84.66, -65.44 85.4 M-65.44 85.4 C-65.01 85.85, -64.58 86.3, -64.27 86.63 M-65.44 85.4 C-65.1 85.75, -64.76 86.11, -64.27 86.63 M-64.27 86.63 C-63.88 86.99, -63.5 87.36, -63.04 87.79 M-64.27 86.63 C-63.95 86.93, -63.64 87.23, -63.04 87.79 M-63.04 87.79 C-62.69 88.1, -62.33 88.41, -61.76 88.9 M-63.04 87.79 C-62.65 88.14, -62.25 88.48, -61.76 88.9 M-61.76 88.9 C-61.27 89.29, -60.77 89.68, -60.43 89.95 M-61.76 88.9 C-61.48 89.12, -61.2 89.34, -60.43 89.95 M-60.43 89.95 C-60.04 90.23, -59.65 90.5, -59.04 90.93 M-60.43 89.95 C-60.13 90.16, -59.84 90.37, -59.04 90.93 M-59.04 90.93 C-58.57 91.24, -58.1 91.54, -57.61 91.85 M-59.04 90.93 C-58.49 91.29, -57.93 91.65, -57.61 91.85 M-57.61 91.85 C-57.07 92.17, -56.52 92.48, -56.13 92.7 M-57.61 91.85 C-57.1 92.15, -56.59 92.44, -56.13 92.7 M-56.13 92.7 C-55.76 92.89, -55.38 93.09, -54.61 93.48 M-56.13 92.7 C-55.57 92.99, -55.01 93.28, -54.61 93.48 M-54.61 93.48 C-54.18 93.68, -53.74 93.87, -53.05 94.19 M-54.61 93.48 C-54.11 93.71, -53.61 93.93, -53.05 94.19 M-53.05 94.19 C-52.52 94.39, -52 94.6, -51.44 94.82 M-53.05 94.19 C-52.42 94.43, -51.8 94.68, -51.44 94.82 M-51.44 94.82 C-50.99 94.97, -50.54 95.12, -49.8 95.37 M-51.44 94.82 C-51.11 94.93, -50.78 95.04, -49.8 95.37 M-49.8 95.37 C-49.29 95.52, -48.78 95.66, -48.13 95.85 M-49.8 95.37 C-49.21 95.54, -48.61 95.71, -48.13 95.85 M-48.13 95.85 C-47.5 95.99, -46.87 96.14, -46.42 96.24 M-48.13 95.85 C-47.56 95.98, -47 96.11, -46.42 96.24 M-46.42 96.24 C-45.97 96.32, -45.52 96.4, -44.68 96.55 M-46.42 96.24 C-46.02 96.31, -45.62 96.39, -44.68 96.55 M-44.68 96.55 C-44.15 96.62, -43.62 96.69, -42.91 96.78 M-44.68 96.55 C-44.15 96.62, -43.62 96.69, -42.91 96.78 M-42.91 96.78 C-42.55 96.8, -42.19 96.83, -41.12 96.91 M-42.91 96.78 C-42.48 96.81, -42.04 96.84, -41.12 96.91 M-41.12 96.91 C-40.48 96.93, -39.83 96.95, -39.3 96.96 M-41.12 96.91 C-40.45 96.93, -39.79 96.95, -39.3 96.96 M-39.3 96.96 C-39.3 96.96, -39.3 96.96, -39.3 96.96 M-39.3 96.96 C-39.3 96.96, -39.3 96.96, -39.3 96.96 M-39.3 96.96 C-12.08 96.96, 15.14 96.96, 39.26 96.96 M-39.3 96.96 C-19.47 96.96, 0.37 96.96, 39.26 96.96 M39.26 96.96 C39.26 96.96, 39.26 96.96, 39.26 96.96 M39.26 96.96 C39.26 96.96, 39.26 96.96, 39.26 96.96 M39.26 96.96 C39.69 96.95, 40.13 96.94, 41.08 96.91 M39.26 96.96 C39.89 96.94, 40.51 96.93, 41.08 96.91 M41.08 96.91 C41.71 96.87, 42.34 96.82, 42.87 96.78 M41.08 96.91 C41.64 96.87, 42.21 96.83, 42.87 96.78 M42.87 96.78 C43.44 96.71, 44.01 96.63, 44.64 96.55 M42.87 96.78 C43.38 96.71, 43.88 96.65, 44.64 96.55 M44.64 96.55 C45.21 96.45, 45.78 96.35, 46.38 96.24 M44.64 96.55 C45.34 96.43, 46.03 96.31, 46.38 96.24 M46.38 96.24 C46.77 96.15, 47.16 96.06, 48.09 95.85 M46.38 96.24 C47.04 96.09, 47.7 95.94, 48.09 95.85 M48.09 95.85 C48.46 95.74, 48.83 95.64, 49.76 95.37 M48.09 95.85 C48.59 95.71, 49.08 95.57, 49.76 95.37 M49.76 95.37 C50.3 95.19, 50.84 95.01, 51.41 94.82 M49.76 95.37 C50.12 95.25, 50.48 95.13, 51.41 94.82 M51.41 94.82 C51.84 94.65, 52.27 94.48, 53.01 94.19 M51.41 94.82 C51.74 94.69, 52.08 94.56, 53.01 94.19 M53.01 94.19 C53.52 93.95, 54.04 93.72, 54.57 93.48 M53.01 94.19 C53.35 94.04, 53.68 93.88, 54.57 93.48 M54.57 93.48 C54.95 93.29, 55.32 93.1, 56.1 92.7 M54.57 93.48 C54.88 93.32, 55.19 93.17, 56.1 92.7 M56.1 92.7 C56.5 92.47, 56.91 92.24, 57.57 91.85 M56.1 92.7 C56.5 92.47, 56.9 92.24, 57.57 91.85 M57.57 91.85 C57.95 91.61, 58.34 91.36, 59.01 90.93 M57.57 91.85 C57.86 91.67, 58.15 91.49, 59.01 90.93 M59.01 90.93 C59.48 90.6, 59.96 90.26, 60.39 89.95 M59.01 90.93 C59.49 90.59, 59.97 90.25, 60.39 89.95 M60.39 89.95 C60.9 89.55, 61.4 89.16, 61.72 88.9 M60.39 89.95 C60.92 89.54, 61.45 89.12, 61.72 88.9 M61.72 88.9 C62.06 88.61, 62.39 88.32, 63 87.79 M61.72 88.9 C62.06 88.61, 62.4 88.31, 63 87.79 M63 87.79 C63.46 87.36, 63.92 86.92, 64.23 86.63 M63 87.79 C63.3 87.51, 63.6 87.23, 64.23 86.63 M64.23 86.63 C64.56 86.28, 64.88 85.94, 65.4 85.4 M64.23 86.63 C64.59 86.25, 64.95 85.87, 65.4 85.4 M65.4 85.4 C65.82 84.92, 66.24 84.43, 66.51 84.12 M65.4 85.4 C65.68 85.08, 65.96 84.75, 66.51 84.12 M66.51 84.12 C66.92 83.59, 67.33 83.07, 67.56 82.79 M66.51 84.12 C66.74 83.83, 66.97 83.53, 67.56 82.79 M67.56 82.79 C67.8 82.44, 68.05 82.09, 68.54 81.4 M67.56 82.79 C67.76 82.5, 67.96 82.21, 68.54 81.4 M68.54 81.4 C68.85 80.92, 69.16 80.43, 69.46 79.97 M68.54 81.4 C68.73 81.1, 68.93 80.8, 69.46 79.97 M69.46 79.97 C69.79 79.39, 70.13 78.8, 70.31 78.49 M69.46 79.97 C69.75 79.46, 70.04 78.96, 70.31 78.49 M70.31 78.49 C70.6 77.91, 70.9 77.34, 71.09 76.97 M70.31 78.49 C70.58 77.95, 70.86 77.41, 71.09 76.97 M71.09 76.97 C71.33 76.43, 71.58 75.88, 71.79 75.41 M71.09 76.97 C71.34 76.4, 71.6 75.83, 71.79 75.41 M71.79 75.41 C72 74.88, 72.2 74.36, 72.42 73.8 M71.79 75.41 C72.03 74.79, 72.27 74.18, 72.42 73.8 M72.42 73.8 C72.64 73.17, 72.85 72.54, 72.98 72.16 M72.42 73.8 C72.55 73.42, 72.68 73.03, 72.98 72.16 M72.98 72.16 C73.13 71.62, 73.28 71.09, 73.45 70.48 M72.98 72.16 C73.12 71.67, 73.25 71.19, 73.45 70.48 M73.45 70.48 C73.58 69.94, 73.71 69.39, 73.85 68.78 M73.45 70.48 C73.6 69.83, 73.76 69.18, 73.85 68.78 M73.85 68.78 C73.92 68.35, 74 67.92, 74.16 67.04 M73.85 68.78 C73.95 68.19, 74.06 67.6, 74.16 67.04 M74.16 67.04 C74.23 66.5, 74.29 65.96, 74.38 65.27 M74.16 67.04 C74.22 66.51, 74.29 65.98, 74.38 65.27 M74.38 65.27 C74.43 64.69, 74.47 64.12, 74.52 63.47 M74.38 65.27 C74.42 64.82, 74.45 64.38, 74.52 63.47 M74.52 63.47 C74.53 63.07, 74.54 62.66, 74.56 61.66 M74.52 63.47 C74.53 62.86, 74.55 62.25, 74.56 61.66 M74.56 61.66 C74.55 61.1, 74.54 60.55, 74.52 59.84 M74.56 61.66 C74.55 61.29, 74.54 60.92, 74.52 59.84 M74.52 59.84 C74.48 59.29, 74.43 58.74, 74.38 58.04 M74.52 59.84 C74.48 59.29, 74.43 58.74, 74.38 58.04 M74.38 58.04 C74.32 57.53, 74.25 57.03, 74.16 56.28 M74.38 58.04 C74.33 57.61, 74.27 57.17, 74.16 56.28 M74.16 56.28 C74.06 55.73, 73.96 55.19, 73.85 54.54 M74.16 56.28 C74.07 55.77, 73.98 55.26, 73.85 54.54 M73.85 54.54 C73.73 54.02, 73.61 53.49, 73.45 52.83 M73.85 54.54 C73.73 54.04, 73.62 53.54, 73.45 52.83 M73.45 52.83 C73.29 52.25, 73.13 51.67, 72.98 51.15 M73.45 52.83 C73.35 52.45, 73.24 52.06, 72.98 51.15 M72.98 51.15 C72.8 50.62, 72.62 50.09, 72.42 49.51 M72.98 51.15 C72.81 50.64, 72.63 50.14, 72.42 49.51 M72.42 49.51 C72.27 49.13, 72.12 48.74, 71.79 47.91 M72.42 49.51 C72.22 49, 72.02 48.49, 71.79 47.91 M71.79 47.91 C71.61 47.51, 71.43 47.11, 71.09 46.34 M71.79 47.91 C71.56 47.39, 71.32 46.87, 71.09 46.34 M71.09 46.34 C70.79 45.77, 70.5 45.2, 70.31 44.82 M71.09 46.34 C70.9 45.99, 70.72 45.64, 70.31 44.82 M70.31 44.82 C70.02 44.32, 69.73 43.83, 69.46 43.34 M70.31 44.82 C70.09 44.45, 69.88 44.07, 69.46 43.34 M69.46 43.34 C69.22 42.97, 68.97 42.59, 68.54 41.91 M69.46 43.34 C69.19 42.92, 68.92 42.51, 68.54 41.91 M68.54 41.91 C68.19 41.42, 67.84 40.93, 67.56 40.53 M68.54 41.91 C68.31 41.58, 68.07 41.26, 67.56 40.53 M67.56 40.53 C67.18 40.05, 66.81 39.58, 66.51 39.19 M67.56 40.53 C67.25 40.14, 66.95 39.75, 66.51 39.19 M66.51 39.19 C66.26 38.9, 66 38.61, 65.4 37.91 M66.51 39.19 C66.17 38.81, 65.84 38.42, 65.4 37.91 M65.4 37.91 C65.12 37.62, 64.85 37.33, 64.23 36.69 M65.4 37.91 C65.07 37.57, 64.75 37.23, 64.23 36.69 M64.23 36.69 C63.97 36.44, 63.71 36.19, 63 35.52 M64.23 36.69 C63.83 36.3, 63.42 35.92, 63 35.52 M63 35.52 C62.7 35.26, 62.4 35, 61.72 34.41 M63 35.52 C62.53 35.1, 62.05 34.69, 61.72 34.41 M61.72 34.41 C61.32 34.09, 60.92 33.78, 60.39 33.36 M61.72 34.41 C61.36 34.13, 61 33.84, 60.39 33.36 M60.39 33.36 C60.1 33.15, 59.8 32.94, 59.01 32.38 M60.39 33.36 C59.91 33.02, 59.42 32.67, 59.01 32.38 M59.01 32.38 C58.68 32.17, 58.35 31.95, 57.57 31.46 M59.01 32.38 C58.53 32.07, 58.06 31.77, 57.57 31.46 M57.57 31.46 C57.03 31.14, 56.48 30.83, 56.1 30.61 M57.57 31.46 C57.2 31.25, 56.83 31.03, 56.1 30.61 M56.1 30.61 C55.69 30.4, 55.28 30.2, 54.57 29.83 M56.1 30.61 C55.51 30.31, 54.93 30.01, 54.57 29.83 M54.57 29.83 C54.19 29.66, 53.8 29.48, 53.01 29.12 M54.57 29.83 C53.98 29.57, 53.4 29.3, 53.01 29.12 M53.01 29.12 C52.66 28.99, 52.32 28.85, 51.41 28.49 M53.01 29.12 C52.43 28.9, 51.85 28.67, 51.41 28.49 M51.41 28.49 C50.88 28.32, 50.36 28.14, 49.76 27.94 M51.41 28.49 C50.93 28.33, 50.45 28.17, 49.76 27.94 M49.76 27.94 C49.39 27.83, 49.01 27.73, 48.09 27.46 M49.76 27.94 C49.33 27.81, 48.89 27.69, 48.09 27.46 M48.09 27.46 C47.41 27.31, 46.73 27.15, 46.38 27.07 M48.09 27.46 C47.7 27.37, 47.31 27.28, 46.38 27.07 M46.38 27.07 C45.73 26.95, 45.09 26.84, 44.64 26.76 M46.38 27.07 C45.79 26.96, 45.19 26.86, 44.64 26.76 M44.64 26.76 C44.23 26.71, 43.82 26.66, 42.87 26.53 M44.64 26.76 C44.16 26.7, 43.69 26.64, 42.87 26.53 M42.87 26.53 C42.37 26.5, 41.87 26.46, 41.08 26.4 M42.87 26.53 C42.29 26.49, 41.71 26.45, 41.08 26.4 M41.08 26.4 C40.51 26.38, 39.94 26.37, 39.26 26.35 M41.08 26.4 C40.4 26.38, 39.72 26.36, 39.26 26.35 M39.26 26.35 C39.26 26.35, 39.26 26.35, 39.26 26.35 M39.26 26.35 C39.26 26.35, 39.26 26.35, 39.26 26.35 M39.26 26.35 C38.84 26.35, 38.42 26.35, 37.69 26.35 M39.26 26.35 C38.7 26.35, 38.15 26.35, 37.69 26.35 M37.69 26.35 C37.69 26.35, 37.69 26.35, 37.69 26.35 M37.69 26.35 C37.69 26.35, 37.69 26.35, 37.69 26.35 M37.69 26.35 C37.39 25.64, 37.1 24.92, 36.53 23.52 M37.69 26.35 C37.36 25.54, 37.03 24.74, 36.53 23.52 M36.53 23.52 C36.24 22.94, 35.95 22.36, 35.18 20.81 M36.53 23.52 C36.23 22.91, 35.92 22.29, 35.18 20.81 M35.18 20.81 C34.6 19.84, 34.01 18.86, 33.62 18.21 M35.18 20.81 C34.69 20, 34.21 19.19, 33.62 18.21 M33.62 18.21 C33.09 17.47, 32.57 16.72, 31.88 15.75 M33.62 18.21 C33.14 17.53, 32.65 16.84, 31.88 15.75 M31.88 15.75 C31.37 15.13, 30.85 14.5, 29.97 13.43 M31.88 15.75 C31.43 15.21, 30.99 14.67, 29.97 13.43 M29.97 13.43 C29.32 12.76, 28.67 12.08, 27.88 11.26 M29.97 13.43 C29.18 12.62, 28.4 11.8, 27.88 11.26 M27.88 11.26 C27.18 10.63, 26.48 10, 25.64 9.25 M27.88 11.26 C27.17 10.63, 26.46 9.99, 25.64 9.25 M25.64 9.25 C24.97 8.73, 24.29 8.22, 23.25 7.41 M25.64 9.25 C25.13 8.86, 24.62 8.47, 23.25 7.41 M23.25 7.41 C22.7 7.05, 22.14 6.69, 20.72 5.76 M23.25 7.41 C22.52 6.94, 21.79 6.46, 20.72 5.76 M20.72 5.76 C19.67 5.17, 18.61 4.59, 18.07 4.29 M20.72 5.76 C19.79 5.24, 18.85 4.72, 18.07 4.29 M18.07 4.29 C17.41 3.99, 16.75 3.69, 15.3 3.02 M18.07 4.29 C17.13 3.86, 16.19 3.43, 15.3 3.02 M15.3 3.02 C14.21 2.62, 13.12 2.22, 12.41 1.96 M15.3 3.02 C14.68 2.79, 14.06 2.56, 12.41 1.96 M12.41 1.96 C11.36 1.66, 10.3 1.36, 9.43 1.12 M12.41 1.96 C11.46 1.69, 10.51 1.42, 9.43 1.12 M9.43 1.12 C8.58 0.94, 7.73 0.77, 6.37 0.5 M9.43 1.12 C8.57 0.94, 7.71 0.77, 6.37 0.5 M6.37 0.5 C5.42 0.39, 4.48 0.28, 3.22 0.13 M6.37 0.5 C5.27 0.37, 4.18 0.24, 3.22 0.13 M3.22 0.13 C2.27 0.09, 1.32 0.05, 0 0 M3.22 0.13 C2.25 0.09, 1.28 0.05, 0 0 M0 0 C0 0, 0 0, 0 0 M0 0 C0 0, 0 0, 0 0 M0 0 C0 0, 0 0, 0 0 M0 0 C0 0, 0 0, 0 0" stroke="#000000" stroke-width="0.5" fill="none"></path></g></g><mask></mask><g stroke-linecap="round"><g transform="translate(523.963616247901 77.64883877640352) rotate(0 -18.033444539937705 10.645761295054854)" fill-rule="evenodd"><path d="M0 0 L-16.02 -16.02 L-16.02 -16.02 L-16.53 -16.44 L-17.08 -16.73 L-17.68 -16.91 L-18.29 -16.97 L-18.89 -16.91 L-19.49 -16.73 L-20.05 -16.44 L-20.55 -16.02 L-36.03 -0.54 L-36.03 -0.54 L-36.45 -0.03 L-36.75 0.53 L-36.92 1.12 L-36.98 1.73 L-36.92 2.34 L-36.75 2.93 L-36.45 3.49 L-36.03 4 L-35.53 4.41 L-34.97 4.71 L-34.38 4.89 L-33.77 4.95 L-33.16 4.89 L-32.57 4.71 L-32.01 4.41 L-31.5 4 L-21.47 -6.03 L-21.47 35.07 L-21.47 35.07 L-21.41 35.72 L-21.22 36.32 L-20.93 36.86 L-20.54 37.33 L-20.07 37.72 L-19.53 38.01 L-18.93 38.2 L-18.29 38.26 L-17.64 38.2 L-17.04 38.01 L-16.5 37.72 L-16.03 37.33 L-15.64 36.86 L-15.35 36.32 L-15.16 35.72 L-15.1 35.07 L-15.1 -6.03 L-4.57 4.49 L-4.57 4.49 L-4.07 4.9 L-3.51 5.19 L-2.91 5.36 L-2.3 5.42 L-1.7 5.36 L-1.1 5.19 L-0.54 4.9 L-0.04 4.49 L0.38 4 L0.68 3.45 L0.85 2.86 L0.92 2.25 L0.86 1.64 L0.69 1.05 L0.4 0.5 L0 0 L0 0" stroke="none" stroke-width="0" fill="#FFFFFF" fill-rule="evenodd"></path><path d="M0 0 C-5.01 -5.01, -10.01 -10.01, -16.02 -16.02 M0 0 C-5.47 -5.47, -10.94 -10.94, -16.02 -16.02 M-16.02 -16.02 C-16.02 -16.02, -16.02 -16.02, -16.02 -16.02 M-16.02 -16.02 C-16.02 -16.02, -16.02 -16.02, -16.02 -16.02 M-16.02 -16.02 C-16.18 -16.15, -16.34 -16.28, -16.53 -16.44 M-16.02 -16.02 C-16.21 -16.18, -16.41 -16.34, -16.53 -16.44 M-16.53 -16.44 C-16.72 -16.54, -16.91 -16.64, -17.08 -16.73 M-16.53 -16.44 C-16.73 -16.54, -16.93 -16.65, -17.08 -16.73 M-17.08 -16.73 C-17.29 -16.79, -17.49 -16.86, -17.68 -16.91 M-17.08 -16.73 C-17.28 -16.79, -17.47 -16.85, -17.68 -16.91 M-17.68 -16.91 C-17.88 -16.93, -18.09 -16.95, -18.29 -16.97 M-17.68 -16.91 C-17.86 -16.93, -18.04 -16.95, -18.29 -16.97 M-18.29 -16.97 C-18.51 -16.95, -18.74 -16.93, -18.89 -16.91 M-18.29 -16.97 C-18.5 -16.95, -18.71 -16.93, -18.89 -16.91 M-18.89 -16.91 C-19.13 -16.84, -19.36 -16.77, -19.49 -16.73 M-18.89 -16.91 C-19.08 -16.86, -19.26 -16.8, -19.49 -16.73 M-19.49 -16.73 C-19.66 -16.64, -19.82 -16.55, -20.05 -16.44 M-19.49 -16.73 C-19.65 -16.65, -19.81 -16.56, -20.05 -16.44 M-20.05 -16.44 C-20.18 -16.32, -20.32 -16.21, -20.55 -16.02 M-20.05 -16.44 C-20.16 -16.34, -20.28 -16.24, -20.55 -16.02 M-20.55 -16.02 C-26.43 -10.14, -32.3 -4.27, -36.03 -0.54 M-20.55 -16.02 C-24.08 -12.49, -27.62 -8.95, -36.03 -0.54 M-36.03 -0.54 C-36.03 -0.54, -36.03 -0.54, -36.03 -0.54 M-36.03 -0.54 C-36.03 -0.54, -36.03 -0.54, -36.03 -0.54 M-36.03 -0.54 C-36.19 -0.34, -36.35 -0.15, -36.45 -0.03 M-36.03 -0.54 C-36.17 -0.37, -36.31 -0.2, -36.45 -0.03 M-36.45 -0.03 C-36.55 0.15, -36.64 0.33, -36.75 0.53 M-36.45 -0.03 C-36.52 0.1, -36.59 0.24, -36.75 0.53 M-36.75 0.53 C-36.79 0.67, -36.83 0.81, -36.92 1.12 M-36.75 0.53 C-36.79 0.67, -36.83 0.8, -36.92 1.12 M-36.92 1.12 C-36.94 1.33, -36.96 1.53, -36.98 1.73 M-36.92 1.12 C-36.95 1.34, -36.97 1.57, -36.98 1.73 M-36.98 1.73 C-36.97 1.85, -36.96 1.97, -36.92 2.34 M-36.98 1.73 C-36.97 1.85, -36.96 1.97, -36.92 2.34 M-36.92 2.34 C-36.88 2.49, -36.83 2.64, -36.75 2.93 M-36.92 2.34 C-36.87 2.52, -36.82 2.7, -36.75 2.93 M-36.75 2.93 C-36.67 3.08, -36.59 3.22, -36.45 3.49 M-36.75 2.93 C-36.63 3.15, -36.52 3.36, -36.45 3.49 M-36.45 3.49 C-36.3 3.67, -36.16 3.85, -36.03 4 M-36.45 3.49 C-36.35 3.6, -36.26 3.72, -36.03 4 M-36.03 4 C-35.85 4.14, -35.68 4.29, -35.53 4.41 M-36.03 4 C-35.83 4.16, -35.63 4.33, -35.53 4.41 M-35.53 4.41 C-35.4 4.48, -35.28 4.54, -34.97 4.71 M-35.53 4.41 C-35.31 4.52, -35.1 4.64, -34.97 4.71 M-34.97 4.71 C-34.76 4.77, -34.56 4.83, -34.38 4.89 M-34.97 4.71 C-34.79 4.76, -34.6 4.82, -34.38 4.89 M-34.38 4.89 C-34.25 4.9, -34.13 4.91, -33.77 4.95 M-34.38 4.89 C-34.21 4.9, -34.05 4.92, -33.77 4.95 M-33.77 4.95 C-33.62 4.93, -33.47 4.92, -33.16 4.89 M-33.77 4.95 C-33.62 4.93, -33.46 4.92, -33.16 4.89 M-33.16 4.89 C-32.94 4.82, -32.72 4.75, -32.57 4.71 M-33.16 4.89 C-33.01 4.84, -32.86 4.8, -32.57 4.71 M-32.57 4.71 C-32.34 4.59, -32.12 4.47, -32.01 4.41 M-32.57 4.71 C-32.44 4.64, -32.32 4.58, -32.01 4.41 M-32.01 4.41 C-31.83 4.27, -31.66 4.13, -31.5 4 M-32.01 4.41 C-31.83 4.26, -31.64 4.11, -31.5 4 M-31.5 4 C-28.66 1.15, -25.81 -1.69, -21.47 -6.03 M-31.5 4 C-28.76 1.25, -26.01 -1.49, -21.47 -6.03 M-21.47 -6.03 C-21.47 4.68, -21.47 15.39, -21.47 35.07 M-21.47 -6.03 C-21.47 5.5, -21.47 17.03, -21.47 35.07 M-21.47 35.07 C-21.47 35.07, -21.47 35.07, -21.47 35.07 M-21.47 35.07 C-21.47 35.07, -21.47 35.07, -21.47 35.07 M-21.47 35.07 C-21.46 35.22, -21.45 35.36, -21.41 35.72 M-21.47 35.07 C-21.45 35.31, -21.43 35.55, -21.41 35.72 M-21.41 35.72 C-21.36 35.88, -21.31 36.04, -21.22 36.32 M-21.41 35.72 C-21.34 35.95, -21.26 36.19, -21.22 36.32 M-21.22 36.32 C-21.15 36.45, -21.08 36.58, -20.93 36.86 M-21.22 36.32 C-21.15 36.45, -21.08 36.58, -20.93 36.86 M-20.93 36.86 C-20.84 36.97, -20.75 37.07, -20.54 37.33 M-20.93 36.86 C-20.82 36.99, -20.71 37.13, -20.54 37.33 M-20.54 37.33 C-20.4 37.45, -20.26 37.56, -20.07 37.72 M-20.54 37.33 C-20.37 37.47, -20.19 37.62, -20.07 37.72 M-20.07 37.72 C-19.95 37.78, -19.84 37.85, -19.53 38.01 M-20.07 37.72 C-19.89 37.81, -19.72 37.91, -19.53 38.01 M-19.53 38.01 C-19.36 38.06, -19.19 38.12, -18.93 38.2 M-19.53 38.01 C-19.35 38.07, -19.17 38.12, -18.93 38.2 M-18.93 38.2 C-18.79 38.21, -18.66 38.22, -18.29 38.26 M-18.93 38.2 C-18.75 38.22, -18.56 38.23, -18.29 38.26 M-18.29 38.26 C-18.14 38.25, -17.99 38.23, -17.64 38.2 M-18.29 38.26 C-18.14 38.25, -17.99 38.23, -17.64 38.2 M-17.64 38.2 C-17.45 38.14, -17.26 38.08, -17.04 38.01 M-17.64 38.2 C-17.4 38.12, -17.17 38.05, -17.04 38.01 M-17.04 38.01 C-16.87 37.92, -16.69 37.82, -16.5 37.72 M-17.04 38.01 C-16.92 37.94, -16.79 37.88, -16.5 37.72 M-16.5 37.72 C-16.32 37.57, -16.14 37.42, -16.03 37.33 M-16.5 37.72 C-16.33 37.58, -16.17 37.44, -16.03 37.33 M-16.03 37.33 C-15.92 37.2, -15.82 37.08, -15.64 36.86 M-16.03 37.33 C-15.94 37.22, -15.85 37.12, -15.64 36.86 M-15.64 36.86 C-15.53 36.65, -15.41 36.44, -15.35 36.32 M-15.64 36.86 C-15.55 36.69, -15.45 36.51, -15.35 36.32 M-15.35 36.32 C-15.29 36.12, -15.23 35.93, -15.16 35.72 M-15.35 36.32 C-15.31 36.19, -15.27 36.07, -15.16 35.72 M-15.16 35.72 C-15.15 35.56, -15.13 35.39, -15.1 35.07 M-15.16 35.72 C-15.14 35.52, -15.12 35.32, -15.1 35.07 M-15.1 35.07 C-15.1 24.05, -15.1 13.03, -15.1 -6.03 M-15.1 35.07 C-15.1 25.95, -15.1 16.82, -15.1 -6.03 M-15.1 -6.03 C-12.7 -3.63, -10.3 -1.23, -4.57 4.49 M-15.1 -6.03 C-12.82 -3.75, -10.53 -1.47, -4.57 4.49 M-4.57 4.49 C-4.57 4.49, -4.57 4.49, -4.57 4.49 M-4.57 4.49 C-4.57 4.49, -4.57 4.49, -4.57 4.49 M-4.57 4.49 C-4.41 4.62, -4.26 4.75, -4.07 4.9 M-4.57 4.49 C-4.38 4.65, -4.19 4.8, -4.07 4.9 M-4.07 4.9 C-3.91 4.98, -3.75 5.06, -3.51 5.19 M-4.07 4.9 C-3.91 4.98, -3.75 5.06, -3.51 5.19 M-3.51 5.19 C-3.37 5.23, -3.22 5.27, -2.91 5.36 M-3.51 5.19 C-3.38 5.22, -3.26 5.26, -2.91 5.36 M-2.91 5.36 C-2.78 5.37, -2.65 5.38, -2.3 5.42 M-2.91 5.36 C-2.7 5.38, -2.48 5.4, -2.3 5.42 M-2.3 5.42 C-2.14 5.4, -1.97 5.38, -1.7 5.36 M-2.3 5.42 C-2.07 5.39, -1.84 5.37, -1.7 5.36 M-1.7 5.36 C-1.47 5.29, -1.25 5.23, -1.1 5.19 M-1.7 5.36 C-1.52 5.31, -1.34 5.26, -1.1 5.19 M-1.1 5.19 C-0.97 5.12, -0.84 5.05, -0.54 4.9 M-1.1 5.19 C-0.97 5.12, -0.85 5.06, -0.54 4.9 M-0.54 4.9 C-0.43 4.81, -0.31 4.72, -0.04 4.49 M-0.54 4.9 C-0.4 4.79, -0.26 4.67, -0.04 4.49 M-0.04 4.49 C0.06 4.37, 0.17 4.25, 0.38 4 M-0.04 4.49 C0.1 4.33, 0.24 4.17, 0.38 4 M0.38 4 C0.49 3.79, 0.61 3.57, 0.68 3.45 M0.38 4 C0.47 3.82, 0.57 3.64, 0.68 3.45 M0.68 3.45 C0.71 3.33, 0.75 3.2, 0.85 2.86 M0.68 3.45 C0.74 3.23, 0.81 3.01, 0.85 2.86 M0.85 2.86 C0.87 2.73, 0.88 2.6, 0.92 2.25 M0.85 2.86 C0.87 2.66, 0.89 2.47, 0.92 2.25 M0.92 2.25 C0.9 2.05, 0.88 1.85, 0.86 1.64 M0.92 2.25 C0.9 2.09, 0.89 1.94, 0.86 1.64 M0.86 1.64 C0.8 1.41, 0.73 1.19, 0.69 1.05 M0.86 1.64 C0.82 1.51, 0.78 1.37, 0.69 1.05 M0.69 1.05 C0.59 0.85, 0.48 0.64, 0.4 0.5 M0.69 1.05 C0.58 0.84, 0.48 0.64, 0.4 0.5 M0.4 0.5 C0.27 0.33, 0.14 0.17, 0 0 M0.4 0.5 C0.3 0.37, 0.2 0.24, 0 0 M0 0 C0 0, 0 0, 0 0 M0 0 C0 0, 0 0, 0 0 M0 0 C0 0, 0 0, 0 0 M0 0 C0 0, 0 0, 0 0" stroke="#000000" stroke-width="0.5" fill="none"></path></g></g><mask></mask><g stroke-linecap="round"><g transform="translate(508.3671241480897 125.28345593119428) rotate(0 18.019045357582286 -10.645764225887831)" fill-rule="evenodd"><path d="M0 0 L16.02 16.02 L16.02 16.02 L16.53 16.44 L17.08 16.73 L17.68 16.91 L18.29 16.97 L18.89 16.91 L19.49 16.73 L20.05 16.44 L20.55 16.02 L36.03 0.54 L36.03 0.54 L36.45 0.03 L36.75 -0.53 L36.92 -1.12 L36.98 -1.73 L36.92 -2.34 L36.75 -2.93 L36.45 -3.49 L36.03 -4 L35.53 -4.41 L34.97 -4.71 L34.38 -4.89 L33.77 -4.95 L33.16 -4.89 L32.57 -4.71 L32.01 -4.41 L31.5 -4 L21.47 6.03 L21.47 -35.07 L21.47 -35.07 L21.41 -35.72 L21.22 -36.32 L20.93 -36.86 L20.54 -37.33 L20.07 -37.72 L19.53 -38.01 L18.93 -38.2 L18.29 -38.26 L17.64 -38.2 L17.04 -38.01 L16.5 -37.72 L16.03 -37.33 L15.64 -36.86 L15.35 -36.32 L15.16 -35.72 L15.1 -35.07 L15.1 6.03 L4.57 -4.49 L4.57 -4.49 L4.07 -4.9 L3.51 -5.19 L2.91 -5.36 L2.3 -5.42 L1.7 -5.36 L1.1 -5.19 L0.54 -4.9 L0.04 -4.49 L-0.39 -4 L-0.7 -3.45 L-0.88 -2.87 L-0.95 -2.26 L-0.89 -1.66 L-0.71 -1.06 L-0.42 -0.51 L0 0 L0 0" stroke="none" stroke-width="0" fill="#4285F4" fill-rule="evenodd"></path><path d="M0 0 C3.77 3.77, 7.53 7.53, 16.02 16.02 M0 0 C6.34 6.34, 12.69 12.69, 16.02 16.02 M16.02 16.02 C16.02 16.02, 16.02 16.02, 16.02 16.02 M16.02 16.02 C16.02 16.02, 16.02 16.02, 16.02 16.02 M16.02 16.02 C16.17 16.14, 16.32 16.27, 16.53 16.44 M16.02 16.02 C16.16 16.14, 16.3 16.25, 16.53 16.44 M16.53 16.44 C16.64 16.5, 16.76 16.56, 17.08 16.73 M16.53 16.44 C16.71 16.53, 16.9 16.63, 17.08 16.73 M17.08 16.73 C17.26 16.78, 17.43 16.84, 17.68 16.91 M17.08 16.73 C17.21 16.77, 17.35 16.81, 17.68 16.91 M17.68 16.91 C17.8 16.92, 17.92 16.93, 18.29 16.97 M17.68 16.91 C17.9 16.93, 18.12 16.95, 18.29 16.97 M18.29 16.97 C18.5 16.95, 18.71 16.93, 18.89 16.91 M18.29 16.97 C18.47 16.95, 18.65 16.93, 18.89 16.91 M18.89 16.91 C19.11 16.84, 19.33 16.78, 19.49 16.73 M18.89 16.91 C19.03 16.87, 19.16 16.83, 19.49 16.73 M19.49 16.73 C19.7 16.62, 19.91 16.51, 20.05 16.44 M19.49 16.73 C19.64 16.65, 19.8 16.57, 20.05 16.44 M20.05 16.44 C20.18 16.32, 20.32 16.21, 20.55 16.02 M20.05 16.44 C20.2 16.31, 20.36 16.18, 20.55 16.02 M20.55 16.02 C26.52 10.05, 32.48 4.09, 36.03 0.54 M20.55 16.02 C26.2 10.37, 31.85 4.72, 36.03 0.54 M36.03 0.54 C36.03 0.54, 36.03 0.54, 36.03 0.54 M36.03 0.54 C36.03 0.54, 36.03 0.54, 36.03 0.54 M36.03 0.54 C36.18 0.36, 36.32 0.19, 36.45 0.03 M36.03 0.54 C36.13 0.42, 36.23 0.3, 36.45 0.03 M36.45 0.03 C36.56 -0.18, 36.67 -0.39, 36.75 -0.53 M36.45 0.03 C36.56 -0.18, 36.67 -0.39, 36.75 -0.53 M36.75 -0.53 C36.81 -0.74, 36.87 -0.95, 36.92 -1.12 M36.75 -0.53 C36.79 -0.67, 36.83 -0.81, 36.92 -1.12 M36.92 -1.12 C36.95 -1.35, 36.97 -1.59, 36.98 -1.73 M36.92 -1.12 C36.94 -1.27, 36.95 -1.42, 36.98 -1.73 M36.98 -1.73 C36.97 -1.88, 36.95 -2.04, 36.92 -2.34 M36.98 -1.73 C36.96 -1.96, 36.94 -2.18, 36.92 -2.34 M36.92 -2.34 C36.87 -2.53, 36.81 -2.73, 36.75 -2.93 M36.92 -2.34 C36.87 -2.51, 36.82 -2.69, 36.75 -2.93 M36.75 -2.93 C36.68 -3.05, 36.62 -3.18, 36.45 -3.49 M36.75 -2.93 C36.66 -3.1, 36.57 -3.27, 36.45 -3.49 M36.45 -3.49 C36.34 -3.62, 36.24 -3.75, 36.03 -4 M36.45 -3.49 C36.36 -3.6, 36.27 -3.71, 36.03 -4 M36.03 -4 C35.85 -4.15, 35.67 -4.3, 35.53 -4.41 M36.03 -4 C35.86 -4.14, 35.68 -4.29, 35.53 -4.41 M35.53 -4.41 C35.34 -4.51, 35.15 -4.61, 34.97 -4.71 M35.53 -4.41 C35.31 -4.52, 35.1 -4.64, 34.97 -4.71 M34.97 -4.71 C34.77 -4.77, 34.58 -4.83, 34.38 -4.89 M34.97 -4.71 C34.78 -4.76, 34.6 -4.82, 34.38 -4.89 M34.38 -4.89 C34.19 -4.9, 34.01 -4.92, 33.77 -4.95 M34.38 -4.89 C34.13 -4.91, 33.89 -4.93, 33.77 -4.95 M33.77 -4.95 C33.57 -4.93, 33.38 -4.91, 33.16 -4.89 M33.77 -4.95 C33.62 -4.93, 33.47 -4.92, 33.16 -4.89 M33.16 -4.89 C33.04 -4.85, 32.92 -4.81, 32.57 -4.71 M33.16 -4.89 C32.95 -4.82, 32.74 -4.76, 32.57 -4.71 M32.57 -4.71 C32.43 -4.64, 32.29 -4.56, 32.01 -4.41 M32.57 -4.71 C32.42 -4.63, 32.28 -4.56, 32.01 -4.41 M32.01 -4.41 C31.89 -4.31, 31.77 -4.22, 31.5 -4 M32.01 -4.41 C31.8 -4.25, 31.6 -4.08, 31.5 -4 M31.5 -4 C27.74 -0.24, 23.99 3.52, 21.47 6.03 M31.5 -4 C28.28 -0.78, 25.07 2.44, 21.47 6.03 M21.47 6.03 C21.47 -7.5, 21.47 -21.03, 21.47 -35.07 M21.47 6.03 C21.47 -7.85, 21.47 -21.74, 21.47 -35.07 M21.47 -35.07 C21.47 -35.07, 21.47 -35.07, 21.47 -35.07 M21.47 -35.07 C21.47 -35.07, 21.47 -35.07, 21.47 -35.07 M21.47 -35.07 C21.45 -35.3, 21.43 -35.53, 21.41 -35.72 M21.47 -35.07 C21.46 -35.23, 21.44 -35.39, 21.41 -35.72 M21.41 -35.72 C21.34 -35.95, 21.26 -36.19, 21.22 -36.32 M21.41 -35.72 C21.36 -35.87, 21.32 -36.02, 21.22 -36.32 M21.22 -36.32 C21.13 -36.49, 21.04 -36.66, 20.93 -36.86 M21.22 -36.32 C21.15 -36.45, 21.08 -36.59, 20.93 -36.86 M20.93 -36.86 C20.82 -37, 20.7 -37.13, 20.54 -37.33 M20.93 -36.86 C20.78 -37.04, 20.63 -37.22, 20.54 -37.33 M20.54 -37.33 C20.37 -37.47, 20.19 -37.62, 20.07 -37.72 M20.54 -37.33 C20.38 -37.47, 20.21 -37.6, 20.07 -37.72 M20.07 -37.72 C19.95 -37.78, 19.83 -37.85, 19.53 -38.01 M20.07 -37.72 C19.9 -37.81, 19.74 -37.9, 19.53 -38.01 M19.53 -38.01 C19.3 -38.08, 19.07 -38.15, 18.93 -38.2 M19.53 -38.01 C19.4 -38.05, 19.28 -38.09, 18.93 -38.2 M18.93 -38.2 C18.71 -38.22, 18.5 -38.24, 18.29 -38.26 M18.93 -38.2 C18.73 -38.22, 18.52 -38.24, 18.29 -38.26 M18.29 -38.26 C18.04 -38.24, 17.79 -38.21, 17.64 -38.2 M18.29 -38.26 C18.06 -38.24, 17.84 -38.22, 17.64 -38.2 M17.64 -38.2 C17.45 -38.14, 17.26 -38.08, 17.04 -38.01 M17.64 -38.2 C17.43 -38.13, 17.21 -38.06, 17.04 -38.01 M17.04 -38.01 C16.87 -37.92, 16.69 -37.82, 16.5 -37.72 M17.04 -38.01 C16.86 -37.91, 16.68 -37.81, 16.5 -37.72 M16.5 -37.72 C16.4 -37.64, 16.31 -37.56, 16.03 -37.33 M16.5 -37.72 C16.38 -37.62, 16.26 -37.52, 16.03 -37.33 M16.03 -37.33 C15.91 -37.19, 15.8 -37.05, 15.64 -36.86 M16.03 -37.33 C15.94 -37.22, 15.84 -37.1, 15.64 -36.86 M15.64 -36.86 C15.54 -36.67, 15.44 -36.49, 15.35 -36.32 M15.64 -36.86 C15.56 -36.71, 15.48 -36.56, 15.35 -36.32 M15.35 -36.32 C15.28 -36.11, 15.22 -35.91, 15.16 -35.72 M15.35 -36.32 C15.28 -36.1, 15.22 -35.89, 15.16 -35.72 M15.16 -35.72 C15.15 -35.56, 15.13 -35.4, 15.1 -35.07 M15.16 -35.72 C15.14 -35.48, 15.11 -35.24, 15.1 -35.07 M15.1 -35.07 C15.1 -25.97, 15.1 -16.87, 15.1 6.03 M15.1 -35.07 C15.1 -24.41, 15.1 -13.75, 15.1 6.03 M15.1 6.03 C11.49 2.43, 7.89 -1.17, 4.57 -4.49 M15.1 6.03 C11.61 2.54, 8.12 -0.95, 4.57 -4.49 M4.57 -4.49 C4.57 -4.49, 4.57 -4.49, 4.57 -4.49 M4.57 -4.49 C4.57 -4.49, 4.57 -4.49, 4.57 -4.49 M4.57 -4.49 C4.46 -4.58, 4.36 -4.67, 4.07 -4.9 M4.57 -4.49 C4.46 -4.59, 4.34 -4.68, 4.07 -4.9 M4.07 -4.9 C3.93 -4.97, 3.78 -5.05, 3.51 -5.19 M4.07 -4.9 C3.95 -4.96, 3.82 -5.03, 3.51 -5.19 M3.51 -5.19 C3.29 -5.25, 3.06 -5.32, 2.91 -5.36 M3.51 -5.19 C3.28 -5.25, 3.04 -5.32, 2.91 -5.36 M2.91 -5.36 C2.77 -5.37, 2.62 -5.39, 2.3 -5.42 M2.91 -5.36 C2.7 -5.38, 2.5 -5.4, 2.3 -5.42 M2.3 -5.42 C2.14 -5.4, 1.98 -5.39, 1.7 -5.36 M2.3 -5.42 C2.18 -5.4, 2.05 -5.39, 1.7 -5.36 M1.7 -5.36 C1.51 -5.31, 1.33 -5.25, 1.1 -5.19 M1.7 -5.36 C1.48 -5.3, 1.27 -5.24, 1.1 -5.19 M1.1 -5.19 C0.94 -5.1, 0.77 -5.02, 0.54 -4.9 M1.1 -5.19 C0.92 -5.09, 0.73 -5, 0.54 -4.9 M0.54 -4.9 C0.38 -4.77, 0.21 -4.64, 0.04 -4.49 M0.54 -4.9 C0.36 -4.76, 0.19 -4.61, 0.04 -4.49 M0.04 -4.49 C-0.12 -4.31, -0.27 -4.13, -0.39 -4 M0.04 -4.49 C-0.08 -4.36, -0.19 -4.23, -0.39 -4 M-0.39 -4 C-0.48 -3.85, -0.56 -3.69, -0.7 -3.45 M-0.39 -4 C-0.47 -3.85, -0.56 -3.7, -0.7 -3.45 M-0.7 -3.45 C-0.76 -3.25, -0.83 -3.04, -0.88 -2.87 M-0.7 -3.45 C-0.74 -3.33, -0.78 -3.2, -0.88 -2.87 M-0.88 -2.87 C-0.9 -2.68, -0.92 -2.49, -0.95 -2.26 M-0.88 -2.87 C-0.9 -2.67, -0.92 -2.47, -0.95 -2.26 M-0.95 -2.26 C-0.93 -2.11, -0.92 -1.95, -0.89 -1.66 M-0.95 -2.26 C-0.92 -2.02, -0.9 -1.79, -0.89 -1.66 M-0.89 -1.66 C-0.84 -1.49, -0.79 -1.32, -0.71 -1.06 M-0.89 -1.66 C-0.82 -1.42, -0.75 -1.19, -0.71 -1.06 M-0.71 -1.06 C-0.65 -0.95, -0.59 -0.83, -0.42 -0.51 M-0.71 -1.06 C-0.62 -0.89, -0.53 -0.72, -0.42 -0.51 M-0.42 -0.51 C-0.33 -0.4, -0.25 -0.3, 0 0 M-0.42 -0.51 C-0.33 -0.4, -0.25 -0.3, 0 0 M0 0 C0 0, 0 0, 0 0 M0 0 C0 0, 0 0, 0 0 M0 0 C0 0, 0 0, 0 0 M0 0 C0 0, 0 0, 0 0" stroke="#000000" stroke-width="0.5" fill="none"></path></g></g><mask></mask><g transform="translate(391.3431473487267 117.28577805585013) rotate(0 44.384397691402796 12.08906365708242)"><text x="0" y="17.7660780952334" font-family="Helvetica, sans-serif, Segoe UI Emoji" font-size="21.0244585340564px" fill="#ffffff" text-anchor="start" style="white-space: pre;" direction="ltr" dominant-baseline="alphabetic">ROUTER</text></g><g stroke-linecap="round"><g transform="translate(85.11238701080856 638.540932474481) rotate(0 0.00000163517592000062 29.506469608178634)" fill-rule="evenodd"><path d="M0 0 L24.39 0 L24.39 -24.39 L-18.29 -24.39 L-18.29 -24.39 L-22.6 -22.6 L-24.39 -18.29 L-24.39 79.25 L-24.39 79.25 L-22.68 83.4 L0 60.96 L0 0" stroke="none" stroke-width="0" fill="#aecbfa" fill-rule="evenodd"></path><path d="M0 0 C9.03 0, 18.05 0, 24.39 0 M0 0 C7.41 0, 14.82 0, 24.39 0 M24.39 0 C24.39 -7.26, 24.39 -14.51, 24.39 -24.39 M24.39 0 C24.39 -5.89, 24.39 -11.78, 24.39 -24.39 M24.39 -24.39 C15.53 -24.39, 6.67 -24.39, -18.29 -24.39 M24.39 -24.39 C9.33 -24.39, -5.73 -24.39, -18.29 -24.39 M-18.29 -24.39 C-18.29 -24.39, -18.29 -24.39, -18.29 -24.39 M-18.29 -24.39 C-18.29 -24.39, -18.29 -24.39, -18.29 -24.39 M-18.29 -24.39 C-19.57 -23.86, -20.85 -23.33, -22.6 -22.6 M-18.29 -24.39 C-19.97 -23.69, -21.66 -22.99, -22.6 -22.6 M-22.6 -22.6 C-23.16 -21.24, -23.73 -19.87, -24.39 -18.29 M-22.6 -22.6 C-23.19 -21.18, -23.78 -19.75, -24.39 -18.29 M-24.39 -18.29 C-24.39 5.83, -24.39 29.95, -24.39 79.25 M-24.39 -18.29 C-24.39 3.03, -24.39 24.36, -24.39 79.25 M-24.39 79.25 C-24.39 79.25, -24.39 79.25, -24.39 79.25 M-24.39 79.25 C-24.39 79.25, -24.39 79.25, -24.39 79.25 M-24.39 79.25 C-23.82 80.62, -23.26 81.99, -22.68 83.4 M-24.39 79.25 C-23.75 80.8, -23.11 82.35, -22.68 83.4 M-22.68 83.4 C-16.96 77.74, -11.25 72.09, 0 60.96 M-22.68 83.4 C-17.63 78.4, -12.58 73.41, 0 60.96 M0 60.96 C0 44.01, 0 27.06, 0 0 M0 60.96 C0 40.67, 0 20.37, 0 0 M0 0 C0 0, 0 0, 0 0 M0 0 C0 0, 0 0, 0 0" stroke="#000000" stroke-width="1" fill="none"></path></g></g><mask></mask><g stroke-linecap="round"><g transform="translate(146.07616742723542 699.5047085304396) rotate(0 12.19275695537931 -0.8534920711780387)" fill-rule="evenodd"><path d="M0 0 L22.68 22.68 L22.68 22.68 L24.39 18.29 L24.39 -24.39 L0 -24.39 L0 0" stroke="none" stroke-width="0" fill="#4285f4" fill-rule="evenodd"></path><path d="M0 0 C8.17 8.17, 16.35 16.35, 22.68 22.68 M0 0 C5.65 5.65, 11.3 11.3, 22.68 22.68 M22.68 22.68 C22.68 22.68, 22.68 22.68, 22.68 22.68 M22.68 22.68 C22.68 22.68, 22.68 22.68, 22.68 22.68 M22.68 22.68 C23.08 21.66, 23.47 20.64, 24.39 18.29 M22.68 22.68 C23.24 21.24, 23.79 19.81, 24.39 18.29 M24.39 18.29 C24.39 4.95, 24.39 -8.38, 24.39 -24.39 M24.39 18.29 C24.39 5.99, 24.39 -6.31, 24.39 -24.39 M24.39 -24.39 C18.66 -24.39, 12.94 -24.39, 0 -24.39 M24.39 -24.39 C17.1 -24.39, 9.81 -24.39, 0 -24.39 M0 -24.39 C0 -16.96, 0 -9.53, 0 0 M0 -24.39 C0 -19.25, 0 -14.11, 0 0 M0 0 C0 0, 0 0, 0 0 M0 0 C0 0, 0 0, 0 0" stroke="#000000" stroke-width="1" fill="none"></path></g></g><mask></mask><g stroke-linecap="round"><g transform="translate(180.8864817107078 603.669650111169) rotate(0 -10.42480473318426 23.53201965934602)" fill-rule="evenodd"><path d="M0 0 L-22.62 22.68 L-22.62 22.68 L-22.62 47.06 L1.77 47.06 L1.77 4.39 L1.77 4.39 L0 0 L0 0" stroke="none" stroke-width="0" fill="#669df6" fill-rule="evenodd"></path><path d="M0 0 C-6.9 6.91, -13.79 13.83, -22.62 22.68 M0 0 C-8.34 8.36, -16.68 16.73, -22.62 22.68 M-22.62 22.68 C-22.62 22.68, -22.62 22.68, -22.62 22.68 M-22.62 22.68 C-22.62 22.68, -22.62 22.68, -22.62 22.68 M-22.62 22.68 C-22.62 29.94, -22.62 37.21, -22.62 47.06 M-22.62 22.68 C-22.62 30.1, -22.62 37.51, -22.62 47.06 M-22.62 47.06 C-16.67 47.06, -10.73 47.06, 1.77 47.06 M-22.62 47.06 C-15.13 47.06, -7.63 47.06, 1.77 47.06 M1.77 47.06 C1.77 37.94, 1.77 28.81, 1.77 4.39 M1.77 47.06 C1.77 35.4, 1.77 23.73, 1.77 4.39 M1.77 4.39 C1.77 4.39, 1.77 4.39, 1.77 4.39 M1.77 4.39 C1.77 4.39, 1.77 4.39, 1.77 4.39 M1.77 4.39 C1.24 3.08, 0.71 1.76, 0 0 M1.77 4.39 C1.34 3.34, 0.92 2.29, 0 0 M0 0 C0 0, 0 0, 0 0 M0 0 C0 0, 0 0, 0 0 M0 0 C0 0, 0 0, 0 0 M0 0 C0 0, 0 0, 0 0" stroke="#000000" stroke-width="1" fill="none"></path></g></g><mask></mask><g stroke-linecap="round"><g transform="translate(158.26892002214345 626.3481755191011) rotate(0 -0.8534920711780387 -12.19275532020339)" fill-rule="evenodd"><path d="M0 0 L22.68 -22.68 L22.68 -22.68 L18.29 -24.39 L-24.39 -24.39 L-24.39 0 L0 0" stroke="none" stroke-width="0" fill="#aecbfa" fill-rule="evenodd"></path><path d="M0 0 C5.17 -5.17, 10.35 -10.35, 22.68 -22.68 M0 0 C7.99 -7.99, 15.99 -15.99, 22.68 -22.68 M22.68 -22.68 C22.68 -22.68, 22.68 -22.68, 22.68 -22.68 M22.68 -22.68 C22.68 -22.68, 22.68 -22.68, 22.68 -22.68 M22.68 -22.68 C21 -23.33, 19.32 -23.98, 18.29 -24.39 M22.68 -22.68 C21.16 -23.27, 19.65 -23.86, 18.29 -24.39 M18.29 -24.39 C5.15 -24.39, -7.98 -24.39, -24.39 -24.39 M18.29 -24.39 C9.65 -24.39, 1.02 -24.39, -24.39 -24.39 M-24.39 -24.39 C-24.39 -17.84, -24.39 -11.3, -24.39 0 M-24.39 -24.39 C-24.39 -18.41, -24.39 -12.43, -24.39 0 M-24.39 0 C-18.31 0, -12.24 0, 0 0 M-24.39 0 C-15.34 0, -6.3 0, 0 0 M0 0 C0 0, 0 0, 0 0 M0 0 C0 0, 0 0, 0 0" stroke="#000000" stroke-width="1" fill="none"></path></g></g><mask></mask><g stroke-linecap="round"><g transform="translate(60.72687637040167 723.890222441198) rotate(0 54.867402483796354 -12.19275695537931)" fill-rule="evenodd"><path d="M0 0 L24.39 -24.39 L85.35 -24.39 L109.73 0 L0 0 L0 0" stroke="none" stroke-width="0" fill="#669df6" fill-rule="evenodd"></path><path d="M0 0 C5.39 -5.39, 10.78 -10.78, 24.39 -24.39 M0 0 C8.81 -8.81, 17.63 -17.63, 24.39 -24.39 M24.39 -24.39 C45.83 -24.39, 67.27 -24.39, 85.35 -24.39 M24.39 -24.39 C45.04 -24.39, 65.68 -24.39, 85.35 -24.39 M85.35 -24.39 C94.65 -15.08, 103.96 -5.78, 109.73 0 M85.35 -24.39 C93.41 -16.32, 101.48 -8.26, 109.73 0 M109.73 0 C75.15 0, 40.57 0, 0 0 M109.73 0 C76.52 0, 43.31 0, 0 0 M0 0 C0 0, 0 0, 0 0 M0 0 C0 0, 0 0, 0 0 M0 0 C0 0, 0 0, 0 0 M0 0 C0 0, 0 0, 0 0" stroke="#000000" stroke-width="1" fill="none"></path></g></g><mask></mask><g transform="translate(15.631551393050813 733.7860063438249) rotate(0 103.96738466975398 35.849397243967985)"><text x="103.96738466975401" y="17.626813519473636" font-family="Helvetica, sans-serif, Segoe UI Emoji" font-size="21.0244585340564px" fill="#ffffff" text-anchor="middle" style="white-space: pre;" direction="ltr" dominant-baseline="alphabetic">CONTENEDOR LXC  </text><text x="103.96738466975401" y="41.52641168211896" font-family="Helvetica, sans-serif, Segoe UI Emoji" font-size="21.0244585340564px" fill="#ffffff" text-anchor="middle" style="white-space: pre;" direction="ltr" dominant-baseline="alphabetic">OPENWRT</text><text x="103.96738466975401" y="65.42600984476428" font-family="Helvetica, sans-serif, Segoe UI Emoji" font-size="21.0244585340564px" fill="#ffffff" text-anchor="middle" style="white-space: pre;" direction="ltr" dominant-baseline="alphabetic"> RIPE ATLAS</text></g><g stroke-linecap="round"><g transform="translate(831.9707929074864 611.1719875141102) rotate(0 -122.87899291839085 -125.81563835292269)"><path d="M0 0 C-40.96 -41.94, -204.8 -209.69, -245.76 -251.63" stroke="#ffffff" stroke-width="2.5" fill="none" stroke-dasharray="1.5 8"></path></g><g transform="translate(831.9707929074864 611.1719875141102) rotate(0 -122.87899291839085 -125.81563835292269)"><path d="M-22.53 -10.83 C-15.7 -7.55, -8.86 -4.26, 0 0" stroke="#ffffff" stroke-width="2.5" fill="none" stroke-dasharray="1.5 6"></path></g><g transform="translate(831.9707929074864 611.1719875141102) rotate(0 -122.87899291839085 -125.81563835292269)"><path d="M-10.3 -22.78 C-7.17 -15.87, -4.05 -8.96, 0 0" stroke="#ffffff" stroke-width="2.5" fill="none" stroke-dasharray="1.5 6"></path></g><g transform="translate(831.9707929074864 611.1719875141102) rotate(0 -122.87899291839085 -125.81563835292269)"><path d="M-223.23 -240.8 C-230.06 -244.08, -236.9 -247.37, -245.76 -251.63" stroke="#ffffff" stroke-width="2.5" fill="none" stroke-dasharray="1.5 6"></path></g><g transform="translate(831.9707929074864 611.1719875141102) rotate(0 -122.87899291839085 -125.81563835292269)"><path d="M-235.46 -228.85 C-238.58 -235.76, -241.71 -242.67, -245.76 -251.63" stroke="#ffffff" stroke-width="2.5" fill="none" stroke-dasharray="1.5 6"></path></g></g><mask></mask><g stroke-linecap="round"><g transform="translate(427.17422238516133 366.6341520135768) rotate(0 -119.10538400474803 116.9909848100259)"><path d="M0 0 C-39.7 39, -198.51 194.98, -238.21 233.98" stroke="#ffffff" stroke-width="2.5" fill="none" stroke-dasharray="1.5 8"></path></g><g transform="translate(427.17422238516133 366.6341520135768) rotate(0 -119.10538400474803 116.9909848100259)"><path d="M-10.77 22.56 C-7.79 16.33, -4.82 10.1, 0 0" stroke="#ffffff" stroke-width="2.5" fill="none" stroke-dasharray="1.5 6"></path></g><g transform="translate(427.17422238516133 366.6341520135768) rotate(0 -119.10538400474803 116.9909848100259)"><path d="M-22.75 10.36 C-16.47 7.5, -10.18 4.64, 0 0" stroke="#ffffff" stroke-width="2.5" fill="none" stroke-dasharray="1.5 6"></path></g><g transform="translate(427.17422238516133 366.6341520135768) rotate(0 -119.10538400474803 116.9909848100259)"><path d="M-227.44 211.42 C-230.42 217.65, -233.39 223.88, -238.21 233.98" stroke="#ffffff" stroke-width="2.5" fill="none" stroke-dasharray="1.5 6"></path></g><g transform="translate(427.17422238516133 366.6341520135768) rotate(0 -119.10538400474803 116.9909848100259)"><path d="M-215.46 223.62 C-221.74 226.48, -228.03 229.34, -238.21 233.98" stroke="#ffffff" stroke-width="2.5" fill="none" stroke-dasharray="1.5 6"></path></g></g><mask></mask><g transform="translate(605.342100284658 62.5470985153961) rotate(0 52.56114633514096 12.08906365708242)"><text x="0" y="17.7660780952334" font-family="Helvetica, sans-serif, Segoe UI Emoji" font-size="21.0244585340564px" fill="#ffffff" text-anchor="start" style="white-space: pre;" direction="ltr" dominant-baseline="alphabetic">INTERNET</text></g><g transform="translate(815.9573188283068 554.7300377851338) rotate(0 29.786360564728852 12.08906365708242)"><text x="0" y="17.7660780952334" font-family="Helvetica, sans-serif, Segoe UI Emoji" font-size="21.0244585340564px" fill="#ffffff" text-anchor="start" style="white-space: pre;" direction="ltr" dominant-baseline="alphabetic">DHCP</text></g><g transform="translate(606.5185380490448 289.9075857785106) rotate(0 52.00679049488758 24.17812731416487)"><text x="0" y="17.7660780952334" font-family="Helvetica, sans-serif, Segoe UI Emoji" font-size="21.0244585340564px" fill="#ffffff" text-anchor="start" style="white-space: pre;" direction="ltr" dominant-baseline="alphabetic">SERVER </text><text x="0" y="41.94420540939826" font-family="Helvetica, sans-serif, Segoe UI Emoji" font-size="21.0244585340564px" fill="#ffffff" text-anchor="start" style="white-space: pre;" direction="ltr" dominant-baseline="alphabetic">LXC v4.0.6</text></g><g transform="translate(235.50119907734836 572.6750671786923) rotate(0 29.786360564728852 12.08906365708242)"><text x="0" y="17.7660780952334" font-family="Helvetica, sans-serif, Segoe UI Emoji" font-size="21.0244585340564px" fill="#ffffff" text-anchor="start" style="white-space: pre;" direction="ltr" dominant-baseline="alphabetic">DHCP</text></g><g stroke-linecap="round"><g transform="translate(783.0530641126481 654.2052048925665) rotate(0 0.0000016351759768440388 29.506469608178634)" fill-rule="evenodd"><path d="M0 0 L24.39 0 L24.39 -24.39 L-18.29 -24.39 L-18.29 -24.39 L-22.6 -22.6 L-24.39 -18.29 L-24.39 79.25 L-24.39 79.25 L-22.68 83.4 L0 60.96 L0 0" stroke="none" stroke-width="0" fill="#aecbfa" fill-rule="evenodd"></path><path d="M0 0 C7.21 0, 14.43 0, 24.39 0 M0 0 C5.06 0, 10.12 0, 24.39 0 M24.39 0 C24.39 -7.13, 24.39 -14.26, 24.39 -24.39 M24.39 0 C24.39 -6.52, 24.39 -13.04, 24.39 -24.39 M24.39 -24.39 C8.48 -24.39, -7.43 -24.39, -18.29 -24.39 M24.39 -24.39 C13.91 -24.39, 3.43 -24.39, -18.29 -24.39 M-18.29 -24.39 C-18.29 -24.39, -18.29 -24.39, -18.29 -24.39 M-18.29 -24.39 C-18.29 -24.39, -18.29 -24.39, -18.29 -24.39 M-18.29 -24.39 C-19.9 -23.72, -21.51 -23.05, -22.6 -22.6 M-18.29 -24.39 C-19.91 -23.71, -21.53 -23.04, -22.6 -22.6 M-22.6 -22.6 C-23.18 -21.19, -23.77 -19.78, -24.39 -18.29 M-22.6 -22.6 C-23.05 -21.51, -23.51 -20.41, -24.39 -18.29 M-24.39 -18.29 C-24.39 19.23, -24.39 56.74, -24.39 79.25 M-24.39 -18.29 C-24.39 16, -24.39 50.29, -24.39 79.25 M-24.39 79.25 C-24.39 79.25, -24.39 79.25, -24.39 79.25 M-24.39 79.25 C-24.39 79.25, -24.39 79.25, -24.39 79.25 M-24.39 79.25 C-23.99 80.22, -23.59 81.19, -22.68 83.4 M-24.39 79.25 C-23.72 80.86, -23.06 82.46, -22.68 83.4 M-22.68 83.4 C-17.51 78.29, -12.35 73.18, 0 60.96 M-22.68 83.4 C-14.01 74.82, -5.33 66.24, 0 60.96 M0 60.96 C0 43.79, 0 26.61, 0 0 M0 60.96 C0 38.97, 0 16.97, 0 0 M0 0 C0 0, 0 0, 0 0 M0 0 C0 0, 0 0, 0 0" stroke="#000000" stroke-width="1" fill="none"></path></g></g><mask></mask><g stroke-linecap="round"><g transform="translate(844.0168445290751 715.1689809485251) rotate(0 12.19275695537931 -0.8534920711780387)" fill-rule="evenodd"><path d="M0 0 L22.68 22.68 L22.68 22.68 L24.39 18.29 L24.39 -24.39 L0 -24.39 L0 0" stroke="none" stroke-width="0" fill="#4285f4" fill-rule="evenodd"></path><path d="M0 0 C5.6 5.6, 11.2 11.2, 22.68 22.68 M0 0 C6 6, 12.01 12.01, 22.68 22.68 M22.68 22.68 C22.68 22.68, 22.68 22.68, 22.68 22.68 M22.68 22.68 C22.68 22.68, 22.68 22.68, 22.68 22.68 M22.68 22.68 C23.08 21.63, 23.49 20.59, 24.39 18.29 M22.68 22.68 C23.3 21.09, 23.92 19.5, 24.39 18.29 M24.39 18.29 C24.39 4.56, 24.39 -9.16, 24.39 -24.39 M24.39 18.29 C24.39 9.11, 24.39 -0.07, 24.39 -24.39 M24.39 -24.39 C15.53 -24.39, 6.66 -24.39, 0 -24.39 M24.39 -24.39 C16.26 -24.39, 8.14 -24.39, 0 -24.39 M0 -24.39 C0 -15.83, 0 -7.28, 0 0 M0 -24.39 C0 -15.2, 0 -6.01, 0 0 M0 0 C0 0, 0 0, 0 0 M0 0 C0 0, 0 0, 0 0" stroke="#000000" stroke-width="1" fill="none"></path></g></g><mask></mask><g stroke-linecap="round"><g transform="translate(878.8271588125474 619.3339225292544) rotate(0 -10.424804733184146 23.53201965934602)" fill-rule="evenodd"><path d="M0 0 L-22.62 22.68 L-22.62 22.68 L-22.62 47.06 L1.77 47.06 L1.77 4.39 L1.77 4.39 L0 0 L0 0" stroke="none" stroke-width="0" fill="#669df6" fill-rule="evenodd"></path><path d="M0 0 C-5.09 5.11, -10.19 10.21, -22.62 22.68 M0 0 C-7.4 7.42, -14.81 14.85, -22.62 22.68 M-22.62 22.68 C-22.62 22.68, -22.62 22.68, -22.62 22.68 M-22.62 22.68 C-22.62 22.68, -22.62 22.68, -22.62 22.68 M-22.62 22.68 C-22.62 28.31, -22.62 33.94, -22.62 47.06 M-22.62 22.68 C-22.62 29.53, -22.62 36.39, -22.62 47.06 M-22.62 47.06 C-15.91 47.06, -9.21 47.06, 1.77 47.06 M-22.62 47.06 C-15.14 47.06, -7.67 47.06, 1.77 47.06 M1.77 47.06 C1.77 37.8, 1.77 28.53, 1.77 4.39 M1.77 47.06 C1.77 34.07, 1.77 21.07, 1.77 4.39 M1.77 4.39 C1.77 4.39, 1.77 4.39, 1.77 4.39 M1.77 4.39 C1.77 4.39, 1.77 4.39, 1.77 4.39 M1.77 4.39 C1.35 3.36, 0.94 2.33, 0 0 M1.77 4.39 C1.08 2.69, 0.4 0.98, 0 0 M0 0 C0 0, 0 0, 0 0 M0 0 C0 0, 0 0, 0 0 M0 0 C0 0, 0 0, 0 0 M0 0 C0 0, 0 0, 0 0" stroke="#000000" stroke-width="1" fill="none"></path></g></g><mask></mask><g stroke-linecap="round"><g transform="translate(856.2095971239833 642.0124479371866) rotate(0 -0.8534920711780387 -12.19275532020339)" fill-rule="evenodd"><path d="M0 0 L22.68 -22.68 L22.68 -22.68 L18.29 -24.39 L-24.39 -24.39 L-24.39 0 L0 0" stroke="none" stroke-width="0" fill="#aecbfa" fill-rule="evenodd"></path><path d="M0 0 C7.31 -7.31, 14.62 -14.62, 22.68 -22.68 M0 0 C5.28 -5.28, 10.57 -10.57, 22.68 -22.68 M22.68 -22.68 C22.68 -22.68, 22.68 -22.68, 22.68 -22.68 M22.68 -22.68 C22.68 -22.68, 22.68 -22.68, 22.68 -22.68 M22.68 -22.68 C21.3 -23.21, 19.92 -23.75, 18.29 -24.39 M22.68 -22.68 C21.61 -23.1, 20.53 -23.51, 18.29 -24.39 M18.29 -24.39 C7.97 -24.39, -2.35 -24.39, -24.39 -24.39 M18.29 -24.39 C5.53 -24.39, -7.23 -24.39, -24.39 -24.39 M-24.39 -24.39 C-24.39 -17.88, -24.39 -11.38, -24.39 0 M-24.39 -24.39 C-24.39 -18.59, -24.39 -12.79, -24.39 0 M-24.39 0 C-16.54 0, -8.69 0, 0 0 M-24.39 0 C-18.26 0, -12.13 0, 0 0 M0 0 C0 0, 0 0, 0 0 M0 0 C0 0, 0 0, 0 0" stroke="#000000" stroke-width="1" fill="none"></path></g></g><mask></mask><g stroke-linecap="round"><g transform="translate(758.6675534722413 739.5544948592835) rotate(0 54.867402483796354 -12.19275695537931)" fill-rule="evenodd"><path d="M0 0 L24.39 -24.39 L85.35 -24.39 L109.73 0 L0 0 L0 0" stroke="none" stroke-width="0" fill="#669df6" fill-rule="evenodd"></path><path d="M0 0 C6.12 -6.12, 12.23 -12.23, 24.39 -24.39 M0 0 C6.37 -6.37, 12.74 -12.74, 24.39 -24.39 M24.39 -24.39 C40.85 -24.39, 57.31 -24.39, 85.35 -24.39 M24.39 -24.39 C41.44 -24.39, 58.49 -24.39, 85.35 -24.39 M85.35 -24.39 C90.72 -19.01, 96.09 -13.64, 109.73 0 M85.35 -24.39 C94.77 -14.96, 104.2 -5.54, 109.73 0 M109.73 0 C81.99 0, 54.24 0, 0 0 M109.73 0 C80.5 0, 51.27 0, 0 0 M0 0 C0 0, 0 0, 0 0 M0 0 C0 0, 0 0, 0 0 M0 0 C0 0, 0 0, 0 0 M0 0 C0 0, 0 0, 0 0" stroke="#000000" stroke-width="1" fill="none"></path></g></g><mask></mask><g transform="translate(713.5722284948904 749.4502787619103) rotate(0 103.96738466975398 35.849397243967985)"><text x="103.96738466975401" y="17.626813519473636" font-family="Helvetica, sans-serif, Segoe UI Emoji" font-size="21.0244585340564px" fill="#ffffff" text-anchor="middle" style="white-space: pre;" direction="ltr" dominant-baseline="alphabetic">CONTENEDOR LXC  </text><text x="103.96738466975401" y="41.52641168211896" font-family="Helvetica, sans-serif, Segoe UI Emoji" font-size="21.0244585340564px" fill="#ffffff" text-anchor="middle" style="white-space: pre;" direction="ltr" dominant-baseline="alphabetic">OPENWRT</text><text x="103.96738466975401" y="65.42600984476428" font-family="Helvetica, sans-serif, Segoe UI Emoji" font-size="21.0244585340564px" fill="#ffffff" text-anchor="middle" style="white-space: pre;" direction="ltr" dominant-baseline="alphabetic"> RIPE ATLAS</text></g><g transform="translate(10 575.2704522256328) rotate(0 48.06397124483101 15.543081844820279)"><text x="0" y="22.842100408157233" font-family="Helvetica, sans-serif, Segoe UI Emoji" font-size="27.031446686643946px" fill="#ffffff" text-anchor="start" style="white-space: pre;" direction="ltr" dominant-baseline="alphabetic">SONDA</text></g><g transform="translate(711.6950446972069 597.5048679356108) rotate(0 48.06397124483101 15.543081844820279)"><text x="0" y="22.842100408157233" font-family="Helvetica, sans-serif, Segoe UI Emoji" font-size="27.031446686643946px" fill="#ffffff" text-anchor="start" style="white-space: pre;" direction="ltr" dominant-baseline="alphabetic">SONDA</text></g><g transform="translate(458.72040248866915 441.33787425278297) rotate(0 52.97178029088434 12.08906365708242)"><text x="0" y="17.7660780952334" font-family="Helvetica, sans-serif, Segoe UI Emoji" font-size="21.0244585340564px" fill="#ffffff" text-anchor="start" style="white-space: pre;" direction="ltr" dominant-baseline="alphabetic">DEBIAN 11</text></g></svg>